Onest-ExtraBold.ufo
<glyph name="exclam" format="2">
  <advance width="320"/>
  <unicode hex="0021"/>
  <outline>
    <contour>
      <point x="161" y="179" type="curve" smooth="yes"/>
      <point x="214" y="179"/>
      <point x="256" y="147"/>
      <point x="256" y="84" type="curve" smooth="yes"/>
      <point x="256" y="23"/>
      <point x="211" y="-9"/>
      <point x="161" y="-9" type="curve" smooth="yes"/>
      <point x="109" y="-9"/>
      <point x="64" y="21"/>
      <point x="64" y="84" type="curve" smooth="yes"/>
      <point x="64" y="147"/>
      <point x="108" y="179"/>
    </contour>
    <contour>
      <point x="233" y="242" type="line"/>
      <point x="88" y="242" type="line"/>
      <point x="76" y="708" type="line"/>
      <point x="246" y="708" type="line"/>
    </contour>
  </outline>
</glyph>
<glyph name="quotedbl" format="2">
  <advance width="437"/>
  <unicode hex="0022"/>
  <outline>
    <contour>
      <point x="367" y="425" type="line"/>
      <point x="261" y="425" type="line"/>
      <point x="241" y="708" type="line"/>
      <point x="391" y="708" type="line"/>
    </contour>
    <contour>
      <point x="171" y="425" type="line"/>
      <point x="65" y="425" type="line"/>
      <point x="46" y="708" type="line"/>
      <point x="194" y="708" type="line"/>
    </contour>
  </outline>
</glyph>
<glyph name="numbersign" format="2">
  <advance width="686"/>
  <unicode hex="0023"/>
  <outline>
    <contour>
      <point x="548" y="542" type="line"/>
      <point x="640" y="542" type="line"/>
      <point x="640" y="406" type="line"/>
      <point x="532" y="406" type="line"/>
      <point x="519" y="301" type="line"/>
      <point x="611" y="301" type="line"/>
      <point x="611" y="165" type="line"/>
      <point x="503" y="165" type="line"/>
      <point x="495" y="108"/>
      <point x="489" y="56"/>
      <point x="482" y="0" type="curve"/>
      <point x="354" y="0" type="line"/>
      <point x="373" y="165" type="line"/>
      <point x="268" y="165" type="line"/>
      <point x="248" y="0" type="line"/>
      <point x="117" y="0" type="line"/>
      <point x="138" y="165" type="line"/>
      <point x="46" y="165" type="line"/>
      <point x="46" y="301" type="line"/>
      <point x="155" y="301" type="line"/>
      <point x="154" y="301" type="line"/>
      <point x="167" y="406" type="line"/>
      <point x="74" y="406" type="line"/>
      <point x="74" y="542" type="line"/>
      <point x="183" y="542" type="line"/>
      <point x="204" y="708" type="line"/>
      <point x="332" y="708" type="line"/>
      <point x="313" y="542" type="line"/>
      <point x="418" y="542" type="line"/>
      <point x="439" y="708" type="line"/>
      <point x="568" y="708" type="line"/>
    </contour>
    <contour>
      <point x="390" y="301" type="line"/>
      <point x="402" y="406" type="line"/>
      <point x="296" y="406" type="line"/>
      <point x="284" y="301" type="line"/>
    </contour>
  </outline>
</glyph>
<glyph name="dollar" format="2">
  <advance width="674"/>
  <unicode hex="0024"/>
  <outline>
    <contour>
      <point x="457" y="486" type="line"/>
      <point x="450" y="545"/>
      <point x="400" y="568"/>
      <point x="336" y="571" type="curve" smooth="yes"/>
      <point x="285" y="574"/>
      <point x="229" y="560"/>
      <point x="229" y="508" type="curve" smooth="yes"/>
      <point x="229" y="475"/>
      <point x="257" y="456"/>
      <point x="298" y="444" type="curve" smooth="yes"/>
      <point x="361" y="425"/>
      <point x="400" y="420"/>
      <point x="437" y="411" type="curve" smooth="yes"/>
      <point x="545" y="384"/>
      <point x="627" y="353"/>
      <point x="627" y="216" type="curve" smooth="yes"/>
      <point x="627" y="72"/>
      <point x="524" y="10"/>
      <point x="407" y="-3" type="curve"/>
      <point x="407" y="-140" type="line"/>
      <point x="262" y="-140" type="line"/>
      <point x="262" y="1" type="line"/>
      <point x="135" y="28"/>
      <point x="51" y="104"/>
      <point x="46" y="237" type="curve"/>
      <point x="207" y="237" type="line"/>
      <point x="218" y="168"/>
      <point x="286" y="142"/>
      <point x="353" y="142" type="curve" smooth="yes"/>
      <point x="409" y="142"/>
      <point x="466" y="155"/>
      <point x="466" y="206" type="curve" smooth="yes"/>
      <point x="466" y="242"/>
      <point x="434" y="255"/>
      <point x="399" y="264" type="curve"/>
      <point x="385" y="267"/>
      <point x="368" y="272"/>
      <point x="305" y="285" type="curve" smooth="yes"/>
      <point x="157" y="317"/>
      <point x="68" y="369"/>
      <point x="68" y="502" type="curve" smooth="yes"/>
      <point x="68" y="629"/>
      <point x="162" y="697"/>
      <point x="266" y="710" type="curve"/>
      <point x="266" y="852" type="line"/>
      <point x="410" y="852" type="line"/>
      <point x="410" y="709" type="line"/>
      <point x="528" y="696"/>
      <point x="608" y="612"/>
      <point x="613" y="486" type="curve"/>
    </contour>
  </outline>
</glyph>
<glyph name="percent" format="2">
  <advance width="907"/>
  <unicode hex="0025"/>
  <outline>
    <contour>
      <point x="682" y="-11" type="curve" smooth="yes"/>
      <point x="574" y="-11"/>
      <point x="502" y="61"/>
      <point x="502" y="167" type="curve" smooth="yes"/>
      <point x="502" y="276"/>
      <point x="574" y="348"/>
      <point x="682" y="348" type="curve" smooth="yes"/>
      <point x="791" y="348"/>
      <point x="861" y="279"/>
      <point x="861" y="167" type="curve" smooth="yes"/>
      <point x="861" y="61"/>
      <point x="789" y="-11"/>
    </contour>
    <contour>
      <point x="225" y="361" type="curve" smooth="yes"/>
      <point x="115" y="361"/>
      <point x="46" y="433"/>
      <point x="46" y="540" type="curve" smooth="yes"/>
      <point x="46" y="648"/>
      <point x="117" y="720"/>
      <point x="225" y="720" type="curve" smooth="yes"/>
      <point x="334" y="720"/>
      <point x="404" y="651"/>
      <point x="404" y="540" type="curve" smooth="yes"/>
      <point x="404" y="433"/>
      <point x="333" y="361"/>
    </contour>
    <contour>
      <point x="138" y="0" type="line"/>
      <point x="604" y="708" type="line"/>
      <point x="764" y="708" type="line"/>
      <point x="301" y="0" type="line"/>
    </contour>
    <contour>
      <point x="225" y="603" type="curve" smooth="yes"/>
      <point x="182" y="603"/>
      <point x="165" y="574"/>
      <point x="165" y="542" type="curve" smooth="yes"/>
      <point x="165" y="507"/>
      <point x="180" y="477"/>
      <point x="225" y="477" type="curve" smooth="yes"/>
      <point x="268" y="477"/>
      <point x="284" y="507"/>
      <point x="284" y="540" type="curve" smooth="yes"/>
      <point x="284" y="572"/>
      <point x="268" y="603"/>
    </contour>
    <contour>
      <point x="682" y="231" type="curve" smooth="yes"/>
      <point x="641" y="231"/>
      <point x="622" y="201"/>
      <point x="622" y="168" type="curve" smooth="yes"/>
      <point x="622" y="133"/>
      <point x="637" y="104"/>
      <point x="682" y="104" type="curve" smooth="yes"/>
      <point x="725" y="104"/>
      <point x="741" y="134"/>
      <point x="741" y="167" type="curve" smooth="yes"/>
      <point x="741" y="200"/>
      <point x="725" y="231"/>
    </contour>
  </outline>
</glyph>
<glyph name="ampersand" format="2">
  <advance width="731"/>
  <unicode hex="0026"/>
  <outline>
    <contour>
      <point x="526" y="0" type="line"/>
      <point x="479" y="48" type="line"/>
      <point x="427" y="5"/>
      <point x="357" y="-12"/>
      <point x="284" y="-12" type="curve" smooth="yes"/>
      <point x="164" y="-12"/>
      <point x="54" y="51"/>
      <point x="54" y="190" type="curve" smooth="yes"/>
      <point x="54" y="281"/>
      <point x="105" y="340"/>
      <point x="169" y="379" type="curve"/>
      <point x="133" y="418"/>
      <point x="108" y="464"/>
      <point x="108" y="520" type="curve" smooth="yes"/>
      <point x="108" y="651"/>
      <point x="209" y="714"/>
      <point x="329" y="714" type="curve" smooth="yes"/>
      <point x="429" y="714"/>
      <point x="520" y="651"/>
      <point x="520" y="541" type="curve" smooth="yes"/>
      <point x="520" y="451"/>
      <point x="456" y="395"/>
      <point x="390" y="352" type="curve"/>
      <point x="482" y="252" type="line"/>
      <point x="497" y="281"/>
      <point x="504" y="319"/>
      <point x="505" y="344" type="curve"/>
      <point x="640" y="344" type="line"/>
      <point x="633" y="276"/>
      <point x="616" y="213"/>
      <point x="579" y="154" type="curve"/>
      <point x="720" y="0" type="line"/>
    </contour>
    <contour>
      <point x="260" y="287" type="line"/>
      <point x="215" y="258"/>
      <point x="198" y="228"/>
      <point x="198" y="197" type="curve" smooth="yes"/>
      <point x="198" y="141"/>
      <point x="250" y="121"/>
      <point x="303" y="121" type="curve" smooth="yes"/>
      <point x="335" y="121"/>
      <point x="369" y="132"/>
      <point x="390" y="147" type="curve"/>
    </contour>
    <contour>
      <point x="297" y="441" type="curve"/>
      <point x="334" y="459"/>
      <point x="377" y="490"/>
      <point x="377" y="530" type="curve" smooth="yes"/>
      <point x="377" y="559"/>
      <point x="356" y="587"/>
      <point x="316" y="587" type="curve" smooth="yes"/>
      <point x="272" y="587"/>
      <point x="247" y="561"/>
      <point x="247" y="526" type="curve" smooth="yes"/>
      <point x="247" y="495"/>
      <point x="269" y="468"/>
    </contour>
  </outline>
</glyph>
<glyph name="quotesingle" format="2">
  <advance width="260"/>
  <unicode hex="0027"/>
  <outline>
    <contour>
      <point x="182" y="425" type="line"/>
      <point x="76" y="425" type="line"/>
      <point x="54" y="708" type="line"/>
      <point x="206" y="708" type="line"/>
    </contour>
  </outline>
</glyph>
<glyph name="parenleft" format="2">
  <advance width="366"/>
  <unicode hex="0028"/>
  <outline>
    <contour>
      <point x="52" y="308" type="curve" smooth="yes"/>
      <point x="52" y="487"/>
      <point x="105" y="659"/>
      <point x="217" y="806" type="curve"/>
      <point x="409" y="806" type="line"/>
      <point x="276" y="665"/>
      <point x="216" y="479"/>
      <point x="213" y="308" type="curve"/>
      <point x="216" y="138"/>
      <point x="275" y="-50"/>
      <point x="409" y="-189" type="curve"/>
      <point x="217" y="-189" type="line"/>
      <point x="105" y="-44"/>
      <point x="52" y="129"/>
    </contour>
  </outline>
</glyph>
<glyph name="parenright" format="2">
  <advance width="366"/>
  <unicode hex="0029"/>
  <outline>
    <contour>
      <point x="314" y="308" type="curve" smooth="yes"/>
      <point x="314" y="129"/>
      <point x="260" y="-44"/>
      <point x="149" y="-189" type="curve"/>
      <point x="-43" y="-189" type="line"/>
      <point x="89" y="-49"/>
      <point x="150" y="137"/>
      <point x="153" y="308" type="curve"/>
      <point x="150" y="480"/>
      <point x="89" y="664"/>
      <point x="-43" y="806" type="curve"/>
      <point x="149" y="806" type="line"/>
      <point x="260" y="659"/>
      <point x="314" y="487"/>
    </contour>
  </outline>
</glyph>
<glyph name="asterisk" format="2">
  <advance width="487"/>
  <unicode hex="002A"/>
  <outline>
    <contour>
      <point x="189" y="627" type="line"/>
      <point x="179" y="727" type="line"/>
      <point x="308" y="727" type="line"/>
      <point x="298" y="627" type="line"/>
      <point x="391" y="668" type="line"/>
      <point x="431" y="545" type="line"/>
      <point x="332" y="523" type="line"/>
      <point x="399" y="447" type="line"/>
      <point x="294" y="371" type="line"/>
      <point x="243" y="458" type="line"/>
      <point x="192" y="371" type="line"/>
      <point x="87" y="447" type="line"/>
      <point x="155" y="523" type="line"/>
      <point x="56" y="545" type="line"/>
      <point x="96" y="668" type="line"/>
    </contour>
  </outline>
</glyph>
<glyph name="plus" format="2">
  <advance width="604"/>
  <unicode hex="002B"/>
  <outline>
    <contour>
      <point x="370" y="292" type="line"/>
      <point x="370" y="117" type="line"/>
      <point x="233" y="117" type="line"/>
      <point x="233" y="292" type="line"/>
      <point x="61" y="292" type="line"/>
      <point x="61" y="430" type="line"/>
      <point x="233" y="430" type="line"/>
      <point x="233" y="603" type="line"/>
      <point x="370" y="603" type="line"/>
      <point x="370" y="430" type="line"/>
      <point x="543" y="430" type="line"/>
      <point x="543" y="292" type="line"/>
    </contour>
  </outline>
</glyph>
<glyph name="comma" format="2">
  <advance width="322"/>
  <unicode hex="002C"/>
  <outline>
    <contour>
      <point x="148" y="-9" type="curve"/>
      <point x="103" y="-5"/>
      <point x="64" y="25"/>
      <point x="64" y="81" type="curve" smooth="yes"/>
      <point x="64" y="144"/>
      <point x="111" y="176"/>
      <point x="164" y="176" type="curve" smooth="yes"/>
      <point x="233" y="176"/>
      <point x="270" y="120"/>
      <point x="267" y="48" type="curve"/>
      <point x="264" y="-58"/>
      <point x="180" y="-148"/>
      <point x="97" y="-175" type="curve"/>
      <point x="54" y="-110" type="line"/>
      <point x="89" y="-91"/>
      <point x="135" y="-49"/>
    </contour>
  </outline>
</glyph>
<glyph name="hyphen" format="2">
  <advance width="467"/>
  <unicode hex="002D"/>
  <outline>
    <contour>
      <point x="406" y="224" type="line"/>
      <point x="61" y="224" type="line"/>
      <point x="61" y="362" type="line"/>
      <point x="406" y="362" type="line"/>
    </contour>
  </outline>
</glyph>
<glyph name="period" format="2">
  <advance width="297"/>
  <unicode hex="002E"/>
  <outline>
    <contour>
      <point x="149" y="180" type="curve" smooth="yes"/>
      <point x="202" y="180"/>
      <point x="243" y="146"/>
      <point x="243" y="83" type="curve" smooth="yes"/>
      <point x="243" y="19"/>
      <point x="202" y="-13"/>
      <point x="149" y="-13" type="curve" smooth="yes"/>
      <point x="94" y="-13"/>
      <point x="54" y="19"/>
      <point x="54" y="83" type="curve" smooth="yes"/>
      <point x="54" y="144"/>
      <point x="96" y="180"/>
    </contour>
  </outline>
</glyph>
<glyph name="slash" format="2">
  <advance width="519"/>
  <unicode hex="002F"/>
  <outline>
    <contour>
      <point x="26" y="-165" type="line"/>
      <point x="339" y="781" type="line"/>
      <point x="493" y="781" type="line"/>
      <point x="180" y="-165" type="line"/>
    </contour>
  </outline>
</glyph>
<glyph name="zero" format="2">
  <advance width="657"/>
  <unicode hex="0030"/>
  <outline>
    <contour>
      <point x="329" y="141" type="curve" smooth="yes"/>
      <point x="426" y="141"/>
      <point x="454" y="239"/>
      <point x="454" y="355" type="curve" smooth="yes"/>
      <point x="454" y="468"/>
      <point x="427" y="567"/>
      <point x="331" y="567" type="curve" smooth="yes"/>
      <point x="232" y="567"/>
      <point x="204" y="470"/>
      <point x="204" y="355" type="curve" smooth="yes"/>
      <point x="204" y="240"/>
      <point x="230" y="141"/>
    </contour>
    <contour>
      <point x="331" y="717" type="curve" smooth="yes"/>
      <point x="518" y="717"/>
      <point x="614" y="579"/>
      <point x="614" y="355" type="curve" smooth="yes"/>
      <point x="614" y="129"/>
      <point x="521" y="-7"/>
      <point x="329" y="-7" type="curve" smooth="yes"/>
      <point x="136" y="-7"/>
      <point x="44" y="129"/>
      <point x="44" y="355" type="curve" smooth="yes"/>
      <point x="44" y="580"/>
      <point x="141" y="717"/>
    </contour>
  </outline>
</glyph>
<glyph name="one" format="2">
  <advance width="408"/>
  <unicode hex="0031"/>
  <outline>
    <contour>
      <point x="314" y="0" type="line"/>
      <point x="151" y="0" type="line"/>
      <point x="151" y="504" type="line"/>
      <point x="12" y="504" type="line"/>
      <point x="12" y="624" type="line"/>
      <point x="92" y="624"/>
      <point x="157" y="645"/>
      <point x="194" y="708" type="curve"/>
      <point x="314" y="708" type="line"/>
    </contour>
  </outline>
</glyph>
<glyph name="two" format="2">
  <advance width="557"/>
  <unicode hex="0032"/>
  <outline>
    <contour>
      <point x="22" y="133" type="line"/>
      <point x="86" y="185"/>
      <point x="149" y="237"/>
      <point x="213" y="293" type="curve" smooth="yes"/>
      <point x="259" y="333"/>
      <point x="289" y="361"/>
      <point x="304" y="376" type="curve" smooth="yes"/>
      <point x="334" y="407"/>
      <point x="357" y="444"/>
      <point x="357" y="485" type="curve" smooth="yes"/>
      <point x="357" y="530"/>
      <point x="329" y="566"/>
      <point x="269" y="566" type="curve" smooth="yes"/>
      <point x="201" y="566"/>
      <point x="175" y="532"/>
      <point x="168" y="491" type="curve"/>
      <point x="17" y="491" type="line"/>
      <point x="22" y="641"/>
      <point x="136" y="716"/>
      <point x="277" y="716" type="curve" smooth="yes"/>
      <point x="409" y="716"/>
      <point x="520" y="642"/>
      <point x="520" y="496" type="curve" smooth="yes"/>
      <point x="520" y="336"/>
      <point x="368" y="235"/>
      <point x="257" y="147" type="curve"/>
      <point x="512" y="147" type="line"/>
      <point x="512" y="0" type="line"/>
      <point x="22" y="0" type="line"/>
    </contour>
  </outline>
</glyph>
<glyph name="three" format="2">
  <advance width="620"/>
  <unicode hex="0033"/>
  <outline>
    <contour>
      <point x="40" y="497" type="line"/>
      <point x="53" y="649"/>
      <point x="165" y="717"/>
      <point x="303" y="717" type="curve" smooth="yes"/>
      <point x="427" y="717"/>
      <point x="549" y="664"/>
      <point x="549" y="524" type="curve" smooth="yes"/>
      <point x="549" y="467"/>
      <point x="518" y="412"/>
      <point x="470" y="384" type="curve"/>
      <point x="541" y="357"/>
      <point x="576" y="292"/>
      <point x="575" y="216" type="curve" smooth="yes"/>
      <point x="572" y="42"/>
      <point x="421" y="-7"/>
      <point x="302" y="-7" type="curve" smooth="yes"/>
      <point x="225" y="-7"/>
      <point x="160" y="13"/>
      <point x="107" y="53" type="curve" smooth="yes"/>
      <point x="54" y="92"/>
      <point x="25" y="149"/>
      <point x="20" y="223" type="curve"/>
      <point x="180" y="223" type="line"/>
      <point x="193" y="164"/>
      <point x="245" y="142"/>
      <point x="304" y="142" type="curve" smooth="yes"/>
      <point x="357" y="142"/>
      <point x="406" y="162"/>
      <point x="406" y="222" type="curve" smooth="yes"/>
      <point x="406" y="259"/>
      <point x="384" y="292"/>
      <point x="320" y="292" type="curve" smooth="yes"/>
      <point x="238" y="292" type="line"/>
      <point x="238" y="426" type="line"/>
      <point x="293" y="426" type="line" smooth="yes"/>
      <point x="372" y="426"/>
      <point x="382" y="478"/>
      <point x="382" y="503" type="curve"/>
      <point x="381" y="544"/>
      <point x="346" y="569"/>
      <point x="298" y="569" type="curve" smooth="yes"/>
      <point x="243" y="569"/>
      <point x="206" y="542"/>
      <point x="198" y="497" type="curve"/>
    </contour>
  </outline>
</glyph>
<glyph name="four" format="2">
  <advance width="637"/>
  <unicode hex="0034"/>
  <outline>
    <contour>
      <point x="537" y="272" type="line"/>
      <point x="613" y="272" type="line"/>
      <point x="613" y="127" type="line"/>
      <point x="537" y="127" type="line"/>
      <point x="537" y="0" type="line"/>
      <point x="374" y="0" type="line"/>
      <point x="374" y="127" type="line"/>
      <point x="29" y="127" type="line"/>
      <point x="29" y="247" type="line"/>
      <point x="346" y="708" type="line"/>
      <point x="537" y="708" type="line"/>
    </contour>
    <contour>
      <point x="213" y="272" type="line"/>
      <point x="374" y="272" type="line"/>
      <point x="374" y="519" type="line"/>
    </contour>
  </outline>
</glyph>
<glyph name="five" format="2">
  <advance width="617"/>
  <unicode hex="0035"/>
  <outline>
    <contour>
      <point x="61" y="297" type="line"/>
      <point x="70" y="434"/>
      <point x="81" y="573"/>
      <point x="88" y="708" type="curve"/>
      <point x="548" y="708" type="line"/>
      <point x="548" y="562" type="line"/>
      <point x="230" y="562" type="line"/>
      <point x="227" y="523"/>
      <point x="224" y="483"/>
      <point x="220" y="444" type="curve"/>
      <point x="263" y="467"/>
      <point x="305" y="474"/>
      <point x="346" y="474" type="curve" smooth="yes"/>
      <point x="494" y="474"/>
      <point x="576" y="383"/>
      <point x="576" y="244" type="curve" smooth="yes"/>
      <point x="576" y="84"/>
      <point x="461" y="-7"/>
      <point x="309" y="-7" type="curve" smooth="yes"/>
      <point x="161" y="-7"/>
      <point x="66" y="60"/>
      <point x="49" y="219" type="curve"/>
      <point x="208" y="219" type="line"/>
      <point x="217" y="176"/>
      <point x="253" y="145"/>
      <point x="306" y="142" type="curve"/>
      <point x="379" y="142"/>
      <point x="411" y="182"/>
      <point x="411" y="238" type="curve" smooth="yes"/>
      <point x="411" y="286"/>
      <point x="376" y="335"/>
      <point x="310" y="335" type="curve" smooth="yes"/>
      <point x="267" y="335"/>
      <point x="234" y="321"/>
      <point x="203" y="297" type="curve"/>
    </contour>
  </outline>
</glyph>
<glyph name="six" format="2">
  <advance width="625"/>
  <unicode hex="0036"/>
  <outline>
    <contour>
      <point x="323" y="139" type="curve"/>
      <point x="384" y="139"/>
      <point x="422" y="181"/>
      <point x="422" y="232" type="curve" smooth="yes"/>
      <point x="422" y="288"/>
      <point x="390" y="329"/>
      <point x="322" y="328" type="curve" smooth="yes"/>
      <point x="267" y="327"/>
      <point x="229" y="287"/>
      <point x="226" y="239" type="curve"/>
      <point x="226" y="187"/>
      <point x="255" y="142"/>
    </contour>
    <contour>
      <point x="430" y="509" type="line"/>
      <point x="419" y="548"/>
      <point x="384" y="570"/>
      <point x="336" y="570" type="curve" smooth="yes"/>
      <point x="239" y="570"/>
      <point x="194" y="480"/>
      <point x="194" y="395" type="curve"/>
      <point x="239" y="449"/>
      <point x="309" y="465"/>
      <point x="357" y="465" type="curve" smooth="yes"/>
      <point x="498" y="465"/>
      <point x="584" y="385"/>
      <point x="584" y="238" type="curve" smooth="yes"/>
      <point x="584" y="87"/>
      <point x="467" y="-6"/>
      <point x="332" y="-6" type="curve" smooth="yes"/>
      <point x="120" y="-6"/>
      <point x="45" y="158"/>
      <point x="45" y="342" type="curve"/>
      <point x="46" y="436"/>
      <point x="63" y="525"/>
      <point x="112" y="598" type="curve" smooth="yes"/>
      <point x="160" y="670"/>
      <point x="238" y="715"/>
      <point x="343" y="716" type="curve"/>
      <point x="466" y="716"/>
      <point x="570" y="653"/>
      <point x="583" y="509" type="curve"/>
    </contour>
  </outline>
</glyph>
<glyph name="seven" format="2">
  <advance width="516"/>
  <unicode hex="0037"/>
  <outline>
    <contour>
      <point x="60" y="0" type="line"/>
      <point x="320" y="559" type="line"/>
      <point x="-1" y="559" type="line"/>
      <point x="-1" y="708" type="line"/>
      <point x="506" y="708" type="line"/>
      <point x="506" y="589" type="line"/>
      <point x="242" y="0" type="line"/>
    </contour>
  </outline>
</glyph>
<glyph name="eight" format="2">
  <advance width="628"/>
  <unicode hex="0038"/>
  <outline>
    <contour>
      <point x="584" y="206" type="curve"/>
      <point x="581" y="52"/>
      <point x="447" y="-8"/>
      <point x="315" y="-8" type="curve" smooth="yes"/>
      <point x="180" y="-8"/>
      <point x="47" y="52"/>
      <point x="44" y="208" type="curve"/>
      <point x="44" y="288"/>
      <point x="73" y="349"/>
      <point x="145" y="381" type="curve"/>
      <point x="98" y="412"/>
      <point x="70" y="463"/>
      <point x="70" y="519" type="curve" smooth="yes"/>
      <point x="70" y="665"/>
      <point x="192" y="717"/>
      <point x="316" y="717" type="curve" smooth="yes"/>
      <point x="440" y="717"/>
      <point x="558" y="663"/>
      <point x="558" y="519" type="curve" smooth="yes"/>
      <point x="558" y="463"/>
      <point x="527" y="409"/>
      <point x="482" y="381" type="curve"/>
      <point x="553" y="350"/>
      <point x="584" y="290"/>
    </contour>
    <contour>
      <point x="314" y="578" type="curve" smooth="yes"/>
      <point x="259" y="578"/>
      <point x="227" y="550"/>
      <point x="227" y="502" type="curve" smooth="yes"/>
      <point x="227" y="455"/>
      <point x="261" y="425"/>
      <point x="314" y="425" type="curve" smooth="yes"/>
      <point x="370" y="425"/>
      <point x="400" y="456"/>
      <point x="400" y="503" type="curve" smooth="yes"/>
      <point x="400" y="550"/>
      <point x="365" y="578"/>
    </contour>
    <contour>
      <point x="421" y="221" type="curve" smooth="yes"/>
      <point x="421" y="278"/>
      <point x="374" y="306"/>
      <point x="313" y="306" type="curve" smooth="yes"/>
      <point x="252" y="306"/>
      <point x="205" y="277"/>
      <point x="205" y="221" type="curve" smooth="yes"/>
      <point x="205" y="162"/>
      <point x="254" y="134"/>
      <point x="314" y="134" type="curve" smooth="yes"/>
      <point x="373" y="134"/>
      <point x="421" y="162"/>
    </contour>
  </outline>
</glyph>
<glyph name="nine" format="2">
  <advance width="623"/>
  <unicode hex="0039"/>
  <outline>
    <contour>
      <point x="304" y="570" type="curve" smooth="yes"/>
      <point x="240" y="570"/>
      <point x="201" y="533"/>
      <point x="201" y="477" type="curve" smooth="yes"/>
      <point x="201" y="421"/>
      <point x="238" y="381"/>
      <point x="303" y="381" type="curve" smooth="yes"/>
      <point x="368" y="381"/>
      <point x="401" y="428"/>
      <point x="401" y="473" type="curve" smooth="yes"/>
      <point x="401" y="530"/>
      <point x="361" y="570"/>
    </contour>
    <contour>
      <point x="198" y="199" type="line"/>
      <point x="209" y="159"/>
      <point x="252" y="139"/>
      <point x="299" y="139" type="curve" smooth="yes"/>
      <point x="385" y="139"/>
      <point x="427" y="221"/>
      <point x="430" y="309" type="curve"/>
      <point x="385" y="258"/>
      <point x="320" y="244"/>
      <point x="271" y="244" type="curve" smooth="yes"/>
      <point x="132" y="244"/>
      <point x="41" y="330"/>
      <point x="41" y="469" type="curve" smooth="yes"/>
      <point x="41" y="629"/>
      <point x="161" y="715"/>
      <point x="305" y="715" type="curve" smooth="yes"/>
      <point x="518" y="715"/>
      <point x="580" y="525"/>
      <point x="580" y="349" type="curve" smooth="yes"/>
      <point x="580" y="164"/>
      <point x="503" y="-7"/>
      <point x="298" y="-7" type="curve" smooth="yes"/>
      <point x="166" y="-7"/>
      <point x="59" y="57"/>
      <point x="43" y="199" type="curve"/>
    </contour>
  </outline>
</glyph>
<glyph name="colon" format="2">
  <advance width="300"/>
  <unicode hex="003A"/>
  <outline>
    <contour>
      <point x="150" y="528" type="curve" smooth="yes"/>
      <point x="206" y="528"/>
      <point x="246" y="490"/>
      <point x="246" y="430" type="curve" smooth="yes"/>
      <point x="246" y="366"/>
      <point x="206" y="334"/>
      <point x="150" y="334" type="curve" smooth="yes"/>
      <point x="95" y="334"/>
      <point x="54" y="366"/>
      <point x="54" y="430" type="curve" smooth="yes"/>
      <point x="54" y="490"/>
      <point x="97" y="528"/>
    </contour>
    <contour>
      <point x="150" y="184" type="curve" smooth="yes"/>
      <point x="206" y="184"/>
      <point x="246" y="147"/>
      <point x="246" y="87" type="curve" smooth="yes"/>
      <point x="246" y="23"/>
      <point x="206" y="-9"/>
      <point x="150" y="-9" type="curve" smooth="yes"/>
      <point x="95" y="-9"/>
      <point x="54" y="23"/>
      <point x="54" y="87" type="curve" smooth="yes"/>
      <point x="54" y="147"/>
      <point x="97" y="184"/>
    </contour>
  </outline>
</glyph>
<glyph name="semicolon" format="2">
  <advance width="321"/>
  <unicode hex="003B"/>
  <outline>
    <contour>
      <point x="148" y="-8" type="curve"/>
      <point x="101" y="-4"/>
      <point x="65" y="27"/>
      <point x="65" y="82" type="curve" smooth="yes"/>
      <point x="65" y="146"/>
      <point x="109" y="177"/>
      <point x="164" y="177" type="curve" smooth="yes"/>
      <point x="235" y="177"/>
      <point x="267" y="119"/>
      <point x="267" y="51" type="curve" smooth="yes"/>
      <point x="267" y="-53"/>
      <point x="186" y="-146"/>
      <point x="98" y="-175" type="curve"/>
      <point x="54" y="-109" type="line"/>
      <point x="91" y="-89"/>
      <point x="134" y="-46"/>
    </contour>
    <contour>
      <point x="165" y="528" type="curve" smooth="yes"/>
      <point x="220" y="528"/>
      <point x="260" y="490"/>
      <point x="260" y="430" type="curve" smooth="yes"/>
      <point x="260" y="366"/>
      <point x="220" y="334"/>
      <point x="165" y="334" type="curve" smooth="yes"/>
      <point x="109" y="334"/>
      <point x="68" y="366"/>
      <point x="68" y="430" type="curve" smooth="yes"/>
      <point x="68" y="490"/>
      <point x="110" y="528"/>
    </contour>
  </outline>
</glyph>
<glyph name="less" format="2">
  <advance width="499"/>
  <unicode hex="003C"/>
  <outline>
    <contour>
      <point x="443" y="491" type="line"/>
      <point x="221" y="363" type="line"/>
      <point x="443" y="232" type="line"/>
      <point x="443" y="71" type="line"/>
      <point x="26" y="318" type="line"/>
      <point x="26" y="398" type="line"/>
      <point x="443" y="648" type="line"/>
    </contour>
  </outline>
</glyph>
<glyph name="equal" format="2">
  <advance width="576"/>
  <unicode hex="003D"/>
  <outline>
    <contour>
      <point x="56" y="410" type="line"/>
      <point x="56" y="547" type="line"/>
      <point x="520" y="547" type="line"/>
      <point x="520" y="410" type="line"/>
    </contour>
    <contour>
      <point x="56" y="156" type="line"/>
      <point x="56" y="294" type="line"/>
      <point x="520" y="294" type="line"/>
      <point x="520" y="156" type="line"/>
    </contour>
  </outline>
</glyph>
<glyph name="greater" format="2">
  <advance width="498"/>
  <unicode hex="003E"/>
  <outline>
    <contour>
      <point x="56" y="230" type="line"/>
      <point x="277" y="359" type="line"/>
      <point x="56" y="489" type="line"/>
      <point x="56" y="649" type="line"/>
      <point x="472" y="403" type="line"/>
      <point x="472" y="323" type="line"/>
      <point x="56" y="72" type="line"/>
    </contour>
  </outline>
</glyph>
<glyph name="question" format="2">
  <advance width="540"/>
  <unicode hex="003F"/>
  <outline>
    <contour>
      <point x="260" y="181" type="curve" smooth="yes"/>
      <point x="315" y="181"/>
      <point x="356" y="149"/>
      <point x="356" y="86" type="curve" smooth="yes"/>
      <point x="356" y="22"/>
      <point x="315" y="-9"/>
      <point x="260" y="-9" type="curve" smooth="yes"/>
      <point x="204" y="-9"/>
      <point x="163" y="22"/>
      <point x="163" y="86" type="curve" smooth="yes"/>
      <point x="163" y="149"/>
      <point x="204" y="181"/>
    </contour>
    <contour>
      <point x="184" y="233" type="line"/>
      <point x="181" y="249"/>
      <point x="181" y="263"/>
      <point x="181" y="276" type="curve" smooth="yes"/>
      <point x="185" y="396"/>
      <point x="338" y="431"/>
      <point x="338" y="510" type="curve" smooth="yes"/>
      <point x="338" y="549"/>
      <point x="312" y="570"/>
      <point x="265" y="570" type="curve" smooth="yes"/>
      <point x="212" y="570"/>
      <point x="180" y="550"/>
      <point x="177" y="499" type="curve"/>
      <point x="24" y="499" type="line"/>
      <point x="24" y="638"/>
      <point x="111" y="717"/>
      <point x="268" y="717" type="curve" smooth="yes"/>
      <point x="385" y="717"/>
      <point x="500" y="666"/>
      <point x="498" y="525" type="curve" smooth="yes"/>
      <point x="497" y="469"/>
      <point x="475" y="428"/>
      <point x="398" y="353" type="curve" smooth="yes"/>
      <point x="362" y="317"/>
      <point x="329" y="286"/>
      <point x="330" y="233" type="curve"/>
    </contour>
  </outline>
</glyph>
<glyph name="at" format="2">
  <advance width="1005"/>
  <unicode hex="0040"/>
  <outline>
    <contour>
      <point x="402" y="280" type="curve"/>
      <point x="402" y="221"/>
      <point x="428" y="171"/>
      <point x="489" y="168" type="curve"/>
      <point x="566" y="168"/>
      <point x="588" y="246"/>
      <point x="588" y="299" type="curve" smooth="yes"/>
      <point x="588" y="347"/>
      <point x="564" y="397"/>
      <point x="508" y="397" type="curve" smooth="yes"/>
      <point x="439" y="397"/>
      <point x="405" y="342"/>
    </contour>
    <contour>
      <point x="480" y="-162" type="curve"/>
      <point x="231" y="-159"/>
      <point x="57" y="-2"/>
      <point x="57" y="261" type="curve" smooth="yes"/>
      <point x="57" y="571"/>
      <point x="273" y="726"/>
      <point x="527" y="726" type="curve" smooth="yes"/>
      <point x="776" y="726"/>
      <point x="949" y="576"/>
      <point x="949" y="315" type="curve" smooth="yes"/>
      <point x="949" y="176"/>
      <point x="889" y="47"/>
      <point x="753" y="44" type="curve"/>
      <point x="707" y="44"/>
      <point x="646" y="57"/>
      <point x="619" y="127" type="curve"/>
      <point x="584" y="73"/>
      <point x="520" y="49"/>
      <point x="468" y="49" type="curve" smooth="yes"/>
      <point x="346" y="49"/>
      <point x="279" y="146"/>
      <point x="279" y="270" type="curve"/>
      <point x="282" y="416"/>
      <point x="375" y="516"/>
      <point x="499" y="516" type="curve" smooth="yes"/>
      <point x="546" y="516"/>
      <point x="606" y="499"/>
      <point x="628" y="447" type="curve"/>
      <point x="648" y="494" type="line"/>
      <point x="736" y="483" type="line"/>
      <point x="717" y="387"/>
      <point x="701" y="300"/>
      <point x="701" y="235" type="curve" smooth="yes"/>
      <point x="701" y="202"/>
      <point x="709" y="168"/>
      <point x="751" y="165" type="curve"/>
      <point x="811" y="165"/>
      <point x="822" y="254"/>
      <point x="822" y="312" type="curve" smooth="yes"/>
      <point x="822" y="490"/>
      <point x="716" y="600"/>
      <point x="527" y="600" type="curve" smooth="yes"/>
      <point x="312" y="600"/>
      <point x="194" y="459"/>
      <point x="191" y="273" type="curve"/>
      <point x="191" y="98"/>
      <point x="293" y="-31"/>
      <point x="485" y="-31" type="curve" smooth="yes"/>
      <point x="540" y="-31"/>
      <point x="571" y="-26"/>
      <point x="611" y="-15" type="curve"/>
      <point x="629" y="-143" type="line"/>
      <point x="581" y="-156"/>
      <point x="531" y="-162"/>
    </contour>
  </outline>
</glyph>
<glyph name="B" format="2">
  <advance width="692"/>
  <unicode hex="0042"/>
  <outline>
    <contour>
      <point x="73" y="0" type="line"/>
      <point x="73" y="708" type="line"/>
      <point x="406" y="708" type="line" smooth="yes"/>
      <point x="521" y="708"/>
      <point x="624" y="661"/>
      <point x="624" y="525" type="curve" smooth="yes"/>
      <point x="624" y="466"/>
      <point x="602" y="416"/>
      <point x="551" y="385" type="curve"/>
      <point x="620" y="358"/>
      <point x="656" y="298"/>
      <point x="656" y="217" type="curve" smooth="yes"/>
      <point x="656" y="42"/>
      <point x="496" y="0"/>
      <point x="358" y="0" type="curve" smooth="yes"/>
    </contour>
    <contour>
      <point x="351" y="427" type="line" smooth="yes"/>
      <point x="418" y="427"/>
      <point x="464" y="445"/>
      <point x="464" y="498" type="curve" smooth="yes"/>
      <point x="464" y="552"/>
      <point x="416" y="560"/>
      <point x="366" y="560" type="curve" smooth="yes"/>
      <point x="236" y="560" type="line"/>
      <point x="236" y="427" type="line"/>
    </contour>
    <contour>
      <point x="236" y="147" type="line"/>
      <point x="359" y="147" type="line" smooth="yes"/>
      <point x="434" y="147"/>
      <point x="493" y="158"/>
      <point x="493" y="225" type="curve" smooth="yes"/>
      <point x="493" y="285"/>
      <point x="438" y="292"/>
      <point x="377" y="292" type="curve" smooth="yes"/>
      <point x="236" y="292" type="line"/>
    </contour>
  </outline>
</glyph>
<glyph name="D" format="2">
  <advance width="738"/>
  <unicode hex="0044"/>
  <outline>
    <contour>
      <point x="74" y="0" type="line"/>
      <point x="74" y="708" type="line"/>
      <point x="343" y="708" type="line" smooth="yes"/>
      <point x="564" y="708"/>
      <point x="702" y="586"/>
      <point x="702" y="354" type="curve" smooth="yes"/>
      <point x="702" y="121"/>
      <point x="576" y="0"/>
      <point x="347" y="0" type="curve" smooth="yes"/>
    </contour>
    <contour>
      <point x="349" y="147" type="line" smooth="yes"/>
      <point x="485" y="147"/>
      <point x="536" y="228"/>
      <point x="536" y="353" type="curve" smooth="yes"/>
      <point x="536" y="489"/>
      <point x="474" y="559"/>
      <point x="341" y="559" type="curve" smooth="yes"/>
      <point x="237" y="559" type="line"/>
      <point x="237" y="147" type="line"/>
    </contour>
  </outline>
</glyph>
<glyph name="E" format="2">
  <advance width="629"/>
  <unicode hex="0045"/>
  <outline>
    <contour>
      <point x="594" y="708" type="line"/>
      <point x="594" y="559" type="line"/>
      <point x="237" y="559" type="line"/>
      <point x="237" y="423" type="line"/>
      <point x="540" y="423" type="line"/>
      <point x="540" y="278" type="line"/>
      <point x="237" y="278" type="line"/>
      <point x="237" y="147" type="line"/>
      <point x="594" y="147" type="line"/>
      <point x="594" y="0" type="line"/>
      <point x="74" y="0" type="line"/>
      <point x="74" y="708" type="line"/>
    </contour>
  </outline>
</glyph>
<glyph name="F" format="2">
  <advance width="606"/>
  <unicode hex="0046"/>
  <outline>
    <contour>
      <point x="582" y="708" type="line"/>
      <point x="582" y="559" type="line"/>
      <point x="237" y="559" type="line"/>
      <point x="237" y="403" type="line"/>
      <point x="524" y="403" type="line"/>
      <point x="524" y="257" type="line"/>
      <point x="237" y="257" type="line"/>
      <point x="237" y="0" type="line"/>
      <point x="74" y="0" type="line"/>
      <point x="74" y="708" type="line"/>
    </contour>
  </outline>
</glyph>
<glyph name="H" format="2">
  <advance width="759"/>
  <unicode hex="0048"/>
  <outline>
    <contour>
      <point x="237" y="423" type="line"/>
      <point x="522" y="423" type="line"/>
      <point x="522" y="708" type="line"/>
      <point x="685" y="708" type="line"/>
      <point x="685" y="0" type="line"/>
      <point x="522" y="0" type="line"/>
      <point x="522" y="276" type="line"/>
      <point x="237" y="276" type="line"/>
      <point x="237" y="0" type="line"/>
      <point x="74" y="0" type="line"/>
      <point x="74" y="708" type="line"/>
      <point x="237" y="708" type="line"/>
    </contour>
  </outline>
</glyph>
<glyph name="J" format="2">
  <advance width="602"/>
  <unicode hex="004A"/>
  <outline>
    <contour>
      <point x="533" y="254" type="line" smooth="yes"/>
      <point x="533" y="85"/>
      <point x="456" y="-7"/>
      <point x="289" y="-7" type="curve" smooth="yes"/>
      <point x="122" y="-7"/>
      <point x="29" y="87"/>
      <point x="29" y="244" type="curve" smooth="yes"/>
      <point x="29" y="253" type="line"/>
      <point x="192" y="253" type="line"/>
      <point x="192" y="200"/>
      <point x="211" y="141"/>
      <point x="284" y="141" type="curve" smooth="yes"/>
      <point x="345" y="141"/>
      <point x="370" y="187"/>
      <point x="370" y="240" type="curve" smooth="yes"/>
      <point x="370" y="708" type="line"/>
      <point x="533" y="708" type="line"/>
    </contour>
  </outline>
</glyph>
<glyph name="K" format="2">
  <advance width="691"/>
  <unicode hex="004B"/>
  <outline>
    <contour>
      <point x="237" y="278" type="line"/>
      <point x="237" y="0" type="line"/>
      <point x="74" y="0" type="line"/>
      <point x="74" y="708" type="line"/>
      <point x="237" y="708" type="line"/>
      <point x="237" y="426" type="line"/>
      <point x="323" y="426" type="line"/>
      <point x="502" y="708" type="line"/>
      <point x="689" y="708" type="line"/>
      <point x="459" y="370" type="line"/>
      <point x="690" y="0" type="line"/>
      <point x="500" y="0" type="line"/>
      <point x="332" y="278" type="line"/>
    </contour>
  </outline>
</glyph>
<glyph name="L" format="2">
  <advance width="607"/>
  <unicode hex="004C"/>
  <outline>
    <contour>
      <point x="237" y="147" type="line"/>
      <point x="580" y="147" type="line"/>
      <point x="580" y="0" type="line"/>
      <point x="74" y="0" type="line"/>
      <point x="74" y="708" type="line"/>
      <point x="237" y="708" type="line"/>
    </contour>
  </outline>
</glyph>
<glyph name="M" format="2">
  <advance width="914"/>
  <unicode hex="004D"/>
  <outline>
    <contour>
      <point x="268" y="708" type="line"/>
      <point x="461" y="386" type="line"/>
      <point x="652" y="708" type="line"/>
      <point x="840" y="708" type="line"/>
      <point x="840" y="0" type="line"/>
      <point x="677" y="0" type="line"/>
      <point x="677" y="469" type="line"/>
      <point x="492" y="161" type="line"/>
      <point x="424" y="161" type="line"/>
      <point x="237" y="469" type="line"/>
      <point x="237" y="0" type="line"/>
      <point x="74" y="0" type="line"/>
      <point x="74" y="708" type="line"/>
    </contour>
  </outline>
</glyph>
<glyph name="Q" format="2">
  <advance width="783"/>
  <unicode hex="0051"/>
  <outline>
    <contour>
      <point x="202" y="356" type="curve" smooth="yes"/>
      <point x="202" y="248"/>
      <point x="259" y="143"/>
      <point x="393" y="143" type="curve" smooth="yes"/>
      <point x="521" y="143"/>
      <point x="581" y="248"/>
      <point x="581" y="355" type="curve" smooth="yes"/>
      <point x="581" y="462"/>
      <point x="524" y="567"/>
      <point x="392" y="567" type="curve" smooth="yes"/>
      <point x="260" y="567"/>
      <point x="202" y="460"/>
    </contour>
    <contour>
      <point x="619" y="-111" type="line"/>
      <point x="586" y="-68"/>
      <point x="554" y="-28"/>
      <point x="519" y="15" type="curve"/>
      <point x="480" y="0"/>
      <point x="434" y="-7"/>
      <point x="391" y="-7" type="curve" smooth="yes"/>
      <point x="170" y="-7"/>
      <point x="35" y="141"/>
      <point x="35" y="354" type="curve" smooth="yes"/>
      <point x="35" y="570"/>
      <point x="175" y="717"/>
      <point x="393" y="717" type="curve" smooth="yes"/>
      <point x="609" y="717"/>
      <point x="748" y="575"/>
      <point x="748" y="358" type="curve" smooth="yes"/>
      <point x="748" y="250"/>
      <point x="713" y="166"/>
      <point x="652" y="102" type="curve"/>
      <point x="683" y="63"/>
      <point x="713" y="24"/>
      <point x="744" y="-15" type="curve"/>
    </contour>
  </outline>
</glyph>
<glyph name="S" format="2">
  <advance width="665"/>
  <unicode hex="0053"/>
  <outline>
    <contour>
      <point x="445" y="492" type="line"/>
      <point x="437" y="543"/>
      <point x="393" y="570"/>
      <point x="325" y="570" type="curve" smooth="yes"/>
      <point x="277" y="570"/>
      <point x="227" y="552"/>
      <point x="227" y="508" type="curve" smooth="yes"/>
      <point x="227" y="463"/>
      <point x="269" y="453"/>
      <point x="338" y="434" type="curve" smooth="yes"/>
      <point x="478" y="396"/>
      <point x="615" y="392"/>
      <point x="620" y="216" type="curve"/>
      <point x="620" y="59"/>
      <point x="494" y="-8"/>
      <point x="346" y="-8" type="curve" smooth="yes"/>
      <point x="199" y="-8"/>
      <point x="57" y="56"/>
      <point x="44" y="229" type="curve"/>
      <point x="209" y="229" type="line"/>
      <point x="225" y="163"/>
      <point x="287" y="142"/>
      <point x="357" y="142" type="curve" smooth="yes"/>
      <point x="401" y="142"/>
      <point x="456" y="157"/>
      <point x="456" y="206" type="curve" smooth="yes"/>
      <point x="456" y="241"/>
      <point x="428" y="257"/>
      <point x="391" y="266" type="curve"/>
      <point x="211" y="306"/>
      <point x="65" y="331"/>
      <point x="65" y="501" type="curve" smooth="yes"/>
      <point x="65" y="673"/>
      <point x="216" y="717"/>
      <point x="345" y="717" type="curve" smooth="yes"/>
      <point x="485" y="717"/>
      <point x="588" y="641"/>
      <point x="604" y="492" type="curve"/>
    </contour>
  </outline>
</glyph>
<glyph name="T" format="2">
  <advance width="605"/>
  <unicode hex="0054"/>
  <outline>
    <contour>
      <point x="5" y="559" type="line"/>
      <point x="5" y="708" type="line"/>
      <point x="600" y="708" type="line"/>
      <point x="600" y="559" type="line"/>
      <point x="384" y="559" type="line"/>
      <point x="384" y="0" type="line"/>
      <point x="221" y="0" type="line"/>
      <point x="221" y="559" type="line"/>
    </contour>
  </outline>
</glyph>
<glyph name="U" format="2">
  <advance width="755"/>
  <unicode hex="0055"/>
  <outline>
    <contour>
      <point x="377" y="-8" type="curve" smooth="yes"/>
      <point x="160" y="-8"/>
      <point x="69" y="115"/>
      <point x="69" y="327" type="curve" smooth="yes"/>
      <point x="69" y="708" type="line"/>
      <point x="232" y="708" type="line"/>
      <point x="232" y="315" type="line" smooth="yes"/>
      <point x="232" y="224"/>
      <point x="266" y="141"/>
      <point x="379" y="141" type="curve" smooth="yes"/>
      <point x="495" y="141"/>
      <point x="523" y="227"/>
      <point x="523" y="315" type="curve" smooth="yes"/>
      <point x="523" y="708" type="line"/>
      <point x="686" y="708" type="line"/>
      <point x="686" y="327" type="line" smooth="yes"/>
      <point x="686" y="115"/>
      <point x="596" y="-8"/>
    </contour>
  </outline>
</glyph>
<glyph name="V" format="2">
  <advance width="717"/>
  <unicode hex="0056"/>
  <outline>
    <contour>
      <point x="539" y="708" type="line"/>
      <point x="716" y="708" type="line"/>
      <point x="440" y="0" type="line"/>
      <point x="276" y="0" type="line"/>
      <point x="1" y="708" type="line"/>
      <point x="180" y="708" type="line"/>
      <point x="362" y="204" type="line"/>
    </contour>
  </outline>
</glyph>
<glyph name="W" format="2">
  <advance width="995"/>
  <unicode hex="0057"/>
  <outline>
    <contour>
      <point x="389" y="0" type="line"/>
      <point x="176" y="0" type="line"/>
      <point x="0" y="708" type="line"/>
      <point x="184" y="708" type="line"/>
      <point x="284" y="206" type="line"/>
      <point x="395" y="708" type="line"/>
      <point x="603" y="708" type="line"/>
      <point x="712" y="206" type="line"/>
      <point x="812" y="708" type="line"/>
      <point x="995" y="708" type="line"/>
      <point x="819" y="0" type="line"/>
      <point x="604" y="0" type="line"/>
      <point x="497" y="492" type="line"/>
    </contour>
  </outline>
</glyph>
<glyph name="X" format="2">
  <advance width="693"/>
  <unicode hex="0058"/>
  <outline>
    <contour>
      <point x="496" y="708" type="line"/>
      <point x="686" y="708" type="line"/>
      <point x="447" y="354" type="line"/>
      <point x="692" y="0" type="line"/>
      <point x="499" y="0" type="line"/>
      <point x="345" y="234" type="line"/>
      <point x="185" y="0" type="line"/>
      <point x="1" y="0" type="line"/>
      <point x="249" y="355" type="line"/>
      <point x="9" y="708" type="line"/>
      <point x="202" y="708" type="line"/>
      <point x="350" y="473" type="line"/>
    </contour>
  </outline>
</glyph>
<glyph name="Y" format="2">
  <advance width="704"/>
  <unicode hex="0059"/>
  <outline>
    <contour>
      <point x="355" y="414" type="line"/>
      <point x="519" y="708" type="line"/>
      <point x="703" y="708" type="line"/>
      <point x="435" y="264" type="line"/>
      <point x="434" y="264" type="line"/>
      <point x="435" y="264" type="line"/>
      <point x="435" y="0" type="line"/>
      <point x="272" y="0" type="line"/>
      <point x="272" y="263" type="line"/>
      <point x="1" y="708" type="line"/>
      <point x="189" y="708" type="line"/>
    </contour>
  </outline>
</glyph>
<glyph name="Z" format="2">
  <advance width="635"/>
  <unicode hex="005A"/>
  <outline>
    <contour>
      <point x="39" y="559" type="line"/>
      <point x="39" y="708" type="line"/>
      <point x="604" y="708" type="line"/>
      <point x="604" y="580" type="line"/>
      <point x="241" y="147" type="line"/>
      <point x="597" y="147" type="line"/>
      <point x="597" y="0" type="line"/>
      <point x="31" y="0" type="line"/>
      <point x="31" y="128" type="line"/>
      <point x="394" y="559" type="line"/>
    </contour>
  </outline>
</glyph>
<glyph name="bracketleft" format="2">
  <advance width="369"/>
  <unicode hex="005B"/>
  <outline>
    <contour>
      <point x="74" y="781" type="line"/>
      <point x="347" y="781" type="line"/>
      <point x="347" y="645" type="line"/>
      <point x="227" y="645" type="line"/>
      <point x="227" y="-30" type="line"/>
      <point x="347" y="-30" type="line"/>
      <point x="347" y="-166" type="line"/>
      <point x="74" y="-166" type="line"/>
    </contour>
  </outline>
</glyph>
<glyph name="backslash" format="2">
  <advance width="520"/>
  <unicode hex="005C"/>
  <outline>
    <contour>
      <point x="339" y="-166" type="line"/>
      <point x="26" y="781" type="line"/>
      <point x="180" y="781" type="line"/>
      <point x="494" y="-166" type="line"/>
    </contour>
  </outline>
</glyph>
<glyph name="bracketright" format="2">
  <advance width="368"/>
  <unicode hex="005D"/>
  <outline>
    <contour>
      <point x="294" y="-166" type="line"/>
      <point x="22" y="-166" type="line"/>
      <point x="22" y="-30" type="line"/>
      <point x="141" y="-30" type="line"/>
      <point x="141" y="645" type="line"/>
      <point x="22" y="645" type="line"/>
      <point x="22" y="781" type="line"/>
      <point x="294" y="781" type="line"/>
    </contour>
  </outline>
</glyph>
<glyph name="asciicircum" format="2">
  <advance width="560"/>
  <unicode hex="005E"/>
  <outline>
    <contour>
      <point x="363" y="444" type="line"/>
      <point x="279" y="585" type="line"/>
      <point x="193" y="444" type="line"/>
      <point x="46" y="444" type="line"/>
      <point x="222" y="709" type="line"/>
      <point x="332" y="709" type="line"/>
      <point x="514" y="444" type="line"/>
    </contour>
  </outline>
</glyph>
<glyph name="underscore" format="2">
  <advance width="432"/>
  <unicode hex="005F"/>
  <outline>
    <contour>
      <point x="-16" y="-153" type="line"/>
      <point x="-16" y="-17" type="line"/>
      <point x="448" y="-17" type="line"/>
      <point x="448" y="-153" type="line"/>
    </contour>
  </outline>
</glyph>
<glyph name="grave" format="2">
  <advance width="421"/>
  <unicode hex="0060"/>
  <outline>
    <contour>
      <point x="199" y="584" type="line"/>
      <point x="46" y="769" type="line"/>
      <point x="209" y="769" type="line"/>
      <point x="329" y="584" type="line"/>
    </contour>
  </outline>
</glyph>
<glyph name="b" format="2">
  <advance width="642"/>
  <unicode hex="0062"/>
  <outline>
    <contour>
      <point x="212" y="467" type="line"/>
      <point x="255" y="514"/>
      <point x="316" y="538"/>
      <point x="381" y="538" type="curve" smooth="yes"/>
      <point x="524" y="538"/>
      <point x="608" y="430"/>
      <point x="608" y="268" type="curve" smooth="yes"/>
      <point x="608" y="104"/>
      <point x="527" y="-8"/>
      <point x="379" y="-8" type="curve" smooth="yes"/>
      <point x="306" y="-8"/>
      <point x="255" y="15"/>
      <point x="211" y="62" type="curve"/>
      <point x="212" y="0" type="line"/>
      <point x="55" y="0" type="line"/>
      <point x="55" y="708" type="line"/>
      <point x="212" y="708" type="line"/>
    </contour>
    <contour>
      <point x="332" y="394" type="curve" smooth="yes"/>
      <point x="255" y="394"/>
      <point x="212" y="332"/>
      <point x="212" y="267" type="curve" smooth="yes"/>
      <point x="212" y="194"/>
      <point x="254" y="137"/>
      <point x="335" y="134" type="curve"/>
      <point x="420" y="134"/>
      <point x="450" y="196"/>
      <point x="450" y="266" type="curve" smooth="yes"/>
      <point x="450" y="331"/>
      <point x="415" y="394"/>
    </contour>
  </outline>
</glyph>
<glyph name="d" format="2">
  <advance width="642"/>
  <unicode hex="0064"/>
  <outline>
    <contour>
      <point x="438" y="0" type="line"/>
      <point x="434" y="57" type="line"/>
      <point x="393" y="12"/>
      <point x="348" y="-5"/>
      <point x="273" y="-8" type="curve"/>
      <point x="118" y="-8"/>
      <point x="34" y="109"/>
      <point x="34" y="262" type="curve" smooth="yes"/>
      <point x="34" y="422"/>
      <point x="128" y="538"/>
      <point x="284" y="538" type="curve" smooth="yes"/>
      <point x="343" y="538"/>
      <point x="393" y="522"/>
      <point x="430" y="489" type="curve"/>
      <point x="430" y="708" type="line"/>
      <point x="588" y="708" type="line"/>
      <point x="588" y="0" type="line"/>
    </contour>
    <contour>
      <point x="311" y="133" type="curve"/>
      <point x="392" y="136"/>
      <point x="430" y="194"/>
      <point x="430" y="264" type="curve" smooth="yes"/>
      <point x="430" y="333"/>
      <point x="393" y="392"/>
      <point x="311" y="392" type="curve" smooth="yes"/>
      <point x="226" y="392"/>
      <point x="192" y="329"/>
      <point x="192" y="262" type="curve" smooth="yes"/>
      <point x="192" y="193"/>
      <point x="228" y="133"/>
    </contour>
  </outline>
</glyph>
<glyph name="f" format="2">
  <advance width="390"/>
  <unicode hex="0066"/>
  <outline>
    <contour>
      <point x="381" y="527" type="line"/>
      <point x="381" y="386" type="line"/>
      <point x="256" y="386" type="line"/>
      <point x="256" y="0" type="line"/>
      <point x="98" y="0" type="line"/>
      <point x="98" y="386" type="line"/>
      <point x="19" y="386" type="line"/>
      <point x="19" y="527" type="line"/>
      <point x="98" y="527" type="line"/>
      <point x="98" y="582" type="line" smooth="yes"/>
      <point x="98" y="705"/>
      <point x="158" y="756"/>
      <point x="286" y="756" type="curve" smooth="yes"/>
      <point x="381" y="756" type="line"/>
      <point x="381" y="616" type="line"/>
      <point x="308" y="616" type="line" smooth="yes"/>
      <point x="273" y="616"/>
      <point x="256" y="599"/>
      <point x="256" y="565" type="curve" smooth="yes"/>
      <point x="256" y="527" type="line"/>
    </contour>
  </outline>
</glyph>
<glyph name="h" format="2">
  <advance width="618"/>
  <unicode hex="0068"/>
  <outline>
    <contour>
      <point x="212" y="474" type="line"/>
      <point x="261" y="526"/>
      <point x="322" y="538"/>
      <point x="366" y="538" type="curve" smooth="yes"/>
      <point x="510" y="538"/>
      <point x="567" y="432"/>
      <point x="567" y="290" type="curve" smooth="yes"/>
      <point x="567" y="0" type="line"/>
      <point x="409" y="0" type="line"/>
      <point x="409" y="277" type="line" smooth="yes"/>
      <point x="409" y="326"/>
      <point x="388" y="394"/>
      <point x="311" y="394" type="curve" smooth="yes"/>
      <point x="234" y="394"/>
      <point x="212" y="327"/>
      <point x="212" y="271" type="curve" smooth="yes"/>
      <point x="212" y="0" type="line"/>
      <point x="55" y="0" type="line"/>
      <point x="55" y="708" type="line"/>
      <point x="212" y="708" type="line"/>
    </contour>
  </outline>
</glyph>
<glyph name="i" format="2">
  <advance width="287"/>
  <unicode hex="0069"/>
  <outline>
    <contour>
      <point x="222" y="0" type="line"/>
      <point x="65" y="0" type="line"/>
      <point x="65" y="527" type="line"/>
      <point x="222" y="527" type="line"/>
    </contour>
    <contour>
      <point x="143" y="774" type="curve" smooth="yes"/>
      <point x="199" y="774"/>
      <point x="240" y="739"/>
      <point x="240" y="680" type="curve" smooth="yes"/>
      <point x="240" y="619"/>
      <point x="199" y="585"/>
      <point x="143" y="585" type="curve" smooth="yes"/>
      <point x="90" y="585"/>
      <point x="46" y="617"/>
      <point x="46" y="680" type="curve" smooth="yes"/>
      <point x="46" y="739"/>
      <point x="91" y="774"/>
    </contour>
  </outline>
</glyph>
<glyph name="j" format="2">
  <advance width="287"/>
  <unicode hex="006A"/>
  <outline>
    <contour>
      <point x="63" y="527" type="line"/>
      <point x="220" y="527" type="line"/>
      <point x="220" y="-51" type="line" smooth="yes"/>
      <point x="220" y="-172"/>
      <point x="168" y="-231"/>
      <point x="41" y="-231" type="curve" smooth="yes"/>
      <point x="-44" y="-231" type="line"/>
      <point x="-44" y="-90" type="line"/>
      <point x="1" y="-90" type="line" smooth="yes"/>
      <point x="50" y="-90"/>
      <point x="63" y="-58"/>
      <point x="63" y="-28" type="curve" smooth="yes"/>
    </contour>
    <contour>
      <point x="143" y="775" type="curve" smooth="yes"/>
      <point x="198" y="775"/>
      <point x="240" y="740"/>
      <point x="240" y="680" type="curve" smooth="yes"/>
      <point x="240" y="616"/>
      <point x="198" y="584"/>
      <point x="143" y="584" type="curve" smooth="yes"/>
      <point x="88" y="584"/>
      <point x="45" y="617"/>
      <point x="45" y="680" type="curve" smooth="yes"/>
      <point x="45" y="740"/>
      <point x="90" y="775"/>
    </contour>
  </outline>
</glyph>
<glyph name="l" format="2">
  <advance width="267"/>
  <unicode hex="006C"/>
  <outline>
    <contour>
      <point x="212" y="0" type="line"/>
      <point x="55" y="0" type="line"/>
      <point x="55" y="708" type="line"/>
      <point x="212" y="708" type="line"/>
    </contour>
  </outline>
</glyph>
<glyph name="m" format="2">
  <advance width="876"/>
  <unicode hex="006D"/>
  <outline>
    <contour>
      <point x="210" y="465" type="line"/>
      <point x="253" y="521"/>
      <point x="306" y="537"/>
      <point x="355" y="537" type="curve" smooth="yes"/>
      <point x="416" y="537"/>
      <point x="462" y="516"/>
      <point x="493" y="460" type="curve"/>
      <point x="540" y="517"/>
      <point x="595" y="537"/>
      <point x="655" y="537" type="curve" smooth="yes"/>
      <point x="778" y="537"/>
      <point x="826" y="453"/>
      <point x="826" y="331" type="curve" smooth="yes"/>
      <point x="826" y="0" type="line"/>
      <point x="669" y="0" type="line"/>
      <point x="669" y="300" type="line" smooth="yes"/>
      <point x="669" y="334"/>
      <point x="662" y="394"/>
      <point x="597" y="394" type="curve" smooth="yes"/>
      <point x="558" y="394"/>
      <point x="534" y="369"/>
      <point x="526" y="338" type="curve" smooth="yes"/>
      <point x="518" y="307"/>
      <point x="520" y="273"/>
      <point x="520" y="254" type="curve" smooth="yes"/>
      <point x="520" y="0" type="line"/>
      <point x="363" y="0" type="line"/>
      <point x="363" y="300" type="line" smooth="yes"/>
      <point x="363" y="327"/>
      <point x="360" y="394"/>
      <point x="293" y="394" type="curve" smooth="yes"/>
      <point x="219" y="394"/>
      <point x="212" y="329"/>
      <point x="212" y="278" type="curve" smooth="yes"/>
      <point x="212" y="0" type="line"/>
      <point x="55" y="0" type="line"/>
      <point x="55" y="527" type="line"/>
      <point x="198" y="527" type="line"/>
    </contour>
  </outline>
</glyph>
<glyph name="n" format="2">
  <advance width="618"/>
  <unicode hex="006E"/>
  <outline>
    <contour>
      <point x="210" y="469" type="line"/>
      <point x="257" y="520"/>
      <point x="314" y="537"/>
      <point x="365" y="538" type="curve"/>
      <point x="432" y="538"/>
      <point x="481" y="515"/>
      <point x="516" y="476" type="curve"/>
      <point x="555" y="429"/>
      <point x="567" y="366"/>
      <point x="567" y="290" type="curve" smooth="yes"/>
      <point x="567" y="0" type="line"/>
      <point x="409" y="0" type="line"/>
      <point x="409" y="277" type="line" smooth="yes"/>
      <point x="409" y="336"/>
      <point x="390" y="394"/>
      <point x="313" y="394" type="curve" smooth="yes"/>
      <point x="233" y="394"/>
      <point x="212" y="322"/>
      <point x="212" y="266" type="curve" smooth="yes"/>
      <point x="212" y="0" type="line"/>
      <point x="55" y="0" type="line"/>
      <point x="55" y="527" type="line"/>
      <point x="202" y="527" type="line"/>
    </contour>
  </outline>
</glyph>
<glyph name="p" format="2">
  <advance width="642"/>
  <unicode hex="0070"/>
  <outline>
    <contour>
      <point x="211" y="465" type="line"/>
      <point x="254" y="517"/>
      <point x="312" y="538"/>
      <point x="375" y="538" type="curve" smooth="yes"/>
      <point x="519" y="538"/>
      <point x="608" y="429"/>
      <point x="608" y="269" type="curve" smooth="yes"/>
      <point x="608" y="106"/>
      <point x="523" y="-8"/>
      <point x="377" y="-8" type="curve" smooth="yes"/>
      <point x="307" y="-8"/>
      <point x="252" y="12"/>
      <point x="212" y="52" type="curve"/>
      <point x="212" y="-210" type="line"/>
      <point x="55" y="-210" type="line"/>
      <point x="55" y="527" type="line"/>
      <point x="202" y="527" type="line"/>
    </contour>
    <contour>
      <point x="332" y="394" type="curve" smooth="yes"/>
      <point x="256" y="394"/>
      <point x="212" y="333"/>
      <point x="212" y="267" type="curve" smooth="yes"/>
      <point x="212" y="194"/>
      <point x="254" y="137"/>
      <point x="335" y="134" type="curve"/>
      <point x="420" y="134"/>
      <point x="450" y="196"/>
      <point x="450" y="266" type="curve" smooth="yes"/>
      <point x="450" y="331"/>
      <point x="415" y="394"/>
    </contour>
  </outline>
</glyph>
<glyph name="q" format="2">
  <advance width="643"/>
  <unicode hex="0071"/>
  <outline>
    <contour>
      <point x="431" y="43" type="line"/>
      <point x="392" y="4"/>
      <point x="335" y="-9"/>
      <point x="280" y="-9" type="curve" smooth="yes"/>
      <point x="115" y="-9"/>
      <point x="34" y="113"/>
      <point x="34" y="263" type="curve" smooth="yes"/>
      <point x="34" y="423"/>
      <point x="133" y="538"/>
      <point x="289" y="538" type="curve" smooth="yes"/>
      <point x="349" y="538"/>
      <point x="401" y="519"/>
      <point x="436" y="475" type="curve"/>
      <point x="447" y="527" type="line"/>
      <point x="589" y="527" type="line"/>
      <point x="589" y="-210" type="line"/>
      <point x="431" y="-210" type="line"/>
    </contour>
    <contour>
      <point x="312" y="133" type="curve" smooth="yes"/>
      <point x="390" y="133"/>
      <point x="430" y="194"/>
      <point x="430" y="264" type="curve" smooth="yes"/>
      <point x="430" y="336"/>
      <point x="391" y="392"/>
      <point x="312" y="392" type="curve" smooth="yes"/>
      <point x="230" y="392"/>
      <point x="192" y="332"/>
      <point x="192" y="265" type="curve" smooth="yes"/>
      <point x="192" y="195"/>
      <point x="231" y="133"/>
    </contour>
  </outline>
</glyph>
<glyph name="r" format="2">
  <advance width="404"/>
  <unicode hex="0072"/>
  <outline>
    <contour>
      <point x="206" y="469" type="line"/>
      <point x="247" y="524"/>
      <point x="298" y="537"/>
      <point x="355" y="537" type="curve" smooth="yes"/>
      <point x="372" y="537"/>
      <point x="391" y="537"/>
      <point x="400" y="534" type="curve"/>
      <point x="400" y="383" type="line"/>
      <point x="363" y="383"/>
      <point x="300" y="387"/>
      <point x="265" y="366" type="curve" smooth="yes"/>
      <point x="225" y="341"/>
      <point x="212" y="299"/>
      <point x="212" y="238" type="curve" smooth="yes"/>
      <point x="212" y="0" type="line"/>
      <point x="55" y="0" type="line"/>
      <point x="55" y="527" type="line"/>
      <point x="196" y="527" type="line"/>
    </contour>
  </outline>
</glyph>
<glyph name="t" format="2">
  <advance width="381"/>
  <unicode hex="0074"/>
  <outline>
    <contour>
      <point x="251" y="386" type="line"/>
      <point x="251" y="199" type="line" smooth="yes"/>
      <point x="251" y="164"/>
      <point x="264" y="140"/>
      <point x="308" y="140" type="curve" smooth="yes"/>
      <point x="358" y="140" type="line"/>
      <point x="358" y="0" type="line"/>
      <point x="301" y="0" type="line"/>
      <point x="160" y="-3"/>
      <point x="94" y="44"/>
      <point x="94" y="176" type="curve" smooth="yes"/>
      <point x="94" y="386" type="line"/>
      <point x="16" y="386" type="line"/>
      <point x="16" y="527" type="line"/>
      <point x="94" y="527" type="line"/>
      <point x="94" y="664" type="line"/>
      <point x="251" y="664" type="line"/>
      <point x="251" y="527" type="line"/>
      <point x="365" y="527" type="line"/>
      <point x="365" y="386" type="line"/>
    </contour>
  </outline>
</glyph>
<glyph name="u" format="2">
  <advance width="597"/>
  <unicode hex="0075"/>
  <outline>
    <contour>
      <point x="299" y="134" type="curve"/>
      <point x="372" y="134"/>
      <point x="387" y="187"/>
      <point x="387" y="245" type="curve" smooth="yes"/>
      <point x="387" y="527" type="line"/>
      <point x="544" y="527" type="line"/>
      <point x="544" y="236" type="line" smooth="yes"/>
      <point x="544" y="55"/>
      <point x="439" y="-8"/>
      <point x="298" y="-8" type="curve" smooth="yes"/>
      <point x="144" y="-8"/>
      <point x="53" y="66"/>
      <point x="53" y="236" type="curve" smooth="yes"/>
      <point x="53" y="527" type="line"/>
      <point x="210" y="527" type="line"/>
      <point x="210" y="245" type="line" smooth="yes"/>
      <point x="210" y="181"/>
      <point x="234" y="135"/>
    </contour>
  </outline>
</glyph>
<glyph name="v" format="2">
  <advance width="575"/>
  <unicode hex="0076"/>
  <outline>
    <contour>
      <point x="401" y="527" type="line"/>
      <point x="574" y="527" type="line"/>
      <point x="380" y="0" type="line"/>
      <point x="195" y="0" type="line"/>
      <point x="1" y="527" type="line"/>
      <point x="175" y="527" type="line"/>
      <point x="288" y="174" type="line"/>
    </contour>
  </outline>
</glyph>
<glyph name="w" format="2">
  <advance width="873"/>
  <unicode hex="0077"/>
  <outline>
    <contour>
      <point x="166" y="0" type="line"/>
      <point x="1" y="527" type="line"/>
      <point x="175" y="527" type="line"/>
      <point x="262" y="186" type="line"/>
      <point x="359" y="527" type="line"/>
      <point x="522" y="527" type="line"/>
      <point x="619" y="186" type="line"/>
      <point x="705" y="527" type="line"/>
      <point x="872" y="527" type="line"/>
      <point x="707" y="0" type="line"/>
      <point x="534" y="0" type="line"/>
      <point x="437" y="328" type="line"/>
      <point x="341" y="0" type="line"/>
    </contour>
  </outline>
</glyph>
<glyph name="y" format="2">
  <advance width="631"/>
  <unicode hex="0079"/>
  <outline>
    <contour>
      <point x="269" y="-112" type="curve" smooth="yes"/>
      <point x="345" y="-112"/>
      <point x="422" y="-77"/>
      <point x="419" y="51" type="curve"/>
      <point x="383" y="5"/>
      <point x="314" y="-8"/>
      <point x="267" y="-8" type="curve" smooth="yes"/>
      <point x="198" y="-8"/>
      <point x="146" y="13"/>
      <point x="113" y="48" type="curve" smooth="yes"/>
      <point x="74" y="91"/>
      <point x="60" y="152"/>
      <point x="60" y="235" type="curve" smooth="yes"/>
      <point x="60" y="527" type="line"/>
      <point x="217" y="527" type="line"/>
      <point x="217" y="261" type="line" smooth="yes"/>
      <point x="217" y="201"/>
      <point x="233" y="134"/>
      <point x="317" y="134" type="curve" smooth="yes"/>
      <point x="401" y="134"/>
      <point x="419" y="209"/>
      <point x="419" y="263" type="curve" smooth="yes"/>
      <point x="419" y="527" type="line"/>
      <point x="577" y="527" type="line"/>
      <point x="577" y="110" type="line" smooth="yes"/>
      <point x="577" y="10"/>
      <point x="576" y="-91"/>
      <point x="516" y="-167" type="curve"/>
      <point x="463" y="-231"/>
      <point x="381" y="-261"/>
      <point x="281" y="-261" type="curve" smooth="yes"/>
      <point x="201" y="-261"/>
      <point x="123" y="-240"/>
      <point x="55" y="-196" type="curve"/>
      <point x="71" y="-152"/>
      <point x="87" y="-107"/>
      <point x="104" y="-64" type="curve"/>
      <point x="139" y="-89"/>
      <point x="202" y="-112"/>
    </contour>
  </outline>
</glyph>
<glyph name="z" format="2">
  <advance width="514"/>
  <unicode hex="007A"/>
  <outline>
    <contour>
      <point x="480" y="412" type="line"/>
      <point x="240" y="140" type="line"/>
      <point x="480" y="140" type="line"/>
      <point x="480" y="0" type="line"/>
      <point x="34" y="0" type="line"/>
      <point x="34" y="115" type="line"/>
      <point x="273" y="387" type="line"/>
      <point x="34" y="387" type="line"/>
      <point x="34" y="527" type="line"/>
      <point x="480" y="527" type="line"/>
    </contour>
  </outline>
</glyph>
<glyph name="braceleft" format="2">
  <advance width="423"/>
  <unicode hex="007B"/>
  <outline>
    <contour>
      <point x="218" y="308" type="curve"/>
      <point x="255" y="287"/>
      <point x="267" y="234"/>
      <point x="267" y="189" type="curve" smooth="yes"/>
      <point x="267" y="24" type="line" smooth="yes"/>
      <point x="267" y="2"/>
      <point x="269" y="-29"/>
      <point x="313" y="-29" type="curve" smooth="yes"/>
      <point x="377" y="-29" type="line"/>
      <point x="377" y="-165" type="line"/>
      <point x="260" y="-165" type="line" smooth="yes"/>
      <point x="172" y="-165"/>
      <point x="116" y="-130"/>
      <point x="116" y="-31" type="curve" smooth="yes"/>
      <point x="116" y="163" type="line" smooth="yes"/>
      <point x="116" y="189"/>
      <point x="116" y="240"/>
      <point x="57" y="240" type="curve" smooth="yes"/>
      <point x="24" y="240" type="line"/>
      <point x="24" y="376" type="line"/>
      <point x="57" y="376" type="line" smooth="yes"/>
      <point x="116" y="376"/>
      <point x="116" y="427"/>
      <point x="116" y="454" type="curve" smooth="yes"/>
      <point x="116" y="648" type="line" smooth="yes"/>
      <point x="116" y="745"/>
      <point x="171" y="781"/>
      <point x="260" y="781" type="curve" smooth="yes"/>
      <point x="377" y="781" type="line"/>
      <point x="377" y="645" type="line"/>
      <point x="313" y="645" type="line" smooth="yes"/>
      <point x="269" y="645"/>
      <point x="267" y="616"/>
      <point x="267" y="592" type="curve" smooth="yes"/>
      <point x="267" y="427" type="line" smooth="yes"/>
      <point x="267" y="380"/>
      <point x="255" y="329"/>
    </contour>
  </outline>
</glyph>
<glyph name="bar" format="2">
  <advance width="293"/>
  <unicode hex="007C"/>
  <outline>
    <contour>
      <point x="74" y="-169" type="line"/>
      <point x="74" y="797" type="line"/>
      <point x="219" y="797" type="line"/>
      <point x="219" y="-169" type="line"/>
    </contour>
  </outline>
</glyph>
<glyph name="braceright" format="2">
  <advance width="423"/>
  <unicode hex="007D"/>
  <outline>
    <contour>
      <point x="206" y="308" type="curve"/>
      <point x="167" y="324"/>
      <point x="156" y="382"/>
      <point x="156" y="427" type="curve" smooth="yes"/>
      <point x="156" y="592" type="line" smooth="yes"/>
      <point x="156" y="616"/>
      <point x="154" y="645"/>
      <point x="110" y="645" type="curve" smooth="yes"/>
      <point x="46" y="645" type="line"/>
      <point x="46" y="781" type="line"/>
      <point x="164" y="781" type="line" smooth="yes"/>
      <point x="255" y="781"/>
      <point x="307" y="744"/>
      <point x="307" y="648" type="curve" smooth="yes"/>
      <point x="307" y="454" type="line" smooth="yes"/>
      <point x="307" y="425"/>
      <point x="307" y="376"/>
      <point x="366" y="376" type="curve" smooth="yes"/>
      <point x="399" y="376" type="line"/>
      <point x="399" y="240" type="line"/>
      <point x="366" y="240" type="line" smooth="yes"/>
      <point x="307" y="240"/>
      <point x="307" y="189"/>
      <point x="307" y="163" type="curve" smooth="yes"/>
      <point x="307" y="-31" type="line" smooth="yes"/>
      <point x="307" y="-127"/>
      <point x="253" y="-165"/>
      <point x="164" y="-165" type="curve" smooth="yes"/>
      <point x="46" y="-165" type="line"/>
      <point x="46" y="-29" type="line"/>
      <point x="110" y="-29" type="line" smooth="yes"/>
      <point x="154" y="-29"/>
      <point x="156" y="0"/>
      <point x="156" y="25" type="curve" smooth="yes"/>
      <point x="156" y="189" type="line" smooth="yes"/>
      <point x="156" y="233"/>
      <point x="169" y="287"/>
    </contour>
  </outline>
</glyph>
<glyph name="asciitilde" format="2">
  <advance width="691"/>
  <unicode hex="007E"/>
  <outline>
    <contour>
      <point x="75" y="238" type="line"/>
      <point x="70" y="349"/>
      <point x="98" y="481"/>
      <point x="245" y="481" type="curve" smooth="yes"/>
      <point x="352" y="481"/>
      <point x="392" y="383"/>
      <point x="438" y="383" type="curve" smooth="yes"/>
      <point x="478" y="383"/>
      <point x="475" y="447"/>
      <point x="472" y="474" type="curve"/>
      <point x="616" y="474" type="line"/>
      <point x="621" y="368"/>
      <point x="597" y="232"/>
      <point x="454" y="232" type="curve" smooth="yes"/>
      <point x="345" y="232"/>
      <point x="298" y="334"/>
      <point x="255" y="334" type="curve" smooth="yes"/>
      <point x="213" y="334"/>
      <point x="215" y="267"/>
      <point x="220" y="238" type="curve"/>
    </contour>
  </outline>
</glyph>
<glyph name="exclamdown" format="2">
  <advance width="320"/>
  <unicode hex="00A1"/>
  <outline>
    <contour>
      <point x="160" y="350" type="curve" smooth="yes"/>
      <point x="104" y="350"/>
      <point x="64" y="384"/>
      <point x="64" y="445" type="curve" smooth="yes"/>
      <point x="64" y="503"/>
      <point x="107" y="538"/>
      <point x="163" y="538" type="curve" smooth="yes"/>
      <point x="215" y="538"/>
      <point x="256" y="504"/>
      <point x="256" y="445" type="curve" smooth="yes"/>
      <point x="256" y="385"/>
      <point x="215" y="350"/>
    </contour>
    <contour>
      <point x="87" y="287" type="line"/>
      <point x="232" y="287" type="line"/>
      <point x="244" y="-179" type="line"/>
      <point x="74" y="-179" type="line"/>
    </contour>
  </outline>
</glyph>
<glyph name="cent" format="2">
  <advance width="609"/>
  <unicode hex="00A2"/>
  <outline>
    <contour>
      <point x="313" y="132" type="curve" smooth="yes"/>
      <point x="360" y="132"/>
      <point x="391" y="160"/>
      <point x="398" y="193" type="curve"/>
      <point x="563" y="193" type="line"/>
      <point x="550" y="80"/>
      <point x="480" y="14"/>
      <point x="383" y="-5" type="curve"/>
      <point x="383" y="-145" type="line"/>
      <point x="236" y="-145" type="line"/>
      <point x="236" y="-4" type="line"/>
      <point x="108" y="23"/>
      <point x="46" y="119"/>
      <point x="46" y="264" type="curve" smooth="yes"/>
      <point x="46" y="405"/>
      <point x="120" y="508"/>
      <point x="236" y="532" type="curve"/>
      <point x="236" y="682" type="line"/>
      <point x="382" y="682" type="line"/>
      <point x="382" y="534" type="line"/>
      <point x="479" y="518"/>
      <point x="547" y="451"/>
      <point x="559" y="335" type="curve"/>
      <point x="398" y="335" type="line"/>
      <point x="391" y="371"/>
      <point x="359" y="398"/>
      <point x="312" y="398" type="curve" smooth="yes"/>
      <point x="231" y="398"/>
      <point x="204" y="331"/>
      <point x="204" y="264" type="curve" smooth="yes"/>
      <point x="204" y="194"/>
      <point x="231" y="132"/>
    </contour>
  </outline>
</glyph>
<glyph name="sterling" format="2">
  <advance width="633"/>
  <unicode hex="00A3"/>
  <outline>
    <contour>
      <point x="496" y="407" type="line"/>
      <point x="496" y="268" type="line"/>
      <point x="287" y="268" type="line"/>
      <point x="287" y="147" type="line"/>
      <point x="587" y="147" type="line"/>
      <point x="587" y="0" type="line"/>
      <point x="47" y="0" type="line"/>
      <point x="47" y="147" type="line"/>
      <point x="129" y="147" type="line"/>
      <point x="129" y="268" type="line"/>
      <point x="46" y="268" type="line"/>
      <point x="46" y="407" type="line"/>
      <point x="129" y="407" type="line"/>
      <point x="129" y="502" type="line" smooth="yes"/>
      <point x="129" y="647"/>
      <point x="230" y="717"/>
      <point x="360" y="717" type="curve" smooth="yes"/>
      <point x="497" y="717"/>
      <point x="574" y="656"/>
      <point x="579" y="511" type="curve"/>
      <point x="431" y="511" type="line"/>
      <point x="428" y="552"/>
      <point x="414" y="587"/>
      <point x="360" y="587" type="curve" smooth="yes"/>
      <point x="305" y="587"/>
      <point x="287" y="549"/>
      <point x="287" y="506" type="curve" smooth="yes"/>
      <point x="287" y="407" type="line"/>
    </contour>
  </outline>
</glyph>
<glyph name="yen" format="2">
  <advance width="755"/>
  <unicode hex="00A5"/>
  <outline>
    <contour>
      <point x="542" y="708" type="line"/>
      <point x="729" y="708" type="line"/>
      <point x="517" y="363" type="line"/>
      <point x="614" y="363" type="line"/>
      <point x="614" y="248" type="line"/>
      <point x="460" y="248" type="line"/>
      <point x="460" y="193" type="line"/>
      <point x="614" y="193" type="line"/>
      <point x="614" y="80" type="line"/>
      <point x="460" y="80" type="line"/>
      <point x="460" y="0" type="line"/>
      <point x="297" y="0" type="line"/>
      <point x="297" y="80" type="line"/>
      <point x="142" y="80" type="line"/>
      <point x="142" y="193" type="line"/>
      <point x="297" y="193" type="line"/>
      <point x="297" y="248" type="line"/>
      <point x="142" y="248" type="line"/>
      <point x="142" y="363" type="line"/>
      <point x="238" y="363" type="line"/>
      <point x="26" y="708" type="line"/>
      <point x="214" y="708" type="line"/>
      <point x="380" y="413" type="line"/>
    </contour>
  </outline>
</glyph>
<glyph name="section" format="2">
  <advance width="573"/>
  <unicode hex="00A7"/>
  <outline>
    <contour>
      <point x="288" y="597" type="curve"/>
      <point x="266" y="597"/>
      <point x="224" y="594"/>
      <point x="224" y="560" type="curve" smooth="yes"/>
      <point x="224" y="525"/>
      <point x="282" y="518"/>
      <point x="308" y="513" type="curve" smooth="yes"/>
      <point x="416" y="494"/>
      <point x="526" y="479"/>
      <point x="526" y="359" type="curve" smooth="yes"/>
      <point x="526" y="320"/>
      <point x="509" y="282"/>
      <point x="480" y="255" type="curve"/>
      <point x="511" y="228"/>
      <point x="524" y="189"/>
      <point x="523" y="150" type="curve" smooth="yes"/>
      <point x="520" y="33"/>
      <point x="402" y="-13"/>
      <point x="296" y="-13" type="curve" smooth="yes"/>
      <point x="165" y="-13"/>
      <point x="51" y="35"/>
      <point x="46" y="172" type="curve"/>
      <point x="203" y="172" type="line"/>
      <point x="211" y="129"/>
      <point x="250" y="110"/>
      <point x="293" y="109" type="curve" smooth="yes"/>
      <point x="332" y="108"/>
      <point x="365" y="120"/>
      <point x="365" y="147" type="curve" smooth="yes"/>
      <point x="365" y="167"/>
      <point x="351" y="177"/>
      <point x="327" y="182" type="curve" smooth="yes"/>
      <point x="183" y="209"/>
      <point x="60" y="232"/>
      <point x="60" y="355" type="curve" smooth="yes"/>
      <point x="60" y="396"/>
      <point x="82" y="434"/>
      <point x="117" y="457" type="curve"/>
      <point x="86" y="477"/>
      <point x="66" y="517"/>
      <point x="66" y="560" type="curve" smooth="yes"/>
      <point x="66" y="680"/>
      <point x="191" y="716"/>
      <point x="290" y="716" type="curve" smooth="yes"/>
      <point x="407" y="716"/>
      <point x="507" y="670"/>
      <point x="515" y="550" type="curve"/>
      <point x="360" y="550" type="line"/>
      <point x="356" y="585"/>
      <point x="325" y="596"/>
    </contour>
    <contour>
      <point x="235" y="409" type="curve"/>
      <point x="219" y="400"/>
      <point x="212" y="383"/>
      <point x="212" y="367" type="curve" smooth="yes"/>
      <point x="212" y="318"/>
      <point x="290" y="314"/>
      <point x="354" y="301" type="curve"/>
      <point x="369" y="312"/>
      <point x="377" y="328"/>
      <point x="377" y="344" type="curve" smooth="yes"/>
      <point x="377" y="372"/>
      <point x="349" y="382"/>
      <point x="325" y="389" type="curve" smooth="yes"/>
      <point x="285" y="400"/>
      <point x="256" y="404"/>
    </contour>
  </outline>
</glyph>
<glyph name="dieresis" format="2">
  <advance width="637"/>
  <unicode hex="00A8"/>
  <outline>
    <contour>
      <point x="184" y="760" type="curve" smooth="yes"/>
      <point x="235" y="760"/>
      <point x="274" y="728"/>
      <point x="274" y="672" type="curve" smooth="yes"/>
      <point x="274" y="615"/>
      <point x="235" y="583"/>
      <point x="184" y="583" type="curve" smooth="yes"/>
      <point x="133" y="583"/>
      <point x="94" y="615"/>
      <point x="94" y="672" type="curve" smooth="yes"/>
      <point x="94" y="727"/>
      <point x="133" y="760"/>
    </contour>
    <contour>
      <point x="452" y="760" type="curve" smooth="yes"/>
      <point x="503" y="760"/>
      <point x="543" y="728"/>
      <point x="543" y="672" type="curve" smooth="yes"/>
      <point x="543" y="615"/>
      <point x="503" y="583"/>
      <point x="452" y="583" type="curve" smooth="yes"/>
      <point x="401" y="583"/>
      <point x="362" y="615"/>
      <point x="362" y="672" type="curve" smooth="yes"/>
      <point x="362" y="727"/>
      <point x="403" y="760"/>
    </contour>
  </outline>
</glyph>
<glyph name="copyright" format="2">
  <advance width="918"/>
  <unicode hex="00A9"/>
  <outline>
    <contour>
      <point x="461" y="-87" type="curve" smooth="yes"/>
      <point x="209" y="-87"/>
      <point x="46" y="66"/>
      <point x="46" y="321" type="curve" smooth="yes"/>
      <point x="46" y="572"/>
      <point x="213" y="729"/>
      <point x="461" y="729" type="curve" smooth="yes"/>
      <point x="704" y="729"/>
      <point x="872" y="564"/>
      <point x="872" y="321" type="curve" smooth="yes"/>
      <point x="872" y="64"/>
      <point x="707" y="-87"/>
    </contour>
    <contour>
      <point x="465" y="26" type="curve" smooth="yes"/>
      <point x="653" y="26"/>
      <point x="758" y="143"/>
      <point x="758" y="320" type="curve" smooth="yes"/>
      <point x="758" y="491"/>
      <point x="652" y="614"/>
      <point x="465" y="614" type="curve" smooth="yes"/>
      <point x="280" y="614"/>
      <point x="166" y="491"/>
      <point x="166" y="320" type="curve" smooth="yes"/>
      <point x="166" y="144"/>
      <point x="275" y="26"/>
    </contour>
    <contour>
      <point x="469" y="224" type="curve" smooth="yes"/>
      <point x="505" y="224"/>
      <point x="529" y="243"/>
      <point x="533" y="267" type="curve"/>
      <point x="659" y="267" type="line"/>
      <point x="643" y="154"/>
      <point x="567" y="111"/>
      <point x="467" y="111" type="curve" smooth="yes"/>
      <point x="339" y="111"/>
      <point x="264" y="185"/>
      <point x="264" y="322" type="curve" smooth="yes"/>
      <point x="264" y="454"/>
      <point x="350" y="530"/>
      <point x="472" y="530" type="curve" smooth="yes"/>
      <point x="572" y="530"/>
      <point x="643" y="484"/>
      <point x="658" y="373" type="curve"/>
      <point x="532" y="373" type="line"/>
      <point x="529" y="400"/>
      <point x="503" y="418"/>
      <point x="468" y="418" type="curve" smooth="yes"/>
      <point x="404" y="418"/>
      <point x="388" y="371"/>
      <point x="388" y="322" type="curve" smooth="yes"/>
      <point x="388" y="272"/>
      <point x="403" y="224"/>
    </contour>
  </outline>
</glyph>
<glyph name="ordfeminine" format="2">
  <advance width="372"/>
  <unicode hex="00AA"/>
  <outline>
    <contour>
      <point x="244" y="482" type="line"/>
      <point x="220" y="449"/>
      <point x="185" y="438"/>
      <point x="146" y="438" type="curve" smooth="yes"/>
      <point x="83" y="438"/>
      <point x="40" y="474"/>
      <point x="40" y="538" type="curve" smooth="yes"/>
      <point x="40" y="620"/>
      <point x="116" y="634"/>
      <point x="182" y="634" type="curve" smooth="yes"/>
      <point x="240" y="634" type="line"/>
      <point x="238" y="665"/>
      <point x="221" y="681"/>
      <point x="190" y="681" type="curve" smooth="yes"/>
      <point x="173" y="681"/>
      <point x="147" y="676"/>
      <point x="144" y="655" type="curve"/>
      <point x="47" y="655" type="line"/>
      <point x="55" y="730"/>
      <point x="121" y="764"/>
      <point x="190" y="764" type="curve" smooth="yes"/>
      <point x="287" y="764"/>
      <point x="332" y="711"/>
      <point x="332" y="612" type="curve" smooth="yes"/>
      <point x="332" y="442" type="line"/>
      <point x="245" y="442" type="line"/>
    </contour>
    <contour>
      <point x="241" y="571" type="curve"/>
      <point x="179" y="571" type="line" smooth="yes"/>
      <point x="159" y="571"/>
      <point x="135" y="567"/>
      <point x="135" y="543" type="curve" smooth="yes"/>
      <point x="135" y="520"/>
      <point x="155" y="513"/>
      <point x="174" y="514" type="curve"/>
      <point x="209" y="514"/>
      <point x="238" y="535"/>
    </contour>
  </outline>
</glyph>
<glyph name="guillemotleft" format="2">
  <advance width="602"/>
  <unicode hex="00AB"/>
  <outline>
    <contour>
      <point x="176" y="274" type="line"/>
      <point x="314" y="79" type="line"/>
      <point x="162" y="79" type="line"/>
      <point x="26" y="274" type="line"/>
      <point x="162" y="468" type="line"/>
      <point x="314" y="468" type="line"/>
    </contour>
    <contour>
      <point x="418" y="274" type="line"/>
      <point x="556" y="79" type="line"/>
      <point x="403" y="79" type="line"/>
      <point x="268" y="274" type="line"/>
      <point x="403" y="468" type="line"/>
      <point x="556" y="468" type="line"/>
    </contour>
  </outline>
</glyph>
<glyph name="uni00AD" format="2">
  <advance width="467"/>
  <unicode hex="00AD"/>
  <outline>
    <contour>
      <point x="406" y="225" type="line"/>
      <point x="61" y="225" type="line"/>
      <point x="61" y="361" type="line"/>
      <point x="406" y="361" type="line"/>
    </contour>
  </outline>
</glyph>
<glyph name="registered" format="2">
  <advance width="486"/>
  <unicode hex="00AE"/>
  <outline>
    <contour>
      <point x="244" y="734" type="curve" smooth="yes"/>
      <point x="363" y="734"/>
      <point x="447" y="660"/>
      <point x="447" y="534" type="curve" smooth="yes"/>
      <point x="447" y="409"/>
      <point x="362" y="338"/>
      <point x="244" y="338" type="curve" smooth="yes"/>
      <point x="124" y="338"/>
      <point x="39" y="407"/>
      <point x="39" y="534" type="curve" smooth="yes"/>
      <point x="39" y="661"/>
      <point x="127" y="734"/>
    </contour>
    <contour>
      <point x="243" y="674" type="curve" smooth="yes"/>
      <point x="160" y="674"/>
      <point x="103" y="625"/>
      <point x="103" y="534" type="curve" smooth="yes"/>
      <point x="103" y="445"/>
      <point x="160" y="399"/>
      <point x="243" y="399" type="curve" smooth="yes"/>
      <point x="326" y="399"/>
      <point x="383" y="445"/>
      <point x="383" y="534" type="curve" smooth="yes"/>
      <point x="383" y="625"/>
      <point x="327" y="674"/>
    </contour>
    <contour>
      <point x="341" y="441" type="line"/>
      <point x="278" y="441" type="line"/>
      <point x="237" y="506" type="line"/>
      <point x="222" y="506" type="line"/>
      <point x="222" y="441" type="line"/>
      <point x="167" y="441" type="line"/>
      <point x="167" y="641" type="line"/>
      <point x="249" y="641" type="line" smooth="yes"/>
      <point x="296" y="641"/>
      <point x="329" y="621"/>
      <point x="329" y="574" type="curve"/>
      <point x="330" y="545"/>
      <point x="318" y="525"/>
      <point x="293" y="514" type="curve"/>
    </contour>
    <contour>
      <point x="222" y="593" type="line"/>
      <point x="222" y="552" type="line"/>
      <point x="250" y="552" type="line" smooth="yes"/>
      <point x="265" y="552"/>
      <point x="276" y="557"/>
      <point x="276" y="573" type="curve" smooth="yes"/>
      <point x="276" y="590"/>
      <point x="265" y="593"/>
      <point x="249" y="593" type="curve" smooth="yes"/>
    </contour>
  </outline>
</glyph>
<glyph name="macron" format="2">
  <advance width="577"/>
  <unicode hex="00AF"/>
  <outline>
    <contour>
      <point x="477" y="753" type="line"/>
      <point x="477" y="620" type="line"/>
      <point x="100" y="620" type="line"/>
      <point x="100" y="753" type="line"/>
    </contour>
  </outline>
</glyph>
<glyph name="degree" format="2">
  <advance width="424"/>
  <unicode hex="00B0"/>
  <outline>
    <contour>
      <point x="212" y="755" type="curve" smooth="yes"/>
      <point x="306" y="755"/>
      <point x="378" y="694"/>
      <point x="378" y="590" type="curve" smooth="yes"/>
      <point x="378" y="485"/>
      <point x="306" y="430"/>
      <point x="212" y="430" type="curve" smooth="yes"/>
      <point x="120" y="430"/>
      <point x="46" y="485"/>
      <point x="46" y="590" type="curve" smooth="yes"/>
      <point x="46" y="693"/>
      <point x="120" y="755"/>
    </contour>
    <contour>
      <point x="213" y="651" type="curve" smooth="yes"/>
      <point x="178" y="651"/>
      <point x="154" y="628"/>
      <point x="154" y="591" type="curve" smooth="yes"/>
      <point x="154" y="554"/>
      <point x="178" y="532"/>
      <point x="213" y="532" type="curve" smooth="yes"/>
      <point x="248" y="532"/>
      <point x="273" y="554"/>
      <point x="273" y="591" type="curve" smooth="yes"/>
      <point x="273" y="628"/>
      <point x="248" y="651"/>
    </contour>
  </outline>
</glyph>
<glyph name="plusminus" format="2">
  <advance width="594"/>
  <unicode hex="00B1"/>
  <outline>
    <contour>
      <point x="365" y="351" type="line"/>
      <point x="365" y="190" type="line"/>
      <point x="228" y="190" type="line"/>
      <point x="228" y="351" type="line"/>
      <point x="56" y="351" type="line"/>
      <point x="56" y="489" type="line"/>
      <point x="228" y="489" type="line"/>
      <point x="228" y="662" type="line"/>
      <point x="365" y="662" type="line"/>
      <point x="365" y="489" type="line"/>
      <point x="538" y="489" type="line"/>
      <point x="538" y="351" type="line"/>
    </contour>
    <contour>
      <point x="56" y="0" type="curve"/>
      <point x="56" y="138" type="line"/>
      <point x="347" y="138"/>
      <point x="246" y="138"/>
      <point x="538" y="138" type="curve"/>
      <point x="538" y="0" type="line"/>
      <point x="245" y="0"/>
      <point x="348" y="0"/>
    </contour>
  </outline>
</glyph>
<glyph name="twosuperior" format="2">
  <advance width="391"/>
  <unicode hex="00B2"/>
  <outline>
    <contour>
      <point x="217" y="467" type="curve"/>
      <point x="332" y="467" type="line"/>
      <point x="332" y="372" type="line"/>
      <point x="58" y="372" type="line"/>
      <point x="58" y="454" type="line"/>
      <point x="92" y="482"/>
      <point x="127" y="509"/>
      <point x="161" y="539" type="curve" smooth="yes"/>
      <point x="186" y="561"/>
      <point x="231" y="593"/>
      <point x="231" y="630" type="curve" smooth="yes"/>
      <point x="231" y="652"/>
      <point x="216" y="663"/>
      <point x="195" y="663" type="curve" smooth="yes"/>
      <point x="164" y="663"/>
      <point x="153" y="650"/>
      <point x="152" y="624" type="curve"/>
      <point x="55" y="624" type="line"/>
      <point x="58" y="713"/>
      <point x="112" y="760"/>
      <point x="200" y="760" type="curve" smooth="yes"/>
      <point x="275" y="760"/>
      <point x="336" y="716"/>
      <point x="336" y="637" type="curve" smooth="yes"/>
      <point x="336" y="561"/>
      <point x="269" y="508"/>
    </contour>
  </outline>
</glyph>
<glyph name="threesuperior" format="2">
  <advance width="417"/>
  <unicode hex="00B3"/>
  <outline>
    <contour>
      <point x="313" y="580" type="curve"/>
      <point x="346" y="564"/>
      <point x="362" y="530"/>
      <point x="362" y="494" type="curve" smooth="yes"/>
      <point x="360" y="407"/>
      <point x="293" y="368"/>
      <point x="214" y="368" type="curve" smooth="yes"/>
      <point x="118" y="368"/>
      <point x="55" y="417"/>
      <point x="55" y="503" type="curve"/>
      <point x="156" y="503" type="line"/>
      <point x="160" y="479"/>
      <point x="179" y="464"/>
      <point x="213" y="464" type="curve" smooth="yes"/>
      <point x="234" y="464"/>
      <point x="255" y="470"/>
      <point x="255" y="496" type="curve" smooth="yes"/>
      <point x="255" y="517"/>
      <point x="239" y="524"/>
      <point x="221" y="524" type="curve" smooth="yes"/>
      <point x="169" y="524" type="line"/>
      <point x="169" y="608" type="line"/>
      <point x="207" y="608" type="line" smooth="yes"/>
      <point x="228" y="608"/>
      <point x="243" y="616"/>
      <point x="243" y="638" type="curve" smooth="yes"/>
      <point x="243" y="657"/>
      <point x="225" y="665"/>
      <point x="209" y="665" type="curve" smooth="yes"/>
      <point x="181" y="665"/>
      <point x="166" y="653"/>
      <point x="166" y="631" type="curve"/>
      <point x="66" y="631" type="line"/>
      <point x="65" y="714"/>
      <point x="124" y="760"/>
      <point x="212" y="760" type="curve" smooth="yes"/>
      <point x="281" y="760"/>
      <point x="348" y="729"/>
      <point x="348" y="651" type="curve" smooth="yes"/>
      <point x="348" y="625"/>
      <point x="339" y="596"/>
    </contour>
  </outline>
</glyph>
<glyph name="acute" format="2">
  <advance width="421"/>
  <unicode hex="00B4"/>
  <outline>
    <contour>
      <point x="92" y="584" type="line"/>
      <point x="212" y="769" type="line"/>
      <point x="375" y="769" type="line"/>
      <point x="222" y="584" type="line"/>
    </contour>
  </outline>
</glyph>
<glyph name="paragraph" format="2">
  <advance width="742"/>
  <unicode hex="00B6"/>
  <outline>
    <contour>
      <point x="737" y="562" type="line"/>
      <point x="636" y="562" type="line"/>
      <point x="636" y="0" type="line"/>
      <point x="479" y="0" type="line"/>
      <point x="479" y="562" type="line"/>
      <point x="379" y="562" type="line"/>
      <point x="379" y="0" type="line"/>
      <point x="221" y="0" type="line"/>
      <point x="221" y="315" type="line"/>
      <point x="207" y="315" type="line" smooth="yes"/>
      <point x="85" y="315"/>
      <point x="5" y="396"/>
      <point x="5" y="519" type="curve" smooth="yes"/>
      <point x="5" y="630"/>
      <point x="93" y="708"/>
      <point x="202" y="708" type="curve" smooth="yes"/>
      <point x="737" y="708" type="line"/>
    </contour>
  </outline>
</glyph>
<glyph name="periodcentered" format="2">
  <advance width="269"/>
  <unicode hex="00B7"/>
  <outline>
    <contour>
      <point x="134" y="449" type="curve" smooth="yes"/>
      <point x="190" y="449"/>
      <point x="229" y="412"/>
      <point x="229" y="356" type="curve" smooth="yes"/>
      <point x="229" y="300"/>
      <point x="190" y="263"/>
      <point x="134" y="263" type="curve" smooth="yes"/>
      <point x="78" y="263"/>
      <point x="40" y="300"/>
      <point x="40" y="356" type="curve" smooth="yes"/>
      <point x="40" y="412"/>
      <point x="79" y="449"/>
    </contour>
  </outline>
</glyph>
<glyph name="cedilla" format="2">
  <advance width="621"/>
  <unicode hex="00B8"/>
  <outline>
    <contour>
      <point x="348" y="39" type="line"/>
      <point x="328" y="-22" type="line"/>
      <point x="387" y="-22"/>
      <point x="433" y="-54"/>
      <point x="433" y="-122" type="curve" smooth="yes"/>
      <point x="433" y="-217"/>
      <point x="347" y="-255"/>
      <point x="270" y="-255" type="curve" smooth="yes"/>
      <point x="248" y="-255"/>
      <point x="226" y="-253"/>
      <point x="204" y="-249" type="curve"/>
      <point x="204" y="-158" type="line"/>
      <point x="224" y="-161"/>
      <point x="241" y="-163"/>
      <point x="256" y="-163" type="curve" smooth="yes"/>
      <point x="299" y="-163"/>
      <point x="316" y="-150"/>
      <point x="316" y="-127" type="curve" smooth="yes"/>
      <point x="316" y="-104"/>
      <point x="290" y="-93"/>
      <point x="257" y="-93" type="curve" smooth="yes"/>
      <point x="237" y="-93"/>
      <point x="217" y="-95"/>
      <point x="206" y="-98" type="curve"/>
      <point x="249" y="39" type="line"/>
    </contour>
  </outline>
</glyph>
<glyph name="ordmasculine" format="2">
  <advance width="372"/>
  <unicode hex="00BA"/>
  <outline>
    <contour>
      <point x="187" y="763" type="curve" smooth="yes"/>
      <point x="288" y="763"/>
      <point x="332" y="694"/>
      <point x="332" y="599" type="curve" smooth="yes"/>
      <point x="332" y="504"/>
      <point x="287" y="437"/>
      <point x="186" y="437" type="curve" smooth="yes"/>
      <point x="85" y="437"/>
      <point x="40" y="504"/>
      <point x="40" y="599" type="curve" smooth="yes"/>
      <point x="40" y="695"/>
      <point x="85" y="763"/>
    </contour>
    <contour>
      <point x="187" y="680" type="curve" smooth="yes"/>
      <point x="142" y="680"/>
      <point x="130" y="638"/>
      <point x="130" y="600" type="curve" smooth="yes"/>
      <point x="130" y="563"/>
      <point x="138" y="519"/>
      <point x="186" y="519" type="curve" smooth="yes"/>
      <point x="231" y="519"/>
      <point x="242" y="563"/>
      <point x="242" y="600" type="curve" smooth="yes"/>
      <point x="242" y="636"/>
      <point x="233" y="680"/>
    </contour>
  </outline>
</glyph>
<glyph name="guillemotright" format="2">
  <advance width="602"/>
  <unicode hex="00BB"/>
  <outline>
    <contour>
      <point x="46" y="468" type="line"/>
      <point x="197" y="468" type="line"/>
      <point x="332" y="273" type="line"/>
      <point x="197" y="79" type="line"/>
      <point x="46" y="79" type="line"/>
      <point x="184" y="273" type="line"/>
    </contour>
    <contour>
      <point x="288" y="468" type="line"/>
      <point x="439" y="468" type="line"/>
      <point x="576" y="273" type="line"/>
      <point x="439" y="79" type="line"/>
      <point x="288" y="79" type="line"/>
      <point x="426" y="273" type="line"/>
    </contour>
  </outline>
</glyph>
<glyph name="questiondown" format="2">
  <advance width="540"/>
  <unicode hex="00BF"/>
  <outline>
    <contour>
      <point x="280" y="348" type="curve" smooth="yes"/>
      <point x="225" y="348"/>
      <point x="184" y="380"/>
      <point x="184" y="443" type="curve" smooth="yes"/>
      <point x="184" y="507"/>
      <point x="225" y="538"/>
      <point x="280" y="538" type="curve" smooth="yes"/>
      <point x="336" y="538"/>
      <point x="377" y="507"/>
      <point x="377" y="443" type="curve" smooth="yes"/>
      <point x="377" y="380"/>
      <point x="336" y="348"/>
    </contour>
    <contour>
      <point x="356" y="296" type="line"/>
      <point x="359" y="280"/>
      <point x="359" y="266"/>
      <point x="359" y="253" type="curve"/>
      <point x="355" y="133"/>
      <point x="202" y="98"/>
      <point x="202" y="19" type="curve" smooth="yes"/>
      <point x="202" y="-20"/>
      <point x="228" y="-41"/>
      <point x="275" y="-41" type="curve" smooth="yes"/>
      <point x="328" y="-41"/>
      <point x="360" y="-21"/>
      <point x="363" y="30" type="curve"/>
      <point x="516" y="30" type="line"/>
      <point x="516" y="-109"/>
      <point x="429" y="-188"/>
      <point x="272" y="-188" type="curve" smooth="yes"/>
      <point x="155" y="-188"/>
      <point x="42" y="-137"/>
      <point x="42" y="4" type="curve"/>
      <point x="45" y="60"/>
      <point x="65" y="101"/>
      <point x="142" y="176" type="curve" smooth="yes"/>
      <point x="178" y="212"/>
      <point x="211" y="243"/>
      <point x="210" y="296" type="curve"/>
    </contour>
  </outline>
</glyph>
<glyph name="Agrave" format="2">
  <advance width="730"/>
  <unicode hex="00C0"/>
  <outline>
    <contour>
      <point x="269" y="263" type="line"/>
      <point x="459" y="263" type="line"/>
      <point x="365" y="530" type="line"/>
    </contour>
    <contour>
      <point x="219" y="117" type="line"/>
      <point x="176" y="0" type="line"/>
      <point x="0" y="0" type="line"/>
      <point x="279" y="708" type="line"/>
      <point x="453" y="708" type="line"/>
      <point x="728" y="0" type="line"/>
      <point x="551" y="0" type="line"/>
      <point x="509" y="117" type="line"/>
    </contour>
    <contour>
      <point x="336" y="765" type="line"/>
      <point x="183" y="950" type="line"/>
      <point x="346" y="950" type="line"/>
      <point x="466" y="765" type="line"/>
    </contour>
  </outline>
</glyph>
<glyph name="Aacute" format="2">
  <advance width="730"/>
  <unicode hex="00C1"/>
  <outline>
    <contour>
      <point x="269" y="263" type="line"/>
      <point x="459" y="263" type="line"/>
      <point x="365" y="530" type="line"/>
    </contour>
    <contour>
      <point x="219" y="117" type="line"/>
      <point x="176" y="0" type="line"/>
      <point x="0" y="0" type="line"/>
      <point x="279" y="708" type="line"/>
      <point x="453" y="708" type="line"/>
      <point x="728" y="0" type="line"/>
      <point x="551" y="0" type="line"/>
      <point x="509" y="117" type="line"/>
    </contour>
    <contour>
      <point x="282" y="765" type="line"/>
      <point x="402" y="950" type="line"/>
      <point x="565" y="950" type="line"/>
      <point x="412" y="765" type="line"/>
    </contour>
  </outline>
</glyph>
<glyph name="Atilde" format="2">
  <advance width="730"/>
  <unicode hex="00C3"/>
  <outline>
    <contour>
      <point x="269" y="263" type="line"/>
      <point x="459" y="263" type="line"/>
      <point x="365" y="530" type="line"/>
    </contour>
    <contour>
      <point x="219" y="117" type="line"/>
      <point x="176" y="0" type="line"/>
      <point x="0" y="0" type="line"/>
      <point x="279" y="708" type="line"/>
      <point x="453" y="708" type="line"/>
      <point x="728" y="0" type="line"/>
      <point x="551" y="0" type="line"/>
      <point x="509" y="117" type="line"/>
    </contour>
    <contour>
      <point x="175" y="772" type="line"/>
      <point x="174" y="779"/>
      <point x="173" y="785"/>
      <point x="173" y="805" type="curve"/>
      <point x="176" y="884"/>
      <point x="214" y="945"/>
      <point x="299" y="945" type="curve" smooth="yes"/>
      <point x="368" y="945"/>
      <point x="399" y="880"/>
      <point x="434" y="880" type="curve" smooth="yes"/>
      <point x="464" y="880"/>
      <point x="465" y="914"/>
      <point x="462" y="939" type="curve"/>
      <point x="565" y="939" type="line"/>
      <point x="565" y="932"/>
      <point x="565" y="925"/>
      <point x="565" y="918" type="curve" smooth="yes"/>
      <point x="565" y="842"/>
      <point x="538" y="767"/>
      <point x="450" y="767" type="curve" smooth="yes"/>
      <point x="380" y="767"/>
      <point x="337" y="836"/>
      <point x="305" y="836" type="curve" smooth="yes"/>
      <point x="277" y="836"/>
      <point x="271" y="793"/>
      <point x="276" y="772" type="curve"/>
    </contour>
  </outline>
</glyph>
<glyph name="Adieresis" format="2">
  <advance width="730"/>
  <unicode hex="00C4"/>
  <outline>
    <contour>
      <point x="269" y="263" type="line"/>
      <point x="459" y="263" type="line"/>
      <point x="365" y="530" type="line"/>
    </contour>
    <contour>
      <point x="219" y="117" type="line"/>
      <point x="176" y="0" type="line"/>
      <point x="0" y="0" type="line"/>
      <point x="279" y="708" type="line"/>
      <point x="453" y="708" type="line"/>
      <point x="728" y="0" type="line"/>
      <point x="551" y="0" type="line"/>
      <point x="509" y="117" type="line"/>
    </contour>
    <contour>
      <point x="234" y="941" type="curve" smooth="yes"/>
      <point x="285" y="941"/>
      <point x="324" y="909"/>
      <point x="324" y="853" type="curve" smooth="yes"/>
      <point x="324" y="796"/>
      <point x="285" y="764"/>
      <point x="234" y="764" type="curve" smooth="yes"/>
      <point x="183" y="764"/>
      <point x="144" y="796"/>
      <point x="144" y="853" type="curve" smooth="yes"/>
      <point x="144" y="908"/>
      <point x="183" y="941"/>
    </contour>
    <contour>
      <point x="502" y="941" type="curve" smooth="yes"/>
      <point x="553" y="941"/>
      <point x="593" y="909"/>
      <point x="593" y="853" type="curve" smooth="yes"/>
      <point x="593" y="796"/>
      <point x="553" y="764"/>
      <point x="502" y="764" type="curve" smooth="yes"/>
      <point x="451" y="764"/>
      <point x="412" y="796"/>
      <point x="412" y="853" type="curve" smooth="yes"/>
      <point x="412" y="908"/>
      <point x="453" y="941"/>
    </contour>
  </outline>
</glyph>
<glyph name="Aring" format="2">
  <advance width="730"/>
  <unicode hex="00C5"/>
  <outline>
    <contour>
      <point x="269" y="263" type="line"/>
      <point x="459" y="263" type="line"/>
      <point x="365" y="530" type="line"/>
    </contour>
    <contour>
      <point x="219" y="117" type="line"/>
      <point x="176" y="0" type="line"/>
      <point x="0" y="0" type="line"/>
      <point x="279" y="708" type="line"/>
      <point x="453" y="708" type="line"/>
      <point x="728" y="0" type="line"/>
      <point x="551" y="0" type="line"/>
      <point x="509" y="117" type="line"/>
    </contour>
    <contour>
      <point x="364" y="969" type="curve" smooth="yes"/>
      <point x="435" y="969"/>
      <point x="489" y="922"/>
      <point x="489" y="850" type="curve" smooth="yes"/>
      <point x="489" y="775"/>
      <point x="436" y="732"/>
      <point x="364" y="732" type="curve" smooth="yes"/>
      <point x="293" y="732"/>
      <point x="240" y="777"/>
      <point x="240" y="850" type="curve" smooth="yes"/>
      <point x="240" y="921"/>
      <point x="295" y="969"/>
    </contour>
    <contour>
      <point x="364" y="889" type="curve" smooth="yes"/>
      <point x="341" y="889"/>
      <point x="324" y="873"/>
      <point x="324" y="850" type="curve" smooth="yes"/>
      <point x="324" y="826"/>
      <point x="340" y="811"/>
      <point x="364" y="811" type="curve" smooth="yes"/>
      <point x="387" y="811"/>
      <point x="405" y="826"/>
      <point x="405" y="850" type="curve" smooth="yes"/>
      <point x="405" y="874"/>
      <point x="387" y="889"/>
    </contour>
  </outline>
</glyph>
<glyph name="AE" format="2">
  <advance width="973"/>
  <unicode hex="00C6"/>
  <outline>
    <contour>
      <point x="297" y="280" type="line"/>
      <point x="440" y="280" type="line"/>
      <point x="440" y="559" type="line"/>
      <point x="414" y="559" type="line"/>
    </contour>
    <contour>
      <point x="440" y="134" type="line"/>
      <point x="234" y="134" type="line"/>
      <point x="176" y="0" type="line"/>
      <point x="0" y="0" type="line"/>
      <point x="320" y="708" type="line"/>
      <point x="938" y="708" type="line"/>
      <point x="938" y="559" type="line"/>
      <point x="603" y="559" type="line"/>
      <point x="603" y="423" type="line"/>
      <point x="884" y="423" type="line"/>
      <point x="884" y="278" type="line"/>
      <point x="603" y="278" type="line"/>
      <point x="603" y="147" type="line"/>
      <point x="938" y="147" type="line"/>
      <point x="938" y="0" type="line"/>
      <point x="440" y="0" type="line"/>
    </contour>
  </outline>
</glyph>
<glyph name="Ccedilla" format="2">
  <advance width="725"/>
  <unicode hex="00C7"/>
  <outline>
    <contour>
      <point x="203" y="356" type="curve" smooth="yes"/>
      <point x="203" y="250"/>
      <point x="254" y="143"/>
      <point x="383" y="143" type="curve" smooth="yes"/>
      <point x="466" y="143"/>
      <point x="518" y="180"/>
      <point x="533" y="247" type="curve"/>
      <point x="690" y="247" type="line"/>
      <point x="677" y="95"/>
      <point x="561" y="9"/>
      <point x="424" y="-4" type="curve"/>
      <point x="416" y="-34" type="line"/>
      <point x="424" y="-34" type="line" smooth="yes"/>
      <point x="477" y="-34"/>
      <point x="521" y="-64"/>
      <point x="521" y="-133" type="curve" smooth="yes"/>
      <point x="521" y="-225"/>
      <point x="439" y="-267"/>
      <point x="361" y="-267" type="curve" smooth="yes"/>
      <point x="333" y="-267"/>
      <point x="313" y="-264"/>
      <point x="292" y="-261" type="curve"/>
      <point x="292" y="-170" type="line"/>
      <point x="312" y="-173"/>
      <point x="328" y="-174"/>
      <point x="343" y="-174" type="curve" smooth="yes"/>
      <point x="387" y="-174"/>
      <point x="404" y="-161"/>
      <point x="404" y="-138" type="curve" smooth="yes"/>
      <point x="404" y="-114"/>
      <point x="380" y="-105"/>
      <point x="344" y="-105" type="curve" smooth="yes"/>
      <point x="323" y="-105"/>
      <point x="303" y="-106"/>
      <point x="294" y="-109" type="curve"/>
      <point x="324" y="-3" type="line"/>
      <point x="139" y="18"/>
      <point x="35" y="157"/>
      <point x="35" y="355" type="curve" smooth="yes"/>
      <point x="35" y="568"/>
      <point x="166" y="717"/>
      <point x="382" y="717" type="curve" smooth="yes"/>
      <point x="541" y="717"/>
      <point x="670" y="636"/>
      <point x="686" y="461" type="curve"/>
      <point x="531" y="461" type="line"/>
      <point x="515" y="528"/>
      <point x="466" y="567"/>
      <point x="383" y="567" type="curve" smooth="yes"/>
      <point x="253" y="567"/>
      <point x="203" y="463"/>
    </contour>
  </outline>
</glyph>
<glyph name="Egrave" format="2">
  <advance width="629"/>
  <unicode hex="00C8"/>
  <outline>
    <contour>
      <point x="594" y="708" type="line"/>
      <point x="594" y="559" type="line"/>
      <point x="237" y="559" type="line"/>
      <point x="237" y="423" type="line"/>
      <point x="540" y="423" type="line"/>
      <point x="540" y="278" type="line"/>
      <point x="237" y="278" type="line"/>
      <point x="237" y="147" type="line"/>
      <point x="594" y="147" type="line"/>
      <point x="594" y="0" type="line"/>
      <point x="74" y="0" type="line"/>
      <point x="74" y="708" type="line"/>
    </contour>
    <contour>
      <point x="308" y="765" type="line"/>
      <point x="155" y="950" type="line"/>
      <point x="318" y="950" type="line"/>
      <point x="438" y="765" type="line"/>
    </contour>
  </outline>
</glyph>
<glyph name="Eacute" format="2">
  <advance width="629"/>
  <unicode hex="00C9"/>
  <outline>
    <contour>
      <point x="594" y="708" type="line"/>
      <point x="594" y="559" type="line"/>
      <point x="237" y="559" type="line"/>
      <point x="237" y="423" type="line"/>
      <point x="540" y="423" type="line"/>
      <point x="540" y="278" type="line"/>
      <point x="237" y="278" type="line"/>
      <point x="237" y="147" type="line"/>
      <point x="594" y="147" type="line"/>
      <point x="594" y="0" type="line"/>
      <point x="74" y="0" type="line"/>
      <point x="74" y="708" type="line"/>
    </contour>
    <contour>
      <point x="253" y="765" type="line"/>
      <point x="373" y="950" type="line"/>
      <point x="536" y="950" type="line"/>
      <point x="383" y="765" type="line"/>
    </contour>
  </outline>
</glyph>
<glyph name="Ecircumflex" format="2">
  <advance width="629"/>
  <unicode hex="00CA"/>
  <outline>
    <contour>
      <point x="594" y="708" type="line"/>
      <point x="594" y="559" type="line"/>
      <point x="237" y="559" type="line"/>
      <point x="237" y="423" type="line"/>
      <point x="540" y="423" type="line"/>
      <point x="540" y="278" type="line"/>
      <point x="237" y="278" type="line"/>
      <point x="237" y="147" type="line"/>
      <point x="594" y="147" type="line"/>
      <point x="594" y="0" type="line"/>
      <point x="74" y="0" type="line"/>
      <point x="74" y="708" type="line"/>
    </contour>
    <contour>
      <point x="543" y="765" type="line"/>
      <point x="397" y="765" type="line"/>
      <point x="332" y="852" type="line"/>
      <point x="269" y="765" type="line"/>
      <point x="123" y="765" type="line"/>
      <point x="281" y="950" type="line"/>
      <point x="383" y="950" type="line"/>
    </contour>
  </outline>
</glyph>
<glyph name="Edieresis" format="2">
  <advance width="629"/>
  <unicode hex="00CB"/>
  <outline>
    <contour>
      <point x="594" y="708" type="line"/>
      <point x="594" y="559" type="line"/>
      <point x="237" y="559" type="line"/>
      <point x="237" y="423" type="line"/>
      <point x="540" y="423" type="line"/>
      <point x="540" y="278" type="line"/>
      <point x="237" y="278" type="line"/>
      <point x="237" y="147" type="line"/>
      <point x="594" y="147" type="line"/>
      <point x="594" y="0" type="line"/>
      <point x="74" y="0" type="line"/>
      <point x="74" y="708" type="line"/>
    </contour>
    <contour>
      <point x="201" y="941" type="curve" smooth="yes"/>
      <point x="252" y="941"/>
      <point x="291" y="909"/>
      <point x="291" y="853" type="curve" smooth="yes"/>
      <point x="291" y="796"/>
      <point x="252" y="764"/>
      <point x="201" y="764" type="curve" smooth="yes"/>
      <point x="150" y="764"/>
      <point x="111" y="796"/>
      <point x="111" y="853" type="curve" smooth="yes"/>
      <point x="111" y="908"/>
      <point x="150" y="941"/>
    </contour>
    <contour>
      <point x="469" y="941" type="curve" smooth="yes"/>
      <point x="520" y="941"/>
      <point x="560" y="909"/>
      <point x="560" y="853" type="curve" smooth="yes"/>
      <point x="560" y="796"/>
      <point x="520" y="764"/>
      <point x="469" y="764" type="curve" smooth="yes"/>
      <point x="418" y="764"/>
      <point x="379" y="796"/>
      <point x="379" y="853" type="curve" smooth="yes"/>
      <point x="379" y="908"/>
      <point x="420" y="941"/>
    </contour>
  </outline>
</glyph>
<glyph name="Igrave" format="2">
  <advance width="311"/>
  <unicode hex="00CC"/>
  <outline>
    <contour>
      <point x="237" y="0" type="line"/>
      <point x="74" y="0" type="line"/>
      <point x="74" y="708" type="line"/>
      <point x="237" y="708" type="line"/>
    </contour>
    <contour>
      <point x="118" y="765" type="line"/>
      <point x="-35" y="950" type="line"/>
      <point x="128" y="950" type="line"/>
      <point x="248" y="765" type="line"/>
    </contour>
  </outline>
</glyph>
<glyph name="Iacute" format="2">
  <advance width="311"/>
  <unicode hex="00CD"/>
  <outline>
    <contour>
      <point x="237" y="0" type="line"/>
      <point x="74" y="0" type="line"/>
      <point x="74" y="708" type="line"/>
      <point x="237" y="708" type="line"/>
    </contour>
    <contour>
      <point x="64" y="765" type="line"/>
      <point x="184" y="950" type="line"/>
      <point x="347" y="950" type="line"/>
      <point x="194" y="765" type="line"/>
    </contour>
  </outline>
</glyph>
<glyph name="Icircumflex" format="2">
  <advance width="311"/>
  <unicode hex="00CE"/>
  <outline>
    <contour>
      <point x="237" y="0" type="line"/>
      <point x="74" y="0" type="line"/>
      <point x="74" y="708" type="line"/>
      <point x="237" y="708" type="line"/>
    </contour>
    <contour>
      <point x="370" y="765" type="line"/>
      <point x="224" y="765" type="line"/>
      <point x="159" y="852" type="line"/>
      <point x="96" y="765" type="line"/>
      <point x="-50" y="765" type="line"/>
      <point x="108" y="950" type="line"/>
      <point x="210" y="950" type="line"/>
    </contour>
  </outline>
</glyph>
<glyph name="Idieresis" format="2">
  <advance width="311"/>
  <unicode hex="00CF"/>
  <outline>
    <contour>
      <point x="237" y="0" type="line"/>
      <point x="74" y="0" type="line"/>
      <point x="74" y="708" type="line"/>
      <point x="237" y="708" type="line"/>
    </contour>
    <contour>
      <point x="31" y="941" type="curve" smooth="yes"/>
      <point x="82" y="941"/>
      <point x="121" y="909"/>
      <point x="121" y="853" type="curve" smooth="yes"/>
      <point x="121" y="796"/>
      <point x="82" y="764"/>
      <point x="31" y="764" type="curve" smooth="yes"/>
      <point x="-20" y="764"/>
      <point x="-59" y="796"/>
      <point x="-59" y="853" type="curve" smooth="yes"/>
      <point x="-59" y="908"/>
      <point x="-20" y="941"/>
    </contour>
    <contour>
      <point x="279" y="941" type="curve" smooth="yes"/>
      <point x="330" y="941"/>
      <point x="370" y="909"/>
      <point x="370" y="853" type="curve" smooth="yes"/>
      <point x="370" y="796"/>
      <point x="330" y="764"/>
      <point x="279" y="764" type="curve" smooth="yes"/>
      <point x="228" y="764"/>
      <point x="189" y="796"/>
      <point x="189" y="853" type="curve" smooth="yes"/>
      <point x="189" y="908"/>
      <point x="230" y="941"/>
    </contour>
  </outline>
</glyph>
<glyph name="Eth" format="2">
  <advance width="738"/>
  <unicode hex="00D0"/>
  <outline>
    <contour>
      <point x="-9" y="287" type="line"/>
      <point x="-9" y="420" type="line"/>
      <point x="74" y="420" type="line"/>
      <point x="74" y="708" type="line"/>
      <point x="343" y="708" type="line" smooth="yes"/>
      <point x="568" y="708"/>
      <point x="702" y="581"/>
      <point x="702" y="354" type="curve" smooth="yes"/>
      <point x="702" y="121"/>
      <point x="579" y="0"/>
      <point x="347" y="0" type="curve" smooth="yes"/>
      <point x="74" y="0" type="line"/>
      <point x="74" y="287" type="line"/>
    </contour>
    <contour>
      <point x="237" y="287" type="line"/>
      <point x="237" y="147" type="line"/>
      <point x="349" y="147" type="line" smooth="yes"/>
      <point x="482" y="147"/>
      <point x="536" y="226"/>
      <point x="536" y="353" type="curve" smooth="yes"/>
      <point x="536" y="485"/>
      <point x="477" y="559"/>
      <point x="341" y="559" type="curve" smooth="yes"/>
      <point x="237" y="559" type="line"/>
      <point x="237" y="420" type="line"/>
      <point x="364" y="420" type="line"/>
      <point x="364" y="287" type="line"/>
    </contour>
  </outline>
</glyph>
<glyph name="Ntilde" format="2">
  <advance width="784"/>
  <unicode hex="00D1"/>
  <outline>
    <contour>
      <point x="230" y="708" type="line"/>
      <point x="547" y="270" type="line"/>
      <point x="547" y="708" type="line"/>
      <point x="710" y="708" type="line"/>
      <point x="710" y="0" type="line"/>
      <point x="557" y="0" type="line"/>
      <point x="237" y="435" type="line"/>
      <point x="237" y="0" type="line"/>
      <point x="74" y="0" type="line"/>
      <point x="74" y="708" type="line"/>
    </contour>
    <contour>
      <point x="204" y="772" type="line"/>
      <point x="203" y="779"/>
      <point x="202" y="785"/>
      <point x="202" y="805" type="curve"/>
      <point x="205" y="884"/>
      <point x="243" y="945"/>
      <point x="328" y="945" type="curve" smooth="yes"/>
      <point x="397" y="945"/>
      <point x="428" y="880"/>
      <point x="463" y="880" type="curve" smooth="yes"/>
      <point x="493" y="880"/>
      <point x="494" y="914"/>
      <point x="491" y="939" type="curve"/>
      <point x="594" y="939" type="line"/>
      <point x="594" y="932"/>
      <point x="594" y="925"/>
      <point x="594" y="918" type="curve" smooth="yes"/>
      <point x="594" y="842"/>
      <point x="567" y="767"/>
      <point x="479" y="767" type="curve" smooth="yes"/>
      <point x="409" y="767"/>
      <point x="366" y="836"/>
      <point x="334" y="836" type="curve" smooth="yes"/>
      <point x="306" y="836"/>
      <point x="300" y="793"/>
      <point x="305" y="772" type="curve"/>
    </contour>
  </outline>
</glyph>
<glyph name="Otilde" format="2">
  <advance width="782"/>
  <unicode hex="00D5"/>
  <outline>
    <contour>
      <point x="392" y="717" type="curve" smooth="yes"/>
      <point x="608" y="717"/>
      <point x="747" y="574"/>
      <point x="747" y="358" type="curve" smooth="yes"/>
      <point x="747" y="146"/>
      <point x="609" y="-10"/>
      <point x="390" y="-7" type="curve"/>
      <point x="170" y="-7"/>
      <point x="35" y="142"/>
      <point x="35" y="355" type="curve" smooth="yes"/>
      <point x="35" y="571"/>
      <point x="176" y="717"/>
    </contour>
    <contour>
      <point x="202" y="356" type="curve" smooth="yes"/>
      <point x="202" y="247"/>
      <point x="262" y="146"/>
      <point x="394" y="143" type="curve"/>
      <point x="522" y="143"/>
      <point x="580" y="249"/>
      <point x="580" y="354" type="curve" smooth="yes"/>
      <point x="580" y="457"/>
      <point x="525" y="567"/>
      <point x="392" y="567" type="curve" smooth="yes"/>
      <point x="261" y="567"/>
      <point x="202" y="463"/>
    </contour>
    <contour>
      <point x="203" y="772" type="line"/>
      <point x="202" y="779"/>
      <point x="201" y="785"/>
      <point x="201" y="805" type="curve"/>
      <point x="204" y="884"/>
      <point x="242" y="945"/>
      <point x="327" y="945" type="curve" smooth="yes"/>
      <point x="396" y="945"/>
      <point x="427" y="880"/>
      <point x="462" y="880" type="curve" smooth="yes"/>
      <point x="492" y="880"/>
      <point x="493" y="914"/>
      <point x="490" y="939" type="curve"/>
      <point x="593" y="939" type="line"/>
      <point x="593" y="932"/>
      <point x="593" y="925"/>
      <point x="593" y="918" type="curve" smooth="yes"/>
      <point x="593" y="842"/>
      <point x="566" y="767"/>
      <point x="478" y="767" type="curve" smooth="yes"/>
      <point x="408" y="767"/>
      <point x="365" y="836"/>
      <point x="333" y="836" type="curve" smooth="yes"/>
      <point x="305" y="836"/>
      <point x="299" y="793"/>
      <point x="304" y="772" type="curve"/>
    </contour>
  </outline>
</glyph>
<glyph name="Odieresis" format="2">
  <advance width="782"/>
  <unicode hex="00D6"/>
  <outline>
    <contour>
      <point x="392" y="717" type="curve" smooth="yes"/>
      <point x="608" y="717"/>
      <point x="747" y="574"/>
      <point x="747" y="358" type="curve" smooth="yes"/>
      <point x="747" y="146"/>
      <point x="609" y="-10"/>
      <point x="390" y="-7" type="curve"/>
      <point x="170" y="-7"/>
      <point x="35" y="142"/>
      <point x="35" y="355" type="curve" smooth="yes"/>
      <point x="35" y="571"/>
      <point x="176" y="717"/>
    </contour>
    <contour>
      <point x="202" y="356" type="curve" smooth="yes"/>
      <point x="202" y="247"/>
      <point x="262" y="146"/>
      <point x="394" y="143" type="curve"/>
      <point x="522" y="143"/>
      <point x="580" y="249"/>
      <point x="580" y="354" type="curve" smooth="yes"/>
      <point x="580" y="457"/>
      <point x="525" y="567"/>
      <point x="392" y="567" type="curve" smooth="yes"/>
      <point x="261" y="567"/>
      <point x="202" y="463"/>
    </contour>
    <contour>
      <point x="258" y="941" type="curve" smooth="yes"/>
      <point x="309" y="941"/>
      <point x="348" y="909"/>
      <point x="348" y="853" type="curve" smooth="yes"/>
      <point x="348" y="796"/>
      <point x="309" y="764"/>
      <point x="258" y="764" type="curve" smooth="yes"/>
      <point x="207" y="764"/>
      <point x="168" y="796"/>
      <point x="168" y="853" type="curve" smooth="yes"/>
      <point x="168" y="908"/>
      <point x="207" y="941"/>
    </contour>
    <contour>
      <point x="526" y="941" type="curve" smooth="yes"/>
      <point x="577" y="941"/>
      <point x="617" y="909"/>
      <point x="617" y="853" type="curve" smooth="yes"/>
      <point x="617" y="796"/>
      <point x="577" y="764"/>
      <point x="526" y="764" type="curve" smooth="yes"/>
      <point x="475" y="764"/>
      <point x="436" y="796"/>
      <point x="436" y="853" type="curve" smooth="yes"/>
      <point x="436" y="908"/>
      <point x="477" y="941"/>
    </contour>
  </outline>
</glyph>
<glyph name="multiply" format="2">
  <advance width="597"/>
  <unicode hex="00D7"/>
  <outline>
    <contour>
      <point x="298" y="267" type="line"/>
      <point x="146" y="113" type="line"/>
      <point x="50" y="210" type="line"/>
      <point x="202" y="361" type="line"/>
      <point x="50" y="511" type="line"/>
      <point x="147" y="606" type="line"/>
      <point x="299" y="455" type="line"/>
      <point x="447" y="606" type="line"/>
      <point x="545" y="512" type="line"/>
      <point x="393" y="361" type="line"/>
      <point x="547" y="211" type="line"/>
      <point x="449" y="113" type="line"/>
    </contour>
  </outline>
</glyph>
<glyph name="Oslash" format="2">
  <advance width="782"/>
  <unicode hex="00D8"/>
  <outline>
    <contour>
      <point x="338" y="-4" type="curve"/>
      <point x="299" y="-111" type="line"/>
      <point x="148" y="-111" type="line"/>
      <point x="202" y="38" type="line"/>
      <point x="85" y="102"/>
      <point x="35" y="225"/>
      <point x="35" y="355" type="curve" smooth="yes"/>
      <point x="35" y="570"/>
      <point x="176" y="717"/>
      <point x="392" y="717" type="curve" smooth="yes"/>
      <point x="410" y="717"/>
      <point x="428" y="716"/>
      <point x="446" y="714" type="curve"/>
      <point x="484" y="820" type="line"/>
      <point x="636" y="820" type="line"/>
      <point x="582" y="671" type="line"/>
      <point x="697" y="607"/>
      <point x="747" y="486"/>
      <point x="747" y="358" type="curve" smooth="yes"/>
      <point x="747" y="145"/>
      <point x="606" y="-10"/>
      <point x="390" y="-7" type="curve" smooth="yes"/>
      <point x="372" y="-7"/>
      <point x="355" y="-6"/>
    </contour>
    <contour>
      <point x="264" y="192" type="curve"/>
      <point x="400" y="567" type="line"/>
      <point x="392" y="567" type="line" smooth="yes"/>
      <point x="269" y="567"/>
      <point x="202" y="472"/>
      <point x="202" y="356" type="curve" smooth="yes"/>
      <point x="202" y="296"/>
      <point x="220" y="235"/>
    </contour>
    <contour>
      <point x="520" y="517" type="curve"/>
      <point x="383" y="143" type="line"/>
      <point x="394" y="143" type="line" smooth="yes"/>
      <point x="516" y="143"/>
      <point x="580" y="241"/>
      <point x="580" y="354" type="curve" smooth="yes"/>
      <point x="580" y="414"/>
      <point x="563" y="474"/>
    </contour>
  </outline>
</glyph>
<glyph name="Uacute" format="2">
  <advance width="755"/>
  <unicode hex="00DA"/>
  <outline>
    <contour>
      <point x="377" y="-8" type="curve" smooth="yes"/>
      <point x="160" y="-8"/>
      <point x="69" y="115"/>
      <point x="69" y="327" type="curve" smooth="yes"/>
      <point x="69" y="708" type="line"/>
      <point x="232" y="708" type="line"/>
      <point x="232" y="315" type="line" smooth="yes"/>
      <point x="232" y="224"/>
      <point x="266" y="141"/>
      <point x="379" y="141" type="curve" smooth="yes"/>
      <point x="495" y="141"/>
      <point x="523" y="227"/>
      <point x="523" y="315" type="curve" smooth="yes"/>
      <point x="523" y="708" type="line"/>
      <point x="686" y="708" type="line"/>
      <point x="686" y="327" type="line" smooth="yes"/>
      <point x="686" y="115"/>
      <point x="596" y="-8"/>
    </contour>
    <contour>
      <point x="296" y="765" type="line"/>
      <point x="416" y="950" type="line"/>
      <point x="579" y="950" type="line"/>
      <point x="426" y="765" type="line"/>
    </contour>
  </outline>
</glyph>
<glyph name="Udieresis" format="2">
  <advance width="755"/>
  <unicode hex="00DC"/>
  <outline>
    <contour>
      <point x="377" y="-8" type="curve" smooth="yes"/>
      <point x="160" y="-8"/>
      <point x="69" y="115"/>
      <point x="69" y="327" type="curve" smooth="yes"/>
      <point x="69" y="708" type="line"/>
      <point x="232" y="708" type="line"/>
      <point x="232" y="315" type="line" smooth="yes"/>
      <point x="232" y="224"/>
      <point x="266" y="141"/>
      <point x="379" y="141" type="curve" smooth="yes"/>
      <point x="495" y="141"/>
      <point x="523" y="227"/>
      <point x="523" y="315" type="curve" smooth="yes"/>
      <point x="523" y="708" type="line"/>
      <point x="686" y="708" type="line"/>
      <point x="686" y="327" type="line" smooth="yes"/>
      <point x="686" y="115"/>
      <point x="596" y="-8"/>
    </contour>
    <contour>
      <point x="244" y="941" type="curve" smooth="yes"/>
      <point x="295" y="941"/>
      <point x="334" y="909"/>
      <point x="334" y="853" type="curve" smooth="yes"/>
      <point x="334" y="796"/>
      <point x="295" y="764"/>
      <point x="244" y="764" type="curve" smooth="yes"/>
      <point x="193" y="764"/>
      <point x="154" y="796"/>
      <point x="154" y="853" type="curve" smooth="yes"/>
      <point x="154" y="908"/>
      <point x="193" y="941"/>
    </contour>
    <contour>
      <point x="512" y="941" type="curve" smooth="yes"/>
      <point x="563" y="941"/>
      <point x="603" y="909"/>
      <point x="603" y="853" type="curve" smooth="yes"/>
      <point x="603" y="796"/>
      <point x="563" y="764"/>
      <point x="512" y="764" type="curve" smooth="yes"/>
      <point x="461" y="764"/>
      <point x="422" y="796"/>
      <point x="422" y="853" type="curve" smooth="yes"/>
      <point x="422" y="908"/>
      <point x="463" y="941"/>
    </contour>
  </outline>
</glyph>
<glyph name="Yacute" format="2">
  <advance width="704"/>
  <unicode hex="00DD"/>
  <outline>
    <contour>
      <point x="355" y="414" type="line"/>
      <point x="410" y="513"/>
      <point x="463" y="609"/>
      <point x="519" y="708" type="curve"/>
      <point x="703" y="708" type="line"/>
      <point x="435" y="264" type="line"/>
      <point x="434" y="264" type="line"/>
      <point x="435" y="264" type="line"/>
      <point x="435" y="0" type="line"/>
      <point x="272" y="0" type="line"/>
      <point x="272" y="263" type="line"/>
      <point x="1" y="708" type="line"/>
      <point x="189" y="708" type="line"/>
    </contour>
    <contour>
      <point x="279" y="765" type="line"/>
      <point x="399" y="950" type="line"/>
      <point x="562" y="950" type="line"/>
      <point x="409" y="765" type="line"/>
    </contour>
  </outline>
</glyph>
<glyph name="Thorn" format="2">
  <advance width="674"/>
  <unicode hex="00DE"/>
  <outline>
    <contour>
      <point x="359" y="606" type="line" smooth="yes"/>
      <point x="524" y="606"/>
      <point x="638" y="539"/>
      <point x="638" y="359" type="curve" smooth="yes"/>
      <point x="638" y="190"/>
      <point x="523" y="102"/>
      <point x="360" y="102" type="curve" smooth="yes"/>
      <point x="237" y="102" type="line"/>
      <point x="237" y="0" type="line"/>
      <point x="74" y="0" type="line"/>
      <point x="74" y="708" type="line"/>
      <point x="237" y="708" type="line"/>
      <point x="237" y="606" type="line"/>
    </contour>
    <contour>
      <point x="356" y="246" type="line" smooth="yes"/>
      <point x="429" y="246"/>
      <point x="478" y="279"/>
      <point x="478" y="351" type="curve" smooth="yes"/>
      <point x="478" y="432"/>
      <point x="429" y="457"/>
      <point x="354" y="457" type="curve" smooth="yes"/>
      <point x="237" y="457" type="line"/>
      <point x="237" y="246" type="line"/>
    </contour>
  </outline>
</glyph>
<glyph name="germandbls" format="2">
  <advance width="673"/>
  <unicode hex="00DF"/>
  <outline>
    <contour>
      <point x="55" y="556" type="line" smooth="yes"/>
      <point x="55" y="700"/>
      <point x="170" y="750"/>
      <point x="297" y="750" type="curve" smooth="yes"/>
      <point x="406" y="750"/>
      <point x="534" y="703"/>
      <point x="534" y="576" type="curve" smooth="yes"/>
      <point x="534" y="483"/>
      <point x="434" y="445"/>
      <point x="434" y="396" type="curve" smooth="yes"/>
      <point x="434" y="365"/>
      <point x="461" y="357"/>
      <point x="484" y="346" type="curve" smooth="yes"/>
      <point x="558" y="312" type="line" smooth="yes"/>
      <point x="618" y="284"/>
      <point x="651" y="239"/>
      <point x="651" y="166" type="curve" smooth="yes"/>
      <point x="651" y="49"/>
      <point x="558" y="-8"/>
      <point x="446" y="-8" type="curve" smooth="yes"/>
      <point x="335" y="-8"/>
      <point x="244" y="54"/>
      <point x="239" y="171" type="curve"/>
      <point x="387" y="171" type="line"/>
      <point x="387" y="142"/>
      <point x="407" y="121"/>
      <point x="444" y="121" type="curve" smooth="yes"/>
      <point x="475" y="121"/>
      <point x="495" y="137"/>
      <point x="495" y="164" type="curve" smooth="yes"/>
      <point x="495" y="195"/>
      <point x="480" y="208"/>
      <point x="453" y="219" type="curve" smooth="yes"/>
      <point x="369" y="255" type="line" smooth="yes"/>
      <point x="316" y="278"/>
      <point x="280" y="307"/>
      <point x="280" y="371" type="curve" smooth="yes"/>
      <point x="280" y="451"/>
      <point x="369" y="490"/>
      <point x="372" y="556" type="curve"/>
      <point x="372" y="598"/>
      <point x="331" y="616"/>
      <point x="294" y="616" type="curve" smooth="yes"/>
      <point x="247" y="616"/>
      <point x="212" y="595"/>
      <point x="212" y="544" type="curve" smooth="yes"/>
      <point x="212" y="0" type="line"/>
      <point x="55" y="0" type="line"/>
    </contour>
  </outline>
</glyph>
<glyph name="aacute" format="2">
  <advance width="580"/>
  <unicode hex="00E1"/>
  <outline>
    <contour>
      <point x="376" y="223" type="curve"/>
      <point x="284" y="223" type="line" smooth="yes"/>
      <point x="227" y="223"/>
      <point x="194" y="204"/>
      <point x="194" y="168" type="curve" smooth="yes"/>
      <point x="194" y="133"/>
      <point x="221" y="114"/>
      <point x="262" y="114" type="curve" smooth="yes"/>
      <point x="321" y="114"/>
      <point x="376" y="150"/>
    </contour>
    <contour>
      <point x="381" y="0" type="line"/>
      <point x="380" y="68" type="line"/>
      <point x="369" y="52"/>
      <point x="354" y="38"/>
      <point x="338" y="27" type="curve" smooth="yes"/>
      <point x="305" y="5"/>
      <point x="268" y="-8"/>
      <point x="211" y="-8" type="curve" smooth="yes"/>
      <point x="121" y="-8"/>
      <point x="36" y="45"/>
      <point x="36" y="158" type="curve" smooth="yes"/>
      <point x="36" y="218"/>
      <point x="67" y="266"/>
      <point x="112" y="290" type="curve" smooth="yes"/>
      <point x="157" y="314"/>
      <point x="217" y="321"/>
      <point x="281" y="321" type="curve" smooth="yes"/>
      <point x="375" y="321" type="line"/>
      <point x="375" y="370"/>
      <point x="346" y="404"/>
      <point x="290" y="404" type="curve"/>
      <point x="251" y="405"/>
      <point x="213" y="391"/>
      <point x="206" y="359" type="curve"/>
      <point x="46" y="359" type="line"/>
      <point x="62" y="489"/>
      <point x="172" y="538"/>
      <point x="288" y="538" type="curve" smooth="yes"/>
      <point x="477" y="538"/>
      <point x="527" y="423"/>
      <point x="527" y="284" type="curve" smooth="yes"/>
      <point x="527" y="0" type="line"/>
    </contour>
    <contour>
      <point x="198" y="584" type="line"/>
      <point x="318" y="769" type="line"/>
      <point x="481" y="769" type="line"/>
      <point x="328" y="584" type="line"/>
    </contour>
  </outline>
</glyph>
<glyph name="atilde" format="2">
  <advance width="580"/>
  <unicode hex="00E3"/>
  <outline>
    <contour>
      <point x="376" y="223" type="curve"/>
      <point x="284" y="223" type="line" smooth="yes"/>
      <point x="227" y="223"/>
      <point x="194" y="204"/>
      <point x="194" y="168" type="curve" smooth="yes"/>
      <point x="194" y="133"/>
      <point x="221" y="114"/>
      <point x="262" y="114" type="curve" smooth="yes"/>
      <point x="321" y="114"/>
      <point x="376" y="150"/>
    </contour>
    <contour>
      <point x="381" y="0" type="line"/>
      <point x="380" y="68" type="line"/>
      <point x="369" y="52"/>
      <point x="354" y="38"/>
      <point x="338" y="27" type="curve" smooth="yes"/>
      <point x="305" y="5"/>
      <point x="268" y="-8"/>
      <point x="211" y="-8" type="curve" smooth="yes"/>
      <point x="121" y="-8"/>
      <point x="36" y="45"/>
      <point x="36" y="158" type="curve" smooth="yes"/>
      <point x="36" y="218"/>
      <point x="67" y="266"/>
      <point x="112" y="290" type="curve" smooth="yes"/>
      <point x="157" y="314"/>
      <point x="217" y="321"/>
      <point x="281" y="321" type="curve" smooth="yes"/>
      <point x="375" y="321" type="line"/>
      <point x="375" y="370"/>
      <point x="346" y="404"/>
      <point x="290" y="404" type="curve"/>
      <point x="251" y="405"/>
      <point x="213" y="391"/>
      <point x="206" y="359" type="curve"/>
      <point x="46" y="359" type="line"/>
      <point x="62" y="489"/>
      <point x="172" y="538"/>
      <point x="288" y="538" type="curve" smooth="yes"/>
      <point x="477" y="538"/>
      <point x="527" y="423"/>
      <point x="527" y="284" type="curve" smooth="yes"/>
      <point x="527" y="0" type="line"/>
    </contour>
    <contour>
      <point x="105" y="591" type="line"/>
      <point x="104" y="598"/>
      <point x="103" y="604"/>
      <point x="103" y="624" type="curve"/>
      <point x="106" y="703"/>
      <point x="144" y="764"/>
      <point x="229" y="764" type="curve" smooth="yes"/>
      <point x="298" y="764"/>
      <point x="329" y="699"/>
      <point x="364" y="699" type="curve" smooth="yes"/>
      <point x="394" y="699"/>
      <point x="395" y="733"/>
      <point x="392" y="758" type="curve"/>
      <point x="495" y="758" type="line"/>
      <point x="495" y="751"/>
      <point x="495" y="744"/>
      <point x="495" y="737" type="curve" smooth="yes"/>
      <point x="495" y="661"/>
      <point x="468" y="586"/>
      <point x="380" y="586" type="curve" smooth="yes"/>
      <point x="310" y="586"/>
      <point x="267" y="655"/>
      <point x="235" y="655" type="curve" smooth="yes"/>
      <point x="207" y="655"/>
      <point x="201" y="612"/>
      <point x="206" y="591" type="curve"/>
    </contour>
  </outline>
</glyph>
<glyph name="ae" format="2">
  <advance width="914"/>
  <unicode hex="00E6"/>
  <outline>
    <contour>
      <point x="442" y="70" type="curve"/>
      <point x="376" y="2"/>
      <point x="300" y="-8"/>
      <point x="242" y="-8" type="curve" smooth="yes"/>
      <point x="186" y="-8"/>
      <point x="134" y="4"/>
      <point x="98" y="31" type="curve" smooth="yes"/>
      <point x="63" y="58"/>
      <point x="36" y="98"/>
      <point x="36" y="158" type="curve" smooth="yes"/>
      <point x="36" y="297"/>
      <point x="169" y="322"/>
      <point x="281" y="322" type="curve" smooth="yes"/>
      <point x="375" y="322" type="line"/>
      <point x="375" y="375"/>
      <point x="342" y="404"/>
      <point x="290" y="404" type="curve" smooth="yes"/>
      <point x="258" y="404"/>
      <point x="214" y="395"/>
      <point x="206" y="359" type="curve"/>
      <point x="46" y="359" type="line"/>
      <point x="62" y="487"/>
      <point x="169" y="538"/>
      <point x="288" y="538" type="curve" smooth="yes"/>
      <point x="351" y="538"/>
      <point x="414" y="522"/>
      <point x="461" y="473" type="curve"/>
      <point x="508" y="520"/>
      <point x="576" y="538"/>
      <point x="632" y="538" type="curve" smooth="yes"/>
      <point x="789" y="538"/>
      <point x="880" y="434"/>
      <point x="880" y="278" type="curve" smooth="yes"/>
      <point x="880" y="257"/>
      <point x="877" y="237"/>
      <point x="874" y="216" type="curve"/>
      <point x="524" y="216" type="line"/>
      <point x="528" y="153"/>
      <point x="572" y="124"/>
      <point x="632" y="123" type="curve"/>
      <point x="664" y="123"/>
      <point x="699" y="132"/>
      <point x="715" y="163" type="curve"/>
      <point x="875" y="163" type="line"/>
      <point x="845" y="42"/>
      <point x="750" y="-8"/>
      <point x="633" y="-8" type="curve" smooth="yes"/>
      <point x="560" y="-8"/>
      <point x="493" y="11"/>
    </contour>
    <contour>
      <point x="729" y="322" type="line"/>
      <point x="729" y="379"/>
      <point x="682" y="407"/>
      <point x="630" y="407" type="curve" smooth="yes"/>
      <point x="574" y="407"/>
      <point x="531" y="381"/>
      <point x="526" y="322" type="curve"/>
    </contour>
    <contour>
      <point x="376" y="216" type="curve"/>
      <point x="284" y="216" type="line" smooth="yes"/>
      <point x="248" y="216"/>
      <point x="194" y="215"/>
      <point x="194" y="168" type="curve" smooth="yes"/>
      <point x="194" y="128"/>
      <point x="232" y="114"/>
      <point x="267" y="114" type="curve" smooth="yes"/>
      <point x="327" y="114"/>
      <point x="376" y="149"/>
    </contour>
  </outline>
</glyph>
<glyph name="ccedilla" format="2">
  <advance width="571"/>
  <unicode hex="00E7"/>
  <outline>
    <contour>
      <point x="295" y="134" type="curve" smooth="yes"/>
      <point x="343" y="134"/>
      <point x="373" y="160"/>
      <point x="380" y="195" type="curve"/>
      <point x="542" y="195" type="line"/>
      <point x="532" y="72"/>
      <point x="444" y="6"/>
      <point x="337" y="-5" type="curve"/>
      <point x="329" y="-35" type="line"/>
      <point x="337" y="-35" type="line" smooth="yes"/>
      <point x="392" y="-35"/>
      <point x="435" y="-64"/>
      <point x="435" y="-135" type="curve" smooth="yes"/>
      <point x="435" y="-229"/>
      <point x="354" y="-274"/>
      <point x="274" y="-274" type="curve" smooth="yes"/>
      <point x="246" y="-274"/>
      <point x="225" y="-271"/>
      <point x="204" y="-267" type="curve"/>
      <point x="204" y="-175" type="line"/>
      <point x="224" y="-178"/>
      <point x="240" y="-180"/>
      <point x="256" y="-180" type="curve" smooth="yes"/>
      <point x="300" y="-180"/>
      <point x="317" y="-166"/>
      <point x="317" y="-142" type="curve" smooth="yes"/>
      <point x="317" y="-117"/>
      <point x="293" y="-108"/>
      <point x="262" y="-108" type="curve" smooth="yes"/>
      <point x="238" y="-108"/>
      <point x="218" y="-111"/>
      <point x="206" y="-112" type="curve"/>
      <point x="236" y="-3" type="line"/>
      <point x="101" y="17"/>
      <point x="31" y="112"/>
      <point x="31" y="264" type="curve" smooth="yes"/>
      <point x="31" y="433"/>
      <point x="134" y="538"/>
      <point x="300" y="538" type="curve" smooth="yes"/>
      <point x="430" y="538"/>
      <point x="526" y="469"/>
      <point x="539" y="333" type="curve"/>
      <point x="380" y="333" type="line"/>
      <point x="372" y="369"/>
      <point x="342" y="393"/>
      <point x="295" y="393" type="curve" smooth="yes"/>
      <point x="213" y="393"/>
      <point x="189" y="325"/>
      <point x="189" y="261" type="curve" smooth="yes"/>
      <point x="189" y="192"/>
      <point x="218" y="134"/>
    </contour>
  </outline>
</glyph>
<glyph name="ecircumflex" format="2">
  <advance width="582"/>
  <unicode hex="00EA"/>
  <outline>
    <contour>
      <point x="300" y="123" type="curve"/>
      <point x="341" y="123"/>
      <point x="370" y="138"/>
      <point x="383" y="163" type="curve"/>
      <point x="543" y="163" type="line"/>
      <point x="514" y="42"/>
      <point x="413" y="-8"/>
      <point x="298" y="-8" type="curve" smooth="yes"/>
      <point x="131" y="-8"/>
      <point x="34" y="91"/>
      <point x="34" y="266" type="curve" smooth="yes"/>
      <point x="34" y="422"/>
      <point x="134" y="538"/>
      <point x="296" y="538" type="curve" smooth="yes"/>
      <point x="459" y="538"/>
      <point x="548" y="429"/>
      <point x="548" y="278" type="curve" smooth="yes"/>
      <point x="548" y="257"/>
      <point x="546" y="239"/>
      <point x="542" y="216" type="curve"/>
      <point x="192" y="216" type="line"/>
      <point x="197" y="165"/>
      <point x="229" y="124"/>
    </contour>
    <contour>
      <point x="397" y="322" type="line"/>
      <point x="397" y="371"/>
      <point x="359" y="407"/>
      <point x="298" y="407" type="curve" smooth="yes"/>
      <point x="230" y="407"/>
      <point x="198" y="367"/>
      <point x="194" y="322" type="curve"/>
    </contour>
    <contour>
      <point x="513" y="584" type="line"/>
      <point x="367" y="584" type="line"/>
      <point x="302" y="671" type="line"/>
      <point x="239" y="584" type="line"/>
      <point x="93" y="584" type="line"/>
      <point x="251" y="769" type="line"/>
      <point x="353" y="769" type="line"/>
    </contour>
  </outline>
</glyph>
<glyph name="edieresis" format="2">
  <advance width="582"/>
  <unicode hex="00EB"/>
  <outline>
    <contour>
      <point x="300" y="123" type="curve"/>
      <point x="341" y="123"/>
      <point x="370" y="138"/>
      <point x="383" y="163" type="curve"/>
      <point x="543" y="163" type="line"/>
      <point x="514" y="42"/>
      <point x="413" y="-8"/>
      <point x="298" y="-8" type="curve" smooth="yes"/>
      <point x="131" y="-8"/>
      <point x="34" y="91"/>
      <point x="34" y="266" type="curve" smooth="yes"/>
      <point x="34" y="422"/>
      <point x="134" y="538"/>
      <point x="296" y="538" type="curve" smooth="yes"/>
      <point x="459" y="538"/>
      <point x="548" y="429"/>
      <point x="548" y="278" type="curve" smooth="yes"/>
      <point x="548" y="257"/>
      <point x="546" y="239"/>
      <point x="542" y="216" type="curve"/>
      <point x="192" y="216" type="line"/>
      <point x="197" y="165"/>
      <point x="229" y="124"/>
    </contour>
    <contour>
      <point x="397" y="322" type="line"/>
      <point x="397" y="371"/>
      <point x="359" y="407"/>
      <point x="298" y="407" type="curve" smooth="yes"/>
      <point x="230" y="407"/>
      <point x="198" y="367"/>
      <point x="194" y="322" type="curve"/>
    </contour>
    <contour>
      <point x="163" y="760" type="curve" smooth="yes"/>
      <point x="214" y="760"/>
      <point x="253" y="728"/>
      <point x="253" y="672" type="curve" smooth="yes"/>
      <point x="253" y="615"/>
      <point x="214" y="583"/>
      <point x="163" y="583" type="curve" smooth="yes"/>
      <point x="112" y="583"/>
      <point x="73" y="615"/>
      <point x="73" y="672" type="curve" smooth="yes"/>
      <point x="73" y="727"/>
      <point x="112" y="760"/>
    </contour>
    <contour>
      <point x="431" y="760" type="curve" smooth="yes"/>
      <point x="482" y="760"/>
      <point x="522" y="728"/>
      <point x="522" y="672" type="curve" smooth="yes"/>
      <point x="522" y="615"/>
      <point x="482" y="583"/>
      <point x="431" y="583" type="curve" smooth="yes"/>
      <point x="380" y="583"/>
      <point x="341" y="615"/>
      <point x="341" y="672" type="curve" smooth="yes"/>
      <point x="341" y="727"/>
      <point x="382" y="760"/>
    </contour>
  </outline>
</glyph>
<glyph name="igrave" format="2">
  <advance width="267"/>
  <unicode hex="00EC"/>
  <outline>
    <contour>
      <point x="212" y="0" type="line"/>
      <point x="55" y="0" type="line"/>
      <point x="55" y="527" type="line"/>
      <point x="212" y="527" type="line"/>
    </contour>
    <contour>
      <point x="97" y="584" type="line"/>
      <point x="-56" y="769" type="line"/>
      <point x="107" y="769" type="line"/>
      <point x="227" y="584" type="line"/>
    </contour>
  </outline>
</glyph>
<glyph name="iacute" format="2">
  <advance width="267"/>
  <unicode hex="00ED"/>
  <outline>
    <contour>
      <point x="212" y="0" type="line"/>
      <point x="55" y="0" type="line"/>
      <point x="55" y="527" type="line"/>
      <point x="212" y="527" type="line"/>
    </contour>
    <contour>
      <point x="42" y="584" type="line"/>
      <point x="162" y="769" type="line"/>
      <point x="325" y="769" type="line"/>
      <point x="172" y="584" type="line"/>
    </contour>
  </outline>
</glyph>
<glyph name="icircumflex" format="2">
  <advance width="267"/>
  <unicode hex="00EE"/>
  <outline>
    <contour>
      <point x="212" y="0" type="line"/>
      <point x="55" y="0" type="line"/>
      <point x="55" y="527" type="line"/>
      <point x="212" y="527" type="line"/>
    </contour>
    <contour>
      <point x="343" y="584" type="line"/>
      <point x="197" y="584" type="line"/>
      <point x="132" y="671" type="line"/>
      <point x="69" y="584" type="line"/>
      <point x="-77" y="584" type="line"/>
      <point x="81" y="769" type="line"/>
      <point x="183" y="769" type="line"/>
    </contour>
  </outline>
</glyph>
<glyph name="idieresis" format="2">
  <advance width="267"/>
  <unicode hex="00EF"/>
  <outline>
    <contour>
      <point x="212" y="0" type="line"/>
      <point x="55" y="0" type="line"/>
      <point x="55" y="527" type="line"/>
      <point x="212" y="527" type="line"/>
    </contour>
    <contour>
      <point x="19" y="760" type="curve" smooth="yes"/>
      <point x="70" y="760"/>
      <point x="109" y="728"/>
      <point x="109" y="672" type="curve" smooth="yes"/>
      <point x="109" y="615"/>
      <point x="70" y="583"/>
      <point x="19" y="583" type="curve" smooth="yes"/>
      <point x="-32" y="583"/>
      <point x="-71" y="615"/>
      <point x="-71" y="672" type="curve" smooth="yes"/>
      <point x="-71" y="727"/>
      <point x="-32" y="760"/>
    </contour>
    <contour>
      <point x="247" y="760" type="curve" smooth="yes"/>
      <point x="298" y="760"/>
      <point x="338" y="728"/>
      <point x="338" y="672" type="curve" smooth="yes"/>
      <point x="338" y="615"/>
      <point x="298" y="583"/>
      <point x="247" y="583" type="curve" smooth="yes"/>
      <point x="196" y="583"/>
      <point x="157" y="615"/>
      <point x="157" y="672" type="curve" smooth="yes"/>
      <point x="157" y="727"/>
      <point x="198" y="760"/>
    </contour>
  </outline>
</glyph>
<glyph name="eth" format="2">
  <advance width="617"/>
  <unicode hex="00F0"/>
  <outline>
    <contour>
      <point x="196" y="607" type="line"/>
      <point x="266" y="648" type="line"/>
      <point x="241" y="663"/>
      <point x="201" y="670"/>
      <point x="178" y="675" type="curve"/>
      <point x="195" y="788" type="line"/>
      <point x="254" y="780"/>
      <point x="322" y="759"/>
      <point x="381" y="723" type="curve"/>
      <point x="489" y="785" type="line"/>
      <point x="543" y="694" type="line"/>
      <point x="471" y="651" type="line"/>
      <point x="559" y="547"/>
      <point x="583" y="451"/>
      <point x="583" y="317" type="curve" smooth="yes"/>
      <point x="583" y="236"/>
      <point x="565" y="151"/>
      <point x="516" y="86" type="curve" smooth="yes"/>
      <point x="463" y="17"/>
      <point x="387" y="-12"/>
      <point x="299" y="-12" type="curve" smooth="yes"/>
      <point x="141" y="-12"/>
      <point x="34" y="90"/>
      <point x="34" y="252" type="curve" smooth="yes"/>
      <point x="34" y="391"/>
      <point x="129" y="498"/>
      <point x="272" y="498" type="curve" smooth="yes"/>
      <point x="339" y="498"/>
      <point x="401" y="475"/>
      <point x="440" y="419" type="curve"/>
      <point x="440" y="470"/>
      <point x="396" y="548"/>
      <point x="357" y="579" type="curve"/>
      <point x="247" y="517" type="line"/>
    </contour>
    <contour>
      <point x="307" y="128" type="curve" smooth="yes"/>
      <point x="375" y="128"/>
      <point x="416" y="173"/>
      <point x="416" y="241" type="curve" smooth="yes"/>
      <point x="416" y="312"/>
      <point x="370" y="351"/>
      <point x="301" y="351" type="curve" smooth="yes"/>
      <point x="233" y="351"/>
      <point x="191" y="309"/>
      <point x="191" y="242" type="curve" smooth="yes"/>
      <point x="191" y="173"/>
      <point x="236" y="128"/>
    </contour>
  </outline>
</glyph>
<glyph name="ntilde" format="2">
  <advance width="618"/>
  <unicode hex="00F1"/>
  <outline>
    <contour>
      <point x="210" y="469" type="line"/>
      <point x="257" y="520"/>
      <point x="314" y="538"/>
      <point x="365" y="538" type="curve" smooth="yes"/>
      <point x="432" y="539"/>
      <point x="482" y="516"/>
      <point x="516" y="476" type="curve" smooth="yes"/>
      <point x="556" y="430"/>
      <point x="567" y="366"/>
      <point x="567" y="290" type="curve" smooth="yes"/>
      <point x="567" y="0" type="line"/>
      <point x="409" y="0" type="line"/>
      <point x="409" y="277" type="line" smooth="yes"/>
      <point x="409" y="336"/>
      <point x="390" y="394"/>
      <point x="313" y="394" type="curve" smooth="yes"/>
      <point x="233" y="394"/>
      <point x="212" y="322"/>
      <point x="212" y="266" type="curve" smooth="yes"/>
      <point x="212" y="0" type="line"/>
      <point x="55" y="0" type="line"/>
      <point x="55" y="527" type="line"/>
      <point x="202" y="527" type="line"/>
    </contour>
    <contour>
      <point x="126" y="591" type="line"/>
      <point x="125" y="598"/>
      <point x="124" y="604"/>
      <point x="124" y="624" type="curve"/>
      <point x="127" y="703"/>
      <point x="165" y="764"/>
      <point x="250" y="764" type="curve" smooth="yes"/>
      <point x="319" y="764"/>
      <point x="350" y="699"/>
      <point x="385" y="699" type="curve" smooth="yes"/>
      <point x="415" y="699"/>
      <point x="416" y="733"/>
      <point x="413" y="758" type="curve"/>
      <point x="516" y="758" type="line"/>
      <point x="516" y="751"/>
      <point x="516" y="744"/>
      <point x="516" y="737" type="curve" smooth="yes"/>
      <point x="516" y="661"/>
      <point x="489" y="586"/>
      <point x="401" y="586" type="curve" smooth="yes"/>
      <point x="331" y="586"/>
      <point x="288" y="655"/>
      <point x="256" y="655" type="curve" smooth="yes"/>
      <point x="228" y="655"/>
      <point x="222" y="612"/>
      <point x="227" y="591" type="curve"/>
    </contour>
  </outline>
</glyph>
<glyph name="ocircumflex" format="2">
  <advance width="608"/>
  <unicode hex="00F4"/>
  <outline>
    <contour>
      <point x="304" y="392" type="curve" smooth="yes"/>
      <point x="224" y="392"/>
      <point x="190" y="329"/>
      <point x="190" y="265" type="curve" smooth="yes"/>
      <point x="190" y="195"/>
      <point x="224" y="136"/>
      <point x="304" y="136" type="curve" smooth="yes"/>
      <point x="385" y="136"/>
      <point x="416" y="196"/>
      <point x="416" y="265" type="curve" smooth="yes"/>
      <point x="416" y="329"/>
      <point x="385" y="392"/>
    </contour>
    <contour>
      <point x="303" y="-8" type="curve" smooth="yes"/>
      <point x="144" y="-8"/>
      <point x="34" y="90"/>
      <point x="34" y="266" type="curve" smooth="yes"/>
      <point x="34" y="435"/>
      <point x="150" y="538"/>
      <point x="308" y="538" type="curve" smooth="yes"/>
      <point x="467" y="538"/>
      <point x="574" y="435"/>
      <point x="574" y="266" type="curve" smooth="yes"/>
      <point x="574" y="90"/>
      <point x="465" y="-8"/>
    </contour>
    <contour>
      <point x="520" y="584" type="line"/>
      <point x="374" y="584" type="line"/>
      <point x="309" y="671" type="line"/>
      <point x="246" y="584" type="line"/>
      <point x="100" y="584" type="line"/>
      <point x="258" y="769" type="line"/>
      <point x="360" y="769" type="line"/>
    </contour>
  </outline>
</glyph>
<glyph name="otilde" format="2">
  <advance width="608"/>
  <unicode hex="00F5"/>
  <outline>
    <contour>
      <point x="304" y="392" type="curve" smooth="yes"/>
      <point x="224" y="392"/>
      <point x="190" y="329"/>
      <point x="190" y="265" type="curve" smooth="yes"/>
      <point x="190" y="195"/>
      <point x="224" y="136"/>
      <point x="304" y="136" type="curve" smooth="yes"/>
      <point x="385" y="136"/>
      <point x="416" y="196"/>
      <point x="416" y="265" type="curve" smooth="yes"/>
      <point x="416" y="329"/>
      <point x="385" y="392"/>
    </contour>
    <contour>
      <point x="303" y="-8" type="curve" smooth="yes"/>
      <point x="144" y="-8"/>
      <point x="34" y="90"/>
      <point x="34" y="266" type="curve" smooth="yes"/>
      <point x="34" y="435"/>
      <point x="150" y="538"/>
      <point x="308" y="538" type="curve" smooth="yes"/>
      <point x="467" y="538"/>
      <point x="574" y="435"/>
      <point x="574" y="266" type="curve" smooth="yes"/>
      <point x="574" y="90"/>
      <point x="465" y="-8"/>
    </contour>
    <contour>
      <point x="116" y="591" type="line"/>
      <point x="115" y="598"/>
      <point x="114" y="604"/>
      <point x="114" y="624" type="curve"/>
      <point x="117" y="703"/>
      <point x="155" y="764"/>
      <point x="240" y="764" type="curve" smooth="yes"/>
      <point x="309" y="764"/>
      <point x="340" y="699"/>
      <point x="375" y="699" type="curve" smooth="yes"/>
      <point x="405" y="699"/>
      <point x="406" y="733"/>
      <point x="403" y="758" type="curve"/>
      <point x="506" y="758" type="line"/>
      <point x="506" y="751"/>
      <point x="506" y="744"/>
      <point x="506" y="737" type="curve" smooth="yes"/>
      <point x="506" y="661"/>
      <point x="479" y="586"/>
      <point x="391" y="586" type="curve" smooth="yes"/>
      <point x="321" y="586"/>
      <point x="278" y="655"/>
      <point x="246" y="655" type="curve" smooth="yes"/>
      <point x="218" y="655"/>
      <point x="212" y="612"/>
      <point x="217" y="591" type="curve"/>
    </contour>
  </outline>
</glyph>
<glyph name="odieresis" format="2">
  <advance width="608"/>
  <unicode hex="00F6"/>
  <outline>
    <contour>
      <point x="304" y="392" type="curve" smooth="yes"/>
      <point x="224" y="392"/>
      <point x="190" y="329"/>
      <point x="190" y="265" type="curve" smooth="yes"/>
      <point x="190" y="195"/>
      <point x="224" y="136"/>
      <point x="304" y="136" type="curve" smooth="yes"/>
      <point x="385" y="136"/>
      <point x="416" y="196"/>
      <point x="416" y="265" type="curve" smooth="yes"/>
      <point x="416" y="329"/>
      <point x="385" y="392"/>
    </contour>
    <contour>
      <point x="303" y="-8" type="curve" smooth="yes"/>
      <point x="144" y="-8"/>
      <point x="34" y="90"/>
      <point x="34" y="266" type="curve" smooth="yes"/>
      <point x="34" y="435"/>
      <point x="150" y="538"/>
      <point x="308" y="538" type="curve" smooth="yes"/>
      <point x="467" y="538"/>
      <point x="574" y="435"/>
      <point x="574" y="266" type="curve" smooth="yes"/>
      <point x="574" y="90"/>
      <point x="465" y="-8"/>
    </contour>
    <contour>
      <point x="172" y="760" type="curve" smooth="yes"/>
      <point x="223" y="760"/>
      <point x="262" y="728"/>
      <point x="262" y="672" type="curve" smooth="yes"/>
      <point x="262" y="615"/>
      <point x="223" y="583"/>
      <point x="172" y="583" type="curve" smooth="yes"/>
      <point x="121" y="583"/>
      <point x="82" y="615"/>
      <point x="82" y="672" type="curve" smooth="yes"/>
      <point x="82" y="727"/>
      <point x="121" y="760"/>
    </contour>
    <contour>
      <point x="440" y="760" type="curve" smooth="yes"/>
      <point x="491" y="760"/>
      <point x="531" y="728"/>
      <point x="531" y="672" type="curve" smooth="yes"/>
      <point x="531" y="615"/>
      <point x="491" y="583"/>
      <point x="440" y="583" type="curve" smooth="yes"/>
      <point x="389" y="583"/>
      <point x="350" y="615"/>
      <point x="350" y="672" type="curve" smooth="yes"/>
      <point x="350" y="727"/>
      <point x="391" y="760"/>
    </contour>
  </outline>
</glyph>
<glyph name="divide" format="2">
  <advance width="567"/>
  <unicode hex="00F7"/>
  <outline>
    <contour>
      <point x="46" y="294" type="line"/>
      <point x="46" y="428" type="line"/>
      <point x="521" y="428" type="line"/>
      <point x="521" y="294" type="line"/>
    </contour>
    <contour>
      <point x="282" y="653" type="curve" smooth="yes"/>
      <point x="335" y="653"/>
      <point x="374" y="617"/>
      <point x="374" y="560" type="curve" smooth="yes"/>
      <point x="374" y="500"/>
      <point x="335" y="468"/>
      <point x="282" y="468" type="curve" smooth="yes"/>
      <point x="230" y="468"/>
      <point x="189" y="499"/>
      <point x="189" y="560" type="curve" smooth="yes"/>
      <point x="189" y="617"/>
      <point x="231" y="653"/>
    </contour>
    <contour>
      <point x="282" y="253" type="curve" smooth="yes"/>
      <point x="335" y="253"/>
      <point x="374" y="218"/>
      <point x="374" y="159" type="curve" smooth="yes"/>
      <point x="374" y="99"/>
      <point x="335" y="67"/>
      <point x="282" y="67" type="curve" smooth="yes"/>
      <point x="230" y="67"/>
      <point x="189" y="99"/>
      <point x="189" y="159" type="curve" smooth="yes"/>
      <point x="189" y="218"/>
      <point x="231" y="253"/>
    </contour>
  </outline>
</glyph>
<glyph name="oslash" format="2">
  <advance width="608"/>
  <unicode hex="00F8"/>
  <outline>
    <contour>
      <point x="303" y="-8" type="curve" smooth="yes"/>
      <point x="287" y="-8"/>
      <point x="272" y="-7"/>
      <point x="258" y="-5" type="curve"/>
      <point x="214" y="-105" type="line"/>
      <point x="62" y="-105" type="line"/>
      <point x="131" y="44" type="line"/>
      <point x="60" y="96"/>
      <point x="34" y="181"/>
      <point x="34" y="266" type="curve" smooth="yes"/>
      <point x="34" y="430"/>
      <point x="145" y="538"/>
      <point x="308" y="538" type="curve" smooth="yes"/>
      <point x="322" y="538"/>
      <point x="336" y="537"/>
      <point x="349" y="535" type="curve"/>
      <point x="392" y="634" type="line"/>
      <point x="545" y="634" type="line"/>
      <point x="477" y="486" type="line"/>
      <point x="545" y="434"/>
      <point x="574" y="350"/>
      <point x="574" y="266" type="curve" smooth="yes"/>
      <point x="574" y="98"/>
      <point x="472" y="-8"/>
    </contour>
    <contour>
      <point x="302" y="392" type="line"/>
      <point x="227" y="391"/>
      <point x="190" y="334"/>
      <point x="190" y="265" type="curve" smooth="yes"/>
      <point x="190" y="238"/>
      <point x="194" y="209"/>
      <point x="209" y="186" type="curve"/>
    </contour>
    <contour>
      <point x="307" y="136" type="line"/>
      <point x="383" y="139"/>
      <point x="416" y="194"/>
      <point x="416" y="265" type="curve" smooth="yes"/>
      <point x="416" y="290"/>
      <point x="411" y="316"/>
      <point x="399" y="339" type="curve"/>
    </contour>
  </outline>
</glyph>
<glyph name="ucircumflex" format="2">
  <advance width="597"/>
  <unicode hex="00FB"/>
  <outline>
    <contour>
      <point x="299" y="134" type="curve"/>
      <point x="372" y="134"/>
      <point x="387" y="187"/>
      <point x="387" y="245" type="curve" smooth="yes"/>
      <point x="387" y="527" type="line"/>
      <point x="544" y="527" type="line"/>
      <point x="544" y="236" type="line" smooth="yes"/>
      <point x="544" y="55"/>
      <point x="439" y="-8"/>
      <point x="298" y="-8" type="curve" smooth="yes"/>
      <point x="144" y="-8"/>
      <point x="53" y="66"/>
      <point x="53" y="236" type="curve" smooth="yes"/>
      <point x="53" y="527" type="line"/>
      <point x="210" y="527" type="line"/>
      <point x="210" y="245" type="line" smooth="yes"/>
      <point x="210" y="181"/>
      <point x="234" y="135"/>
    </contour>
    <contour>
      <point x="508" y="584" type="line"/>
      <point x="362" y="584" type="line"/>
      <point x="297" y="671" type="line"/>
      <point x="234" y="584" type="line"/>
      <point x="88" y="584" type="line"/>
      <point x="246" y="769" type="line"/>
      <point x="348" y="769" type="line"/>
    </contour>
  </outline>
</glyph>
<glyph name="udieresis" format="2">
  <advance width="597"/>
  <unicode hex="00FC"/>
  <outline>
    <contour>
      <point x="299" y="134" type="curve"/>
      <point x="372" y="134"/>
      <point x="387" y="187"/>
      <point x="387" y="245" type="curve" smooth="yes"/>
      <point x="387" y="527" type="line"/>
      <point x="544" y="527" type="line"/>
      <point x="544" y="236" type="line" smooth="yes"/>
      <point x="544" y="55"/>
      <point x="439" y="-8"/>
      <point x="298" y="-8" type="curve" smooth="yes"/>
      <point x="144" y="-8"/>
      <point x="53" y="66"/>
      <point x="53" y="236" type="curve" smooth="yes"/>
      <point x="53" y="527" type="line"/>
      <point x="210" y="527" type="line"/>
      <point x="210" y="245" type="line" smooth="yes"/>
      <point x="210" y="181"/>
      <point x="234" y="135"/>
    </contour>
    <contour>
      <point x="165" y="760" type="curve" smooth="yes"/>
      <point x="216" y="760"/>
      <point x="255" y="728"/>
      <point x="255" y="672" type="curve" smooth="yes"/>
      <point x="255" y="615"/>
      <point x="216" y="583"/>
      <point x="165" y="583" type="curve" smooth="yes"/>
      <point x="114" y="583"/>
      <point x="75" y="615"/>
      <point x="75" y="672" type="curve" smooth="yes"/>
      <point x="75" y="727"/>
      <point x="114" y="760"/>
    </contour>
    <contour>
      <point x="433" y="760" type="curve" smooth="yes"/>
      <point x="484" y="760"/>
      <point x="524" y="728"/>
      <point x="524" y="672" type="curve" smooth="yes"/>
      <point x="524" y="615"/>
      <point x="484" y="583"/>
      <point x="433" y="583" type="curve" smooth="yes"/>
      <point x="382" y="583"/>
      <point x="343" y="615"/>
      <point x="343" y="672" type="curve" smooth="yes"/>
      <point x="343" y="727"/>
      <point x="384" y="760"/>
    </contour>
  </outline>
</glyph>
<glyph name="thorn" format="2">
  <advance width="642"/>
  <unicode hex="00FE"/>
  <outline>
    <contour>
      <point x="212" y="466" type="line"/>
      <point x="253" y="516"/>
      <point x="311" y="538"/>
      <point x="375" y="538" type="curve" smooth="yes"/>
      <point x="531" y="538"/>
      <point x="608" y="414"/>
      <point x="608" y="269" type="curve" smooth="yes"/>
      <point x="608" y="124"/>
      <point x="537" y="-8"/>
      <point x="377" y="-8" type="curve" smooth="yes"/>
      <point x="307" y="-8"/>
      <point x="252" y="12"/>
      <point x="212" y="52" type="curve"/>
      <point x="212" y="-210" type="line"/>
      <point x="55" y="-210" type="line"/>
      <point x="55" y="708" type="line"/>
      <point x="212" y="708" type="line"/>
    </contour>
    <contour>
      <point x="332" y="394" type="curve" smooth="yes"/>
      <point x="259" y="394"/>
      <point x="212" y="337"/>
      <point x="212" y="267" type="curve" smooth="yes"/>
      <point x="212" y="190"/>
      <point x="256" y="136"/>
      <point x="335" y="134" type="curve"/>
      <point x="416" y="134"/>
      <point x="450" y="191"/>
      <point x="450" y="266" type="curve" smooth="yes"/>
      <point x="450" y="339"/>
      <point x="408" y="394"/>
    </contour>
  </outline>
</glyph>
<glyph name="Amacron" format="2">
  <advance width="730"/>
  <unicode hex="0100"/>
  <outline>
    <contour>
      <point x="269" y="263" type="line"/>
      <point x="459" y="263" type="line"/>
      <point x="365" y="530" type="line"/>
    </contour>
    <contour>
      <point x="219" y="117" type="line"/>
      <point x="176" y="0" type="line"/>
      <point x="0" y="0" type="line"/>
      <point x="279" y="708" type="line"/>
      <point x="453" y="708" type="line"/>
      <point x="728" y="0" type="line"/>
      <point x="551" y="0" type="line"/>
      <point x="509" y="117" type="line"/>
    </contour>
    <contour>
      <point x="559" y="934" type="line"/>
      <point x="559" y="801" type="line"/>
      <point x="182" y="801" type="line"/>
      <point x="182" y="934" type="line"/>
    </contour>
  </outline>
</glyph>
<glyph name="Abreve" format="2">
  <advance width="730"/>
  <unicode hex="0102"/>
  <outline>
    <contour>
      <point x="269" y="263" type="line"/>
      <point x="459" y="263" type="line"/>
      <point x="365" y="530" type="line"/>
    </contour>
    <contour>
      <point x="219" y="117" type="line"/>
      <point x="176" y="0" type="line"/>
      <point x="0" y="0" type="line"/>
      <point x="279" y="708" type="line"/>
      <point x="453" y="708" type="line"/>
      <point x="728" y="0" type="line"/>
      <point x="551" y="0" type="line"/>
      <point x="509" y="117" type="line"/>
    </contour>
    <contour>
      <point x="299" y="941" type="line"/>
      <point x="300" y="896"/>
      <point x="321" y="871"/>
      <point x="368" y="871" type="curve" smooth="yes"/>
      <point x="415" y="871"/>
      <point x="436" y="896"/>
      <point x="437" y="941" type="curve"/>
      <point x="563" y="941" type="line"/>
      <point x="562" y="818"/>
      <point x="485" y="764"/>
      <point x="368" y="764" type="curve" smooth="yes"/>
      <point x="251" y="764"/>
      <point x="174" y="818"/>
      <point x="173" y="941" type="curve"/>
    </contour>
  </outline>
</glyph>
<glyph name="Aogonek" format="2">
  <advance width="730"/>
  <unicode hex="0104"/>
  <outline>
    <contour>
      <point x="269" y="263" type="line"/>
      <point x="459" y="263" type="line"/>
      <point x="365" y="530" type="line"/>
    </contour>
    <contour>
      <point x="219" y="117" type="line"/>
      <point x="176" y="0" type="line"/>
      <point x="0" y="0" type="line"/>
      <point x="279" y="708" type="line"/>
      <point x="453" y="708" type="line"/>
      <point x="728" y="0" type="line"/>
      <point x="680" y="0" type="line"/>
      <point x="652" y="-11"/>
      <point x="625" y="-36"/>
      <point x="623" y="-68" type="curve" smooth="yes"/>
      <point x="622" y="-99"/>
      <point x="644" y="-118"/>
      <point x="672" y="-118" type="curve" smooth="yes"/>
      <point x="685" y="-118"/>
      <point x="699" y="-115"/>
      <point x="713" y="-109" type="curve"/>
      <point x="728" y="-197" type="line"/>
      <point x="703" y="-212"/>
      <point x="675" y="-216"/>
      <point x="646" y="-215" type="curve"/>
      <point x="578" y="-215"/>
      <point x="520" y="-175"/>
      <point x="520" y="-100" type="curve" smooth="yes"/>
      <point x="520" y="-60"/>
      <point x="542" y="-22"/>
      <point x="575" y="0" type="curve"/>
      <point x="551" y="0" type="line"/>
      <point x="509" y="117" type="line"/>
    </contour>
  </outline>
</glyph>
<glyph name="aogonek" format="2">
  <advance width="580"/>
  <unicode hex="0105"/>
  <outline>
    <contour>
      <point x="376" y="223" type="curve"/>
      <point x="284" y="223" type="line" smooth="yes"/>
      <point x="227" y="223"/>
      <point x="194" y="204"/>
      <point x="194" y="168" type="curve" smooth="yes"/>
      <point x="194" y="133"/>
      <point x="221" y="114"/>
      <point x="262" y="114" type="curve" smooth="yes"/>
      <point x="321" y="114"/>
      <point x="376" y="150"/>
    </contour>
    <contour>
      <point x="381" y="0" type="line"/>
      <point x="380" y="68" type="line"/>
      <point x="369" y="52"/>
      <point x="354" y="38"/>
      <point x="338" y="27" type="curve" smooth="yes"/>
      <point x="305" y="5"/>
      <point x="268" y="-8"/>
      <point x="211" y="-8" type="curve" smooth="yes"/>
      <point x="121" y="-8"/>
      <point x="36" y="45"/>
      <point x="36" y="158" type="curve" smooth="yes"/>
      <point x="36" y="218"/>
      <point x="66" y="266"/>
      <point x="114" y="291" type="curve" smooth="yes"/>
      <point x="157" y="314"/>
      <point x="217" y="321"/>
      <point x="281" y="321" type="curve" smooth="yes"/>
      <point x="375" y="321" type="line"/>
      <point x="375" y="370"/>
      <point x="346" y="404"/>
      <point x="290" y="404" type="curve"/>
      <point x="251" y="405"/>
      <point x="213" y="391"/>
      <point x="206" y="359" type="curve"/>
      <point x="46" y="359" type="line"/>
      <point x="62" y="489"/>
      <point x="172" y="538"/>
      <point x="288" y="538" type="curve" smooth="yes"/>
      <point x="477" y="538"/>
      <point x="527" y="423"/>
      <point x="527" y="284" type="curve" smooth="yes"/>
      <point x="527" y="0" type="line"/>
      <point x="507" y="0" type="line"/>
      <point x="479" y="-11"/>
      <point x="452" y="-36"/>
      <point x="450" y="-68" type="curve"/>
      <point x="449" y="-99"/>
      <point x="471" y="-118"/>
      <point x="499" y="-118" type="curve" smooth="yes"/>
      <point x="512" y="-118"/>
      <point x="526" y="-115"/>
      <point x="540" y="-109" type="curve"/>
      <point x="555" y="-197" type="line"/>
      <point x="530" y="-212"/>
      <point x="502" y="-216"/>
      <point x="473" y="-215" type="curve"/>
      <point x="405" y="-215"/>
      <point x="347" y="-175"/>
      <point x="347" y="-100" type="curve" smooth="yes"/>
      <point x="347" y="-60"/>
      <point x="369" y="-22"/>
      <point x="402" y="0" type="curve"/>
    </contour>
  </outline>
</glyph>
<glyph name="Cacute" format="2">
  <advance width="719"/>
  <unicode hex="0106"/>
  <outline>
    <contour>
      <point x="203" y="356" type="curve" smooth="yes"/>
      <point x="203" y="250"/>
      <point x="254" y="143"/>
      <point x="383" y="143" type="curve" smooth="yes"/>
      <point x="466" y="143"/>
      <point x="518" y="180"/>
      <point x="533" y="247" type="curve"/>
      <point x="690" y="247" type="line"/>
      <point x="677" y="79"/>
      <point x="537" y="-7"/>
      <point x="381" y="-7" type="curve" smooth="yes"/>
      <point x="161" y="-7"/>
      <point x="35" y="137"/>
      <point x="35" y="355" type="curve" smooth="yes"/>
      <point x="35" y="568"/>
      <point x="166" y="717"/>
      <point x="382" y="717" type="curve" smooth="yes"/>
      <point x="541" y="717"/>
      <point x="670" y="636"/>
      <point x="686" y="461" type="curve"/>
      <point x="531" y="461" type="line"/>
      <point x="515" y="528"/>
      <point x="466" y="567"/>
      <point x="383" y="567" type="curve" smooth="yes"/>
      <point x="253" y="567"/>
      <point x="203" y="465"/>
    </contour>
    <contour>
      <point x="288" y="765" type="line"/>
      <point x="408" y="950" type="line"/>
      <point x="571" y="950" type="line"/>
      <point x="418" y="765" type="line"/>
    </contour>
  </outline>
</glyph>
<glyph name="cacute" format="2">
  <advance width="574"/>
  <unicode hex="0107"/>
  <outline>
    <contour>
      <point x="298" y="134" type="curve" smooth="yes"/>
      <point x="346" y="134"/>
      <point x="376" y="160"/>
      <point x="383" y="195" type="curve"/>
      <point x="545" y="195" type="line"/>
      <point x="532" y="55"/>
      <point x="424" y="-8"/>
      <point x="299" y="-8" type="curve" smooth="yes"/>
      <point x="128" y="-8"/>
      <point x="34" y="91"/>
      <point x="34" y="264" type="curve" smooth="yes"/>
      <point x="34" y="433"/>
      <point x="137" y="538"/>
      <point x="303" y="538" type="curve" smooth="yes"/>
      <point x="433" y="538"/>
      <point x="529" y="469"/>
      <point x="542" y="333" type="curve"/>
      <point x="383" y="333" type="line"/>
      <point x="375" y="369"/>
      <point x="345" y="393"/>
      <point x="298" y="393" type="curve" smooth="yes"/>
      <point x="216" y="393"/>
      <point x="192" y="326"/>
      <point x="192" y="262" type="curve" smooth="yes"/>
      <point x="192" y="193"/>
      <point x="221" y="134"/>
    </contour>
    <contour>
      <point x="209" y="584" type="line"/>
      <point x="329" y="769" type="line"/>
      <point x="492" y="769" type="line"/>
      <point x="339" y="584" type="line"/>
    </contour>
  </outline>
</glyph>
<glyph name="Ccircumflex" format="2">
  <advance width="719"/>
  <unicode hex="0108"/>
  <outline>
    <contour>
      <point x="203" y="356" type="curve" smooth="yes"/>
      <point x="203" y="250"/>
      <point x="254" y="143"/>
      <point x="383" y="143" type="curve" smooth="yes"/>
      <point x="466" y="143"/>
      <point x="518" y="180"/>
      <point x="533" y="247" type="curve"/>
      <point x="690" y="247" type="line"/>
      <point x="677" y="79"/>
      <point x="537" y="-7"/>
      <point x="381" y="-7" type="curve" smooth="yes"/>
      <point x="161" y="-7"/>
      <point x="35" y="137"/>
      <point x="35" y="355" type="curve" smooth="yes"/>
      <point x="35" y="568"/>
      <point x="166" y="717"/>
      <point x="382" y="717" type="curve" smooth="yes"/>
      <point x="541" y="717"/>
      <point x="670" y="636"/>
      <point x="686" y="461" type="curve"/>
      <point x="531" y="461" type="line"/>
      <point x="515" y="528"/>
      <point x="466" y="567"/>
      <point x="383" y="567" type="curve" smooth="yes"/>
      <point x="253" y="567"/>
      <point x="203" y="465"/>
    </contour>
    <contour>
      <point x="590" y="765" type="line"/>
      <point x="444" y="765" type="line"/>
      <point x="379" y="852" type="line"/>
      <point x="316" y="765" type="line"/>
      <point x="170" y="765" type="line"/>
      <point x="328" y="950" type="line"/>
      <point x="430" y="950" type="line"/>
    </contour>
  </outline>
</glyph>
<glyph name="Cdotaccent" format="2">
  <advance width="719"/>
  <unicode hex="010A"/>
  <outline>
    <contour>
      <point x="203" y="356" type="curve" smooth="yes"/>
      <point x="203" y="250"/>
      <point x="254" y="143"/>
      <point x="383" y="143" type="curve" smooth="yes"/>
      <point x="466" y="143"/>
      <point x="518" y="180"/>
      <point x="533" y="247" type="curve"/>
      <point x="690" y="247" type="line"/>
      <point x="677" y="79"/>
      <point x="537" y="-7"/>
      <point x="381" y="-7" type="curve" smooth="yes"/>
      <point x="161" y="-7"/>
      <point x="35" y="137"/>
      <point x="35" y="355" type="curve" smooth="yes"/>
      <point x="35" y="568"/>
      <point x="166" y="717"/>
      <point x="382" y="717" type="curve" smooth="yes"/>
      <point x="541" y="717"/>
      <point x="670" y="636"/>
      <point x="686" y="461" type="curve"/>
      <point x="531" y="461" type="line"/>
      <point x="515" y="528"/>
      <point x="466" y="567"/>
      <point x="383" y="567" type="curve" smooth="yes"/>
      <point x="253" y="567"/>
      <point x="203" y="465"/>
    </contour>
    <contour>
      <point x="379" y="950" type="curve" smooth="yes"/>
      <point x="435" y="950"/>
      <point x="474" y="913"/>
      <point x="474" y="857" type="curve" smooth="yes"/>
      <point x="474" y="800"/>
      <point x="435" y="764"/>
      <point x="379" y="764" type="curve" smooth="yes"/>
      <point x="323" y="764"/>
      <point x="285" y="801"/>
      <point x="285" y="857" type="curve" smooth="yes"/>
      <point x="285" y="913"/>
      <point x="324" y="950"/>
    </contour>
  </outline>
</glyph>
<glyph name="cdotaccent" format="2">
  <advance width="574"/>
  <unicode hex="010B"/>
  <outline>
    <contour>
      <point x="298" y="134" type="curve" smooth="yes"/>
      <point x="346" y="134"/>
      <point x="376" y="160"/>
      <point x="383" y="195" type="curve"/>
      <point x="545" y="195" type="line"/>
      <point x="532" y="55"/>
      <point x="424" y="-8"/>
      <point x="299" y="-8" type="curve" smooth="yes"/>
      <point x="128" y="-8"/>
      <point x="34" y="91"/>
      <point x="34" y="264" type="curve" smooth="yes"/>
      <point x="34" y="433"/>
      <point x="137" y="538"/>
      <point x="303" y="538" type="curve" smooth="yes"/>
      <point x="433" y="538"/>
      <point x="529" y="469"/>
      <point x="542" y="333" type="curve"/>
      <point x="383" y="333" type="line"/>
      <point x="375" y="369"/>
      <point x="345" y="393"/>
      <point x="298" y="393" type="curve" smooth="yes"/>
      <point x="216" y="393"/>
      <point x="192" y="326"/>
      <point x="192" y="262" type="curve" smooth="yes"/>
      <point x="192" y="193"/>
      <point x="221" y="134"/>
    </contour>
    <contour>
      <point x="298" y="769" type="curve" smooth="yes"/>
      <point x="354" y="769"/>
      <point x="393" y="732"/>
      <point x="393" y="676" type="curve" smooth="yes"/>
      <point x="393" y="619"/>
      <point x="354" y="583"/>
      <point x="298" y="583" type="curve" smooth="yes"/>
      <point x="242" y="583"/>
      <point x="204" y="620"/>
      <point x="204" y="676" type="curve" smooth="yes"/>
      <point x="204" y="732"/>
      <point x="243" y="769"/>
    </contour>
  </outline>
</glyph>
<glyph name="dcaron" format="2">
  <advance width="779"/>
  <unicode hex="010F"/>
  <outline>
    <contour>
      <point x="605" y="479" type="curve"/>
      <point x="632" y="490"/>
      <point x="682" y="531"/>
      <point x="693" y="558" type="curve"/>
      <point x="650" y="562"/>
      <point x="619" y="591"/>
      <point x="619" y="636" type="curve" smooth="yes"/>
      <point x="619" y="689"/>
      <point x="657" y="719"/>
      <point x="708" y="719" type="curve" smooth="yes"/>
      <point x="769" y="719"/>
      <point x="799" y="666"/>
      <point x="799" y="610" type="curve"/>
      <point x="796" y="524"/>
      <point x="731" y="441"/>
      <point x="647" y="417" type="curve"/>
      <point x="632" y="438"/>
      <point x="620" y="458"/>
    </contour>
    <contour>
      <point x="438" y="0" type="line"/>
      <point x="434" y="57" type="line"/>
      <point x="393" y="12"/>
      <point x="348" y="-7"/>
      <point x="273" y="-8" type="curve" smooth="yes"/>
      <point x="118" y="-10"/>
      <point x="34" y="109"/>
      <point x="34" y="262" type="curve" smooth="yes"/>
      <point x="34" y="422"/>
      <point x="128" y="538"/>
      <point x="284" y="538" type="curve" smooth="yes"/>
      <point x="343" y="538"/>
      <point x="393" y="522"/>
      <point x="430" y="489" type="curve"/>
      <point x="430" y="708" type="line"/>
      <point x="588" y="708" type="line"/>
      <point x="588" y="0" type="line"/>
    </contour>
    <contour>
      <point x="311" y="133" type="curve" smooth="yes"/>
      <point x="392" y="134"/>
      <point x="430" y="194"/>
      <point x="430" y="264" type="curve" smooth="yes"/>
      <point x="430" y="333"/>
      <point x="393" y="392"/>
      <point x="311" y="392" type="curve" smooth="yes"/>
      <point x="226" y="392"/>
      <point x="192" y="329"/>
      <point x="192" y="262" type="curve" smooth="yes"/>
      <point x="192" y="193"/>
      <point x="228" y="131"/>
    </contour>
  </outline>
</glyph>
<glyph name="Emacron" format="2">
  <advance width="629"/>
  <unicode hex="0112"/>
  <outline>
    <contour>
      <point x="594" y="708" type="line"/>
      <point x="594" y="559" type="line"/>
      <point x="237" y="559" type="line"/>
      <point x="237" y="423" type="line"/>
      <point x="540" y="423" type="line"/>
      <point x="540" y="278" type="line"/>
      <point x="237" y="278" type="line"/>
      <point x="237" y="147" type="line"/>
      <point x="594" y="147" type="line"/>
      <point x="594" y="0" type="line"/>
      <point x="74" y="0" type="line"/>
      <point x="74" y="708" type="line"/>
    </contour>
    <contour>
      <point x="521" y="934" type="line"/>
      <point x="521" y="801" type="line"/>
      <point x="144" y="801" type="line"/>
      <point x="144" y="934" type="line"/>
    </contour>
  </outline>
</glyph>
<glyph name="Ebreve" format="2">
  <advance width="629"/>
  <unicode hex="0114"/>
  <outline>
    <contour>
      <point x="594" y="708" type="line"/>
      <point x="594" y="559" type="line"/>
      <point x="237" y="559" type="line"/>
      <point x="237" y="423" type="line"/>
      <point x="540" y="423" type="line"/>
      <point x="540" y="278" type="line"/>
      <point x="237" y="278" type="line"/>
      <point x="237" y="147" type="line"/>
      <point x="594" y="147" type="line"/>
      <point x="594" y="0" type="line"/>
      <point x="74" y="0" type="line"/>
      <point x="74" y="708" type="line"/>
    </contour>
    <contour>
      <point x="268" y="941" type="line"/>
      <point x="269" y="896"/>
      <point x="290" y="871"/>
      <point x="337" y="871" type="curve" smooth="yes"/>
      <point x="384" y="871"/>
      <point x="405" y="896"/>
      <point x="406" y="941" type="curve"/>
      <point x="532" y="941" type="line"/>
      <point x="531" y="818"/>
      <point x="454" y="764"/>
      <point x="337" y="764" type="curve" smooth="yes"/>
      <point x="220" y="764"/>
      <point x="143" y="818"/>
      <point x="142" y="941" type="curve"/>
    </contour>
  </outline>
</glyph>
<glyph name="Edotaccent" format="2">
  <advance width="629"/>
  <unicode hex="0116"/>
  <outline>
    <contour>
      <point x="594" y="708" type="line"/>
      <point x="594" y="559" type="line"/>
      <point x="237" y="559" type="line"/>
      <point x="237" y="423" type="line"/>
      <point x="540" y="423" type="line"/>
      <point x="540" y="278" type="line"/>
      <point x="237" y="278" type="line"/>
      <point x="237" y="147" type="line"/>
      <point x="594" y="147" type="line"/>
      <point x="594" y="0" type="line"/>
      <point x="74" y="0" type="line"/>
      <point x="74" y="708" type="line"/>
    </contour>
    <contour>
      <point x="339" y="950" type="curve" smooth="yes"/>
      <point x="395" y="950"/>
      <point x="434" y="913"/>
      <point x="434" y="857" type="curve" smooth="yes"/>
      <point x="434" y="800"/>
      <point x="395" y="764"/>
      <point x="339" y="764" type="curve" smooth="yes"/>
      <point x="283" y="764"/>
      <point x="245" y="801"/>
      <point x="245" y="857" type="curve" smooth="yes"/>
      <point x="245" y="913"/>
      <point x="284" y="950"/>
    </contour>
  </outline>
</glyph>
<glyph name="Eogonek" format="2">
  <advance width="629"/>
  <unicode hex="0118"/>
  <outline>
    <contour>
      <point x="594" y="708" type="line"/>
      <point x="594" y="559" type="line"/>
      <point x="237" y="559" type="line"/>
      <point x="237" y="423" type="line"/>
      <point x="540" y="423" type="line"/>
      <point x="540" y="278" type="line"/>
      <point x="237" y="278" type="line"/>
      <point x="237" y="147" type="line"/>
      <point x="594" y="147" type="line"/>
      <point x="594" y="0" type="line"/>
      <point x="401" y="0" type="line"/>
      <point x="373" y="-11"/>
      <point x="346" y="-36"/>
      <point x="344" y="-68" type="curve"/>
      <point x="343" y="-99"/>
      <point x="365" y="-118"/>
      <point x="393" y="-118" type="curve" smooth="yes"/>
      <point x="406" y="-118"/>
      <point x="420" y="-115"/>
      <point x="434" y="-109" type="curve"/>
      <point x="449" y="-197" type="line"/>
      <point x="424" y="-212"/>
      <point x="396" y="-216"/>
      <point x="367" y="-215" type="curve"/>
      <point x="299" y="-215"/>
      <point x="241" y="-175"/>
      <point x="241" y="-100" type="curve" smooth="yes"/>
      <point x="241" y="-60"/>
      <point x="263" y="-22"/>
      <point x="296" y="0" type="curve"/>
      <point x="74" y="0" type="line"/>
      <point x="74" y="708" type="line"/>
    </contour>
  </outline>
</glyph>
<glyph name="eogonek" format="2">
  <advance width="582"/>
  <unicode hex="0119"/>
  <outline>
    <contour>
      <point x="397" y="322" type="line"/>
      <point x="397" y="371"/>
      <point x="359" y="407"/>
      <point x="298" y="407" type="curve" smooth="yes"/>
      <point x="230" y="407"/>
      <point x="198" y="367"/>
      <point x="194" y="322" type="curve"/>
    </contour>
    <contour>
      <point x="300" y="123" type="curve"/>
      <point x="341" y="123"/>
      <point x="370" y="138"/>
      <point x="383" y="163" type="curve"/>
      <point x="543" y="163" type="line"/>
      <point x="521" y="72"/>
      <point x="460" y="21"/>
      <point x="380" y="1" type="curve"/>
      <point x="370" y="-1"/>
      <point x="359" y="-3"/>
      <point x="348" y="-4" type="curve"/>
      <point x="325" y="-17"/>
      <point x="301" y="-40"/>
      <point x="301" y="-68" type="curve"/>
      <point x="300" y="-99"/>
      <point x="322" y="-118"/>
      <point x="350" y="-118" type="curve" smooth="yes"/>
      <point x="363" y="-118"/>
      <point x="377" y="-115"/>
      <point x="391" y="-109" type="curve"/>
      <point x="406" y="-197" type="line"/>
      <point x="381" y="-212"/>
      <point x="353" y="-216"/>
      <point x="324" y="-215" type="curve"/>
      <point x="256" y="-215"/>
      <point x="198" y="-175"/>
      <point x="198" y="-100" type="curve" smooth="yes"/>
      <point x="198" y="-63"/>
      <point x="217" y="-28"/>
      <point x="246" y="-5" type="curve"/>
      <point x="187" y="3"/>
      <point x="140" y="26"/>
      <point x="103" y="63" type="curve" smooth="yes"/>
      <point x="57" y="111"/>
      <point x="34" y="179"/>
      <point x="34" y="266" type="curve" smooth="yes"/>
      <point x="34" y="422"/>
      <point x="134" y="538"/>
      <point x="296" y="538" type="curve" smooth="yes"/>
      <point x="459" y="538"/>
      <point x="548" y="429"/>
      <point x="548" y="278" type="curve" smooth="yes"/>
      <point x="548" y="257"/>
      <point x="546" y="239"/>
      <point x="542" y="216" type="curve"/>
      <point x="192" y="216" type="line"/>
      <point x="197" y="165"/>
      <point x="229" y="124"/>
    </contour>
  </outline>
</glyph>
<glyph name="Ecaron" format="2">
  <advance width="629"/>
  <unicode hex="011A"/>
  <outline>
    <contour>
      <point x="594" y="708" type="line"/>
      <point x="594" y="559" type="line"/>
      <point x="237" y="559" type="line"/>
      <point x="237" y="423" type="line"/>
      <point x="540" y="423" type="line"/>
      <point x="540" y="278" type="line"/>
      <point x="237" y="278" type="line"/>
      <point x="237" y="147" type="line"/>
      <point x="594" y="147" type="line"/>
      <point x="594" y="0" type="line"/>
      <point x="74" y="0" type="line"/>
      <point x="74" y="708" type="line"/>
    </contour>
    <contour>
      <point x="291" y="765" type="line"/>
      <point x="132" y="950" type="line"/>
      <point x="278" y="950" type="line"/>
      <point x="343" y="863" type="line"/>
      <point x="406" y="950" type="line"/>
      <point x="552" y="950" type="line"/>
      <point x="394" y="765" type="line"/>
    </contour>
  </outline>
</glyph>
<glyph name="Gcircumflex" format="2">
  <advance width="740"/>
  <unicode hex="011C"/>
  <outline>
    <contour>
      <point x="203" y="355" type="curve" smooth="yes"/>
      <point x="203" y="245"/>
      <point x="255" y="143"/>
      <point x="389" y="143" type="curve" smooth="yes"/>
      <point x="462" y="143"/>
      <point x="528" y="174"/>
      <point x="539" y="250" type="curve"/>
      <point x="366" y="250" type="line"/>
      <point x="366" y="385" type="line"/>
      <point x="705" y="385" type="line"/>
      <point x="705" y="278"/>
      <point x="697" y="176"/>
      <point x="630" y="96" type="curve" smooth="yes"/>
      <point x="575" y="31"/>
      <point x="489" y="-7"/>
      <point x="385" y="-7" type="curve" smooth="yes"/>
      <point x="164" y="-7"/>
      <point x="35" y="138"/>
      <point x="35" y="354" type="curve" smooth="yes"/>
      <point x="35" y="575"/>
      <point x="164" y="717"/>
      <point x="385" y="717" type="curve" smooth="yes"/>
      <point x="540" y="717"/>
      <point x="673" y="635"/>
      <point x="692" y="467" type="curve"/>
      <point x="532" y="467" type="line"/>
      <point x="519" y="532"/>
      <point x="463" y="567"/>
      <point x="386" y="567" type="curve" smooth="yes"/>
      <point x="253" y="567"/>
      <point x="203" y="459"/>
    </contour>
    <contour>
      <point x="594" y="765" type="line"/>
      <point x="448" y="765" type="line"/>
      <point x="383" y="852" type="line"/>
      <point x="320" y="765" type="line"/>
      <point x="174" y="765" type="line"/>
      <point x="332" y="950" type="line"/>
      <point x="434" y="950" type="line"/>
    </contour>
  </outline>
</glyph>
<glyph name="Gbreve" format="2">
  <advance width="740"/>
  <unicode hex="011E"/>
  <outline>
    <contour>
      <point x="203" y="355" type="curve" smooth="yes"/>
      <point x="203" y="245"/>
      <point x="255" y="143"/>
      <point x="389" y="143" type="curve" smooth="yes"/>
      <point x="462" y="143"/>
      <point x="528" y="174"/>
      <point x="539" y="250" type="curve"/>
      <point x="366" y="250" type="line"/>
      <point x="366" y="385" type="line"/>
      <point x="705" y="385" type="line"/>
      <point x="705" y="278"/>
      <point x="697" y="176"/>
      <point x="630" y="96" type="curve" smooth="yes"/>
      <point x="575" y="31"/>
      <point x="489" y="-7"/>
      <point x="385" y="-7" type="curve" smooth="yes"/>
      <point x="164" y="-7"/>
      <point x="35" y="138"/>
      <point x="35" y="354" type="curve" smooth="yes"/>
      <point x="35" y="575"/>
      <point x="164" y="717"/>
      <point x="385" y="717" type="curve" smooth="yes"/>
      <point x="540" y="717"/>
      <point x="673" y="635"/>
      <point x="692" y="467" type="curve"/>
      <point x="532" y="467" type="line"/>
      <point x="519" y="532"/>
      <point x="463" y="567"/>
      <point x="386" y="567" type="curve" smooth="yes"/>
      <point x="253" y="567"/>
      <point x="203" y="459"/>
    </contour>
    <contour>
      <point x="317" y="941" type="line"/>
      <point x="318" y="896"/>
      <point x="339" y="871"/>
      <point x="386" y="871" type="curve" smooth="yes"/>
      <point x="433" y="871"/>
      <point x="454" y="896"/>
      <point x="455" y="941" type="curve"/>
      <point x="581" y="941" type="line"/>
      <point x="580" y="818"/>
      <point x="503" y="764"/>
      <point x="386" y="764" type="curve" smooth="yes"/>
      <point x="269" y="764"/>
      <point x="192" y="818"/>
      <point x="191" y="941" type="curve"/>
    </contour>
  </outline>
</glyph>
<glyph name="gbreve" format="2">
  <advance width="644"/>
  <unicode hex="011F"/>
  <outline>
    <contour>
      <point x="430" y="55" type="line"/>
      <point x="394" y="10"/>
      <point x="344" y="-8"/>
      <point x="277" y="-8" type="curve" smooth="yes"/>
      <point x="189" y="-8"/>
      <point x="131" y="22"/>
      <point x="92" y="72" type="curve" smooth="yes"/>
      <point x="53" y="122"/>
      <point x="34" y="189"/>
      <point x="34" y="261" type="curve" smooth="yes"/>
      <point x="34" y="409"/>
      <point x="117" y="538"/>
      <point x="286" y="538" type="curve" smooth="yes"/>
      <point x="347" y="538"/>
      <point x="397" y="517"/>
      <point x="435" y="475" type="curve"/>
      <point x="450" y="527" type="line"/>
      <point x="590" y="527" type="line"/>
      <point x="590" y="102" type="line" smooth="yes"/>
      <point x="590" y="12"/>
      <point x="590" y="-76"/>
      <point x="545" y="-150" type="curve" smooth="yes"/>
      <point x="520" y="-190"/>
      <point x="487" y="-217"/>
      <point x="445" y="-236" type="curve" smooth="yes"/>
      <point x="403" y="-255"/>
      <point x="356" y="-261"/>
      <point x="315" y="-261" type="curve" smooth="yes"/>
      <point x="189" y="-261"/>
      <point x="77" y="-200"/>
      <point x="56" y="-61" type="curve"/>
      <point x="220" y="-61" type="line"/>
      <point x="227" y="-90"/>
      <point x="262" y="-115"/>
      <point x="315" y="-115" type="curve" smooth="yes"/>
      <point x="410" y="-115"/>
      <point x="430" y="-35"/>
      <point x="430" y="38" type="curve" smooth="yes"/>
    </contour>
    <contour>
      <point x="311" y="133" type="curve" smooth="yes"/>
      <point x="395" y="133"/>
      <point x="432" y="194"/>
      <point x="432" y="266" type="curve" smooth="yes"/>
      <point x="432" y="337"/>
      <point x="391" y="394"/>
      <point x="312" y="394" type="curve" smooth="yes"/>
      <point x="226" y="394"/>
      <point x="193" y="325"/>
      <point x="193" y="259" type="curve" smooth="yes"/>
      <point x="193" y="192"/>
      <point x="229" y="133"/>
    </contour>
    <contour>
      <point x="256" y="760" type="line"/>
      <point x="257" y="715"/>
      <point x="278" y="690"/>
      <point x="325" y="690" type="curve" smooth="yes"/>
      <point x="372" y="690"/>
      <point x="393" y="715"/>
      <point x="394" y="760" type="curve"/>
      <point x="520" y="760" type="line"/>
      <point x="519" y="637"/>
      <point x="442" y="583"/>
      <point x="325" y="583" type="curve" smooth="yes"/>
      <point x="208" y="583"/>
      <point x="131" y="637"/>
      <point x="130" y="760" type="curve"/>
    </contour>
  </outline>
</glyph>
